%TF.GenerationSoftware,KiCad,Pcbnew,(5.1.10)-1*%
%TF.CreationDate,2021-08-06T22:26:06+02:00*%
%TF.ProjectId,board,626f6172-642e-46b6-9963-61645f706362,0.2*%
%TF.SameCoordinates,Original*%
%TF.FileFunction,Copper,L1,Top*%
%TF.FilePolarity,Positive*%
%FSLAX46Y46*%
G04 Gerber Fmt 4.6, Leading zero omitted, Abs format (unit mm)*
G04 Created by KiCad (PCBNEW (5.1.10)-1) date 2021-08-06 22:26:06*
%MOMM*%
%LPD*%
G01*
G04 APERTURE LIST*
%TA.AperFunction,ComponentPad*%
%ADD10C,2.000000*%
%TD*%
%TA.AperFunction,ComponentPad*%
%ADD11O,1.700000X1.700000*%
%TD*%
%TA.AperFunction,ComponentPad*%
%ADD12R,1.700000X1.700000*%
%TD*%
%TA.AperFunction,ComponentPad*%
%ADD13O,1.700000X2.000000*%
%TD*%
%TA.AperFunction,SMDPad,CuDef*%
%ADD14R,1.500000X2.000000*%
%TD*%
%TA.AperFunction,SMDPad,CuDef*%
%ADD15R,3.800000X2.000000*%
%TD*%
%TA.AperFunction,SMDPad,CuDef*%
%ADD16R,2.000000X0.900000*%
%TD*%
%TA.AperFunction,SMDPad,CuDef*%
%ADD17R,0.900000X2.000000*%
%TD*%
%TA.AperFunction,SMDPad,CuDef*%
%ADD18R,5.000000X5.000000*%
%TD*%
%TA.AperFunction,ComponentPad*%
%ADD19O,1.950000X1.700000*%
%TD*%
%TA.AperFunction,ComponentPad*%
%ADD20O,1.700000X1.950000*%
%TD*%
%TA.AperFunction,ViaPad*%
%ADD21C,0.800000*%
%TD*%
%TA.AperFunction,Conductor*%
%ADD22C,0.254000*%
%TD*%
%TA.AperFunction,Conductor*%
%ADD23C,0.300000*%
%TD*%
%TA.AperFunction,Conductor*%
%ADD24C,0.430000*%
%TD*%
%TA.AperFunction,Conductor*%
%ADD25C,0.100000*%
%TD*%
G04 APERTURE END LIST*
D10*
%TO.P,SW1,1*%
%TO.N,GND*%
X58370000Y-28540000D03*
%TO.P,SW1,2*%
%TO.N,/RESET*%
X62870000Y-28540000D03*
%TO.P,SW1,1*%
%TO.N,GND*%
X58370000Y-35040000D03*
%TO.P,SW1,2*%
%TO.N,/RESET*%
X62870000Y-35040000D03*
%TD*%
D11*
%TO.P,J6,6*%
%TO.N,+3V3*%
X89980000Y-34090000D03*
%TO.P,J6,5*%
%TO.N,RX*%
X87440000Y-34090000D03*
%TO.P,J6,4*%
%TO.N,GPIO0*%
X89980000Y-31550000D03*
%TO.P,J6,3*%
%TO.N,TX*%
X87440000Y-31550000D03*
%TO.P,J6,2*%
%TO.N,Net-(J6-Pad2)*%
X89980000Y-29010000D03*
D12*
%TO.P,J6,1*%
%TO.N,GND*%
X87440000Y-29010000D03*
%TD*%
D13*
%TO.P,J5,2*%
%TO.N,VBUS*%
X75220000Y-55600000D03*
%TO.P,J5,1*%
%TO.N,GND*%
%TA.AperFunction,ComponentPad*%
G36*
G01*
X71870000Y-56350000D02*
X71870000Y-54850000D01*
G75*
G02*
X72120000Y-54600000I250000J0D01*
G01*
X73320000Y-54600000D01*
G75*
G02*
X73570000Y-54850000I0J-250000D01*
G01*
X73570000Y-56350000D01*
G75*
G02*
X73320000Y-56600000I-250000J0D01*
G01*
X72120000Y-56600000D01*
G75*
G02*
X71870000Y-56350000I0J250000D01*
G01*
G37*
%TD.AperFunction*%
%TD*%
%TO.P,C1,2*%
%TO.N,VBUS*%
%TA.AperFunction,SMDPad,CuDef*%
G36*
G01*
X78765000Y-57980000D02*
X79715000Y-57980000D01*
G75*
G02*
X79965000Y-58230000I0J-250000D01*
G01*
X79965000Y-58730000D01*
G75*
G02*
X79715000Y-58980000I-250000J0D01*
G01*
X78765000Y-58980000D01*
G75*
G02*
X78515000Y-58730000I0J250000D01*
G01*
X78515000Y-58230000D01*
G75*
G02*
X78765000Y-57980000I250000J0D01*
G01*
G37*
%TD.AperFunction*%
%TO.P,C1,1*%
%TO.N,GND*%
%TA.AperFunction,SMDPad,CuDef*%
G36*
G01*
X78765000Y-56080000D02*
X79715000Y-56080000D01*
G75*
G02*
X79965000Y-56330000I0J-250000D01*
G01*
X79965000Y-56830000D01*
G75*
G02*
X79715000Y-57080000I-250000J0D01*
G01*
X78765000Y-57080000D01*
G75*
G02*
X78515000Y-56830000I0J250000D01*
G01*
X78515000Y-56330000D01*
G75*
G02*
X78765000Y-56080000I250000J0D01*
G01*
G37*
%TD.AperFunction*%
%TD*%
%TO.P,R5,1*%
%TO.N,SLED2*%
%TA.AperFunction,SMDPad,CuDef*%
G36*
G01*
X64522500Y-54559998D02*
X64522500Y-55460002D01*
G75*
G02*
X64272502Y-55710000I-249998J0D01*
G01*
X63747498Y-55710000D01*
G75*
G02*
X63497500Y-55460002I0J249998D01*
G01*
X63497500Y-54559998D01*
G75*
G02*
X63747498Y-54310000I249998J0D01*
G01*
X64272502Y-54310000D01*
G75*
G02*
X64522500Y-54559998I0J-249998D01*
G01*
G37*
%TD.AperFunction*%
%TO.P,R5,2*%
%TO.N,/SLED_V2*%
%TA.AperFunction,SMDPad,CuDef*%
G36*
G01*
X62697500Y-54559998D02*
X62697500Y-55460002D01*
G75*
G02*
X62447502Y-55710000I-249998J0D01*
G01*
X61922498Y-55710000D01*
G75*
G02*
X61672500Y-55460002I0J249998D01*
G01*
X61672500Y-54559998D01*
G75*
G02*
X61922498Y-54310000I249998J0D01*
G01*
X62447502Y-54310000D01*
G75*
G02*
X62697500Y-54559998I0J-249998D01*
G01*
G37*
%TD.AperFunction*%
%TD*%
%TO.P,D3,2*%
%TO.N,/SLED_V2*%
%TA.AperFunction,SMDPad,CuDef*%
G36*
G01*
X62637500Y-58433750D02*
X62637500Y-58946250D01*
G75*
G02*
X62418750Y-59165000I-218750J0D01*
G01*
X61981250Y-59165000D01*
G75*
G02*
X61762500Y-58946250I0J218750D01*
G01*
X61762500Y-58433750D01*
G75*
G02*
X61981250Y-58215000I218750J0D01*
G01*
X62418750Y-58215000D01*
G75*
G02*
X62637500Y-58433750I0J-218750D01*
G01*
G37*
%TD.AperFunction*%
%TO.P,D3,1*%
%TO.N,GND*%
%TA.AperFunction,SMDPad,CuDef*%
G36*
G01*
X64212500Y-58433750D02*
X64212500Y-58946250D01*
G75*
G02*
X63993750Y-59165000I-218750J0D01*
G01*
X63556250Y-59165000D01*
G75*
G02*
X63337500Y-58946250I0J218750D01*
G01*
X63337500Y-58433750D01*
G75*
G02*
X63556250Y-58215000I218750J0D01*
G01*
X63993750Y-58215000D01*
G75*
G02*
X64212500Y-58433750I0J-218750D01*
G01*
G37*
%TD.AperFunction*%
%TD*%
%TO.P,D1,2*%
%TO.N,/SLED_V1*%
%TA.AperFunction,SMDPad,CuDef*%
G36*
G01*
X67537500Y-58433750D02*
X67537500Y-58946250D01*
G75*
G02*
X67318750Y-59165000I-218750J0D01*
G01*
X66881250Y-59165000D01*
G75*
G02*
X66662500Y-58946250I0J218750D01*
G01*
X66662500Y-58433750D01*
G75*
G02*
X66881250Y-58215000I218750J0D01*
G01*
X67318750Y-58215000D01*
G75*
G02*
X67537500Y-58433750I0J-218750D01*
G01*
G37*
%TD.AperFunction*%
%TO.P,D1,1*%
%TO.N,GND*%
%TA.AperFunction,SMDPad,CuDef*%
G36*
G01*
X69112500Y-58433750D02*
X69112500Y-58946250D01*
G75*
G02*
X68893750Y-59165000I-218750J0D01*
G01*
X68456250Y-59165000D01*
G75*
G02*
X68237500Y-58946250I0J218750D01*
G01*
X68237500Y-58433750D01*
G75*
G02*
X68456250Y-58215000I218750J0D01*
G01*
X68893750Y-58215000D01*
G75*
G02*
X69112500Y-58433750I0J-218750D01*
G01*
G37*
%TD.AperFunction*%
%TD*%
%TO.P,D2,2*%
%TO.N,/PLED_V*%
%TA.AperFunction,SMDPad,CuDef*%
G36*
G01*
X92356250Y-53437500D02*
X91843750Y-53437500D01*
G75*
G02*
X91625000Y-53218750I0J218750D01*
G01*
X91625000Y-52781250D01*
G75*
G02*
X91843750Y-52562500I218750J0D01*
G01*
X92356250Y-52562500D01*
G75*
G02*
X92575000Y-52781250I0J-218750D01*
G01*
X92575000Y-53218750D01*
G75*
G02*
X92356250Y-53437500I-218750J0D01*
G01*
G37*
%TD.AperFunction*%
%TO.P,D2,1*%
%TO.N,GND*%
%TA.AperFunction,SMDPad,CuDef*%
G36*
G01*
X92356250Y-55012500D02*
X91843750Y-55012500D01*
G75*
G02*
X91625000Y-54793750I0J218750D01*
G01*
X91625000Y-54356250D01*
G75*
G02*
X91843750Y-54137500I218750J0D01*
G01*
X92356250Y-54137500D01*
G75*
G02*
X92575000Y-54356250I0J-218750D01*
G01*
X92575000Y-54793750D01*
G75*
G02*
X92356250Y-55012500I-218750J0D01*
G01*
G37*
%TD.AperFunction*%
%TD*%
%TO.P,R4,2*%
%TO.N,/SLED_V1*%
%TA.AperFunction,SMDPad,CuDef*%
G36*
G01*
X67612500Y-54549998D02*
X67612500Y-55450002D01*
G75*
G02*
X67362502Y-55700000I-249998J0D01*
G01*
X66837498Y-55700000D01*
G75*
G02*
X66587500Y-55450002I0J249998D01*
G01*
X66587500Y-54549998D01*
G75*
G02*
X66837498Y-54300000I249998J0D01*
G01*
X67362502Y-54300000D01*
G75*
G02*
X67612500Y-54549998I0J-249998D01*
G01*
G37*
%TD.AperFunction*%
%TO.P,R4,1*%
%TO.N,SLED1*%
%TA.AperFunction,SMDPad,CuDef*%
G36*
G01*
X69437500Y-54549998D02*
X69437500Y-55450002D01*
G75*
G02*
X69187502Y-55700000I-249998J0D01*
G01*
X68662498Y-55700000D01*
G75*
G02*
X68412500Y-55450002I0J249998D01*
G01*
X68412500Y-54549998D01*
G75*
G02*
X68662498Y-54300000I249998J0D01*
G01*
X69187502Y-54300000D01*
G75*
G02*
X69437500Y-54549998I0J-249998D01*
G01*
G37*
%TD.AperFunction*%
%TD*%
D14*
%TO.P,U2,1*%
%TO.N,GND*%
X87650000Y-51900000D03*
%TO.P,U2,3*%
%TO.N,VBUS*%
X83050000Y-51900000D03*
%TO.P,U2,2*%
%TO.N,+3V3*%
X85350000Y-51900000D03*
D15*
X85350000Y-58200000D03*
%TD*%
D16*
%TO.P,U1,38*%
%TO.N,GND*%
X83520000Y-28435000D03*
%TO.P,U1,37*%
%TO.N,/IO23*%
X83520000Y-29705000D03*
%TO.P,U1,36*%
%TO.N,SCL*%
X83520000Y-30975000D03*
%TO.P,U1,35*%
%TO.N,TX*%
X83520000Y-32245000D03*
%TO.P,U1,34*%
%TO.N,RX*%
X83520000Y-33515000D03*
%TO.P,U1,33*%
%TO.N,SDA*%
X83520000Y-34785000D03*
%TO.P,U1,32*%
%TO.N,Net-(U1-Pad32)*%
X83520000Y-36055000D03*
%TO.P,U1,31*%
%TO.N,CH2*%
X83520000Y-37325000D03*
%TO.P,U1,30*%
%TO.N,CH1*%
X83520000Y-38595000D03*
%TO.P,U1,29*%
%TO.N,/IO5*%
X83520000Y-39865000D03*
%TO.P,U1,28*%
%TO.N,/IO17*%
X83520000Y-41135000D03*
%TO.P,U1,27*%
%TO.N,/IO16*%
X83520000Y-42405000D03*
%TO.P,U1,26*%
%TO.N,/IO4*%
X83520000Y-43675000D03*
%TO.P,U1,25*%
%TO.N,GPIO0*%
X83520000Y-44945000D03*
D17*
%TO.P,U1,24*%
%TO.N,/IO2*%
X80735000Y-45945000D03*
%TO.P,U1,23*%
%TO.N,/IO15*%
X79465000Y-45945000D03*
%TO.P,U1,22*%
%TO.N,/SD1*%
X78195000Y-45945000D03*
%TO.P,U1,21*%
%TO.N,/SD0*%
X76925000Y-45945000D03*
%TO.P,U1,20*%
%TO.N,/CLK*%
X75655000Y-45945000D03*
%TO.P,U1,19*%
%TO.N,/CMD*%
X74385000Y-45945000D03*
%TO.P,U1,18*%
%TO.N,/SD3*%
X73115000Y-45945000D03*
%TO.P,U1,17*%
%TO.N,/SD2*%
X71845000Y-45945000D03*
%TO.P,U1,16*%
%TO.N,/IO13*%
X70575000Y-45945000D03*
%TO.P,U1,15*%
%TO.N,GND*%
X69305000Y-45945000D03*
D16*
%TO.P,U1,14*%
%TO.N,SLED1*%
X66520000Y-44945000D03*
%TO.P,U1,13*%
%TO.N,GPIO14*%
X66520000Y-43675000D03*
%TO.P,U1,12*%
%TO.N,SLED2*%
X66520000Y-42405000D03*
%TO.P,U1,11*%
%TO.N,/IO26*%
X66520000Y-41135000D03*
%TO.P,U1,10*%
%TO.N,/IO25*%
X66520000Y-39865000D03*
%TO.P,U1,9*%
%TO.N,/IO33*%
X66520000Y-38595000D03*
%TO.P,U1,8*%
%TO.N,/IO32*%
X66520000Y-37325000D03*
%TO.P,U1,7*%
%TO.N,/IO35*%
X66520000Y-36055000D03*
%TO.P,U1,6*%
%TO.N,/IO34*%
X66520000Y-34785000D03*
%TO.P,U1,5*%
%TO.N,Net-(U1-Pad5)*%
X66520000Y-33515000D03*
%TO.P,U1,4*%
%TO.N,Net-(U1-Pad4)*%
X66520000Y-32245000D03*
%TO.P,U1,3*%
%TO.N,/RESET*%
X66520000Y-30975000D03*
%TO.P,U1,2*%
%TO.N,+3V3*%
X66520000Y-29705000D03*
%TO.P,U1,1*%
%TO.N,GND*%
X66520000Y-28435000D03*
D18*
%TO.P,U1,39*%
X74020000Y-35935000D03*
%TD*%
%TO.P,R3,2*%
%TO.N,/RESET*%
%TA.AperFunction,SMDPad,CuDef*%
G36*
G01*
X85510002Y-48547500D02*
X84609998Y-48547500D01*
G75*
G02*
X84360000Y-48297502I0J249998D01*
G01*
X84360000Y-47772498D01*
G75*
G02*
X84609998Y-47522500I249998J0D01*
G01*
X85510002Y-47522500D01*
G75*
G02*
X85760000Y-47772498I0J-249998D01*
G01*
X85760000Y-48297502D01*
G75*
G02*
X85510002Y-48547500I-249998J0D01*
G01*
G37*
%TD.AperFunction*%
%TO.P,R3,1*%
%TO.N,+3V3*%
%TA.AperFunction,SMDPad,CuDef*%
G36*
G01*
X85510002Y-50372500D02*
X84609998Y-50372500D01*
G75*
G02*
X84360000Y-50122502I0J249998D01*
G01*
X84360000Y-49597498D01*
G75*
G02*
X84609998Y-49347500I249998J0D01*
G01*
X85510002Y-49347500D01*
G75*
G02*
X85760000Y-49597498I0J-249998D01*
G01*
X85760000Y-50122502D01*
G75*
G02*
X85510002Y-50372500I-249998J0D01*
G01*
G37*
%TD.AperFunction*%
%TD*%
%TO.P,R2,2*%
%TO.N,/PLED_V*%
%TA.AperFunction,SMDPad,CuDef*%
G36*
G01*
X89519998Y-54397500D02*
X90420002Y-54397500D01*
G75*
G02*
X90670000Y-54647498I0J-249998D01*
G01*
X90670000Y-55172502D01*
G75*
G02*
X90420002Y-55422500I-249998J0D01*
G01*
X89519998Y-55422500D01*
G75*
G02*
X89270000Y-55172502I0J249998D01*
G01*
X89270000Y-54647498D01*
G75*
G02*
X89519998Y-54397500I249998J0D01*
G01*
G37*
%TD.AperFunction*%
%TO.P,R2,1*%
%TO.N,+3V3*%
%TA.AperFunction,SMDPad,CuDef*%
G36*
G01*
X89519998Y-52572500D02*
X90420002Y-52572500D01*
G75*
G02*
X90670000Y-52822498I0J-249998D01*
G01*
X90670000Y-53347502D01*
G75*
G02*
X90420002Y-53597500I-249998J0D01*
G01*
X89519998Y-53597500D01*
G75*
G02*
X89270000Y-53347502I0J249998D01*
G01*
X89270000Y-52822498D01*
G75*
G02*
X89519998Y-52572500I249998J0D01*
G01*
G37*
%TD.AperFunction*%
%TD*%
%TO.P,R1,2*%
%TO.N,GPIO14*%
%TA.AperFunction,SMDPad,CuDef*%
G36*
G01*
X79610002Y-48497500D02*
X78709998Y-48497500D01*
G75*
G02*
X78460000Y-48247502I0J249998D01*
G01*
X78460000Y-47722498D01*
G75*
G02*
X78709998Y-47472500I249998J0D01*
G01*
X79610002Y-47472500D01*
G75*
G02*
X79860000Y-47722498I0J-249998D01*
G01*
X79860000Y-48247502D01*
G75*
G02*
X79610002Y-48497500I-249998J0D01*
G01*
G37*
%TD.AperFunction*%
%TO.P,R1,1*%
%TO.N,+3V3*%
%TA.AperFunction,SMDPad,CuDef*%
G36*
G01*
X79610002Y-50322500D02*
X78709998Y-50322500D01*
G75*
G02*
X78460000Y-50072502I0J249998D01*
G01*
X78460000Y-49547498D01*
G75*
G02*
X78709998Y-49297500I249998J0D01*
G01*
X79610002Y-49297500D01*
G75*
G02*
X79860000Y-49547498I0J-249998D01*
G01*
X79860000Y-50072502D01*
G75*
G02*
X79610002Y-50322500I-249998J0D01*
G01*
G37*
%TD.AperFunction*%
%TD*%
D11*
%TO.P,J4,2*%
%TO.N,VBUS*%
X58730000Y-38410000D03*
D12*
%TO.P,J4,1*%
%TO.N,/RELAY_V*%
X61270000Y-38410000D03*
%TD*%
D19*
%TO.P,J3,4*%
%TO.N,/RELAY_V*%
X59750000Y-43240000D03*
%TO.P,J3,3*%
%TO.N,CH2*%
X59750000Y-45740000D03*
%TO.P,J3,2*%
%TO.N,CH1*%
X59750000Y-48240000D03*
%TO.P,J3,1*%
%TO.N,GND*%
%TA.AperFunction,ComponentPad*%
G36*
G01*
X60475000Y-51590000D02*
X59025000Y-51590000D01*
G75*
G02*
X58775000Y-51340000I0J250000D01*
G01*
X58775000Y-50140000D01*
G75*
G02*
X59025000Y-49890000I250000J0D01*
G01*
X60475000Y-49890000D01*
G75*
G02*
X60725000Y-50140000I0J-250000D01*
G01*
X60725000Y-51340000D01*
G75*
G02*
X60475000Y-51590000I-250000J0D01*
G01*
G37*
%TD.AperFunction*%
%TD*%
%TO.P,J2,4*%
%TO.N,SDA*%
X90340000Y-46850000D03*
%TO.P,J2,3*%
%TO.N,SCL*%
X90340000Y-44350000D03*
%TO.P,J2,2*%
%TO.N,+3V3*%
X90340000Y-41850000D03*
%TO.P,J2,1*%
%TO.N,GND*%
%TA.AperFunction,ComponentPad*%
G36*
G01*
X89615000Y-38500000D02*
X91065000Y-38500000D01*
G75*
G02*
X91315000Y-38750000I0J-250000D01*
G01*
X91315000Y-39950000D01*
G75*
G02*
X91065000Y-40200000I-250000J0D01*
G01*
X89615000Y-40200000D01*
G75*
G02*
X89365000Y-39950000I0J250000D01*
G01*
X89365000Y-38750000D01*
G75*
G02*
X89615000Y-38500000I250000J0D01*
G01*
G37*
%TD.AperFunction*%
%TD*%
D20*
%TO.P,J1,3*%
%TO.N,GND*%
X68260000Y-51170000D03*
%TO.P,J1,2*%
%TO.N,+3V3*%
X70760000Y-51170000D03*
%TO.P,J1,1*%
%TO.N,GPIO14*%
%TA.AperFunction,ComponentPad*%
G36*
G01*
X74110000Y-50445000D02*
X74110000Y-51895000D01*
G75*
G02*
X73860000Y-52145000I-250000J0D01*
G01*
X72660000Y-52145000D01*
G75*
G02*
X72410000Y-51895000I0J250000D01*
G01*
X72410000Y-50445000D01*
G75*
G02*
X72660000Y-50195000I250000J0D01*
G01*
X73860000Y-50195000D01*
G75*
G02*
X74110000Y-50445000I0J-250000D01*
G01*
G37*
%TD.AperFunction*%
%TD*%
%TO.P,C5,2*%
%TO.N,GND*%
%TA.AperFunction,SMDPad,CuDef*%
G36*
G01*
X83275000Y-48470000D02*
X82325000Y-48470000D01*
G75*
G02*
X82075000Y-48220000I0J250000D01*
G01*
X82075000Y-47720000D01*
G75*
G02*
X82325000Y-47470000I250000J0D01*
G01*
X83275000Y-47470000D01*
G75*
G02*
X83525000Y-47720000I0J-250000D01*
G01*
X83525000Y-48220000D01*
G75*
G02*
X83275000Y-48470000I-250000J0D01*
G01*
G37*
%TD.AperFunction*%
%TO.P,C5,1*%
%TO.N,+3V3*%
%TA.AperFunction,SMDPad,CuDef*%
G36*
G01*
X83275000Y-50370000D02*
X82325000Y-50370000D01*
G75*
G02*
X82075000Y-50120000I0J250000D01*
G01*
X82075000Y-49620000D01*
G75*
G02*
X82325000Y-49370000I250000J0D01*
G01*
X83275000Y-49370000D01*
G75*
G02*
X83525000Y-49620000I0J-250000D01*
G01*
X83525000Y-50120000D01*
G75*
G02*
X83275000Y-50370000I-250000J0D01*
G01*
G37*
%TD.AperFunction*%
%TD*%
%TO.P,C4,2*%
%TO.N,+3V3*%
%TA.AperFunction,SMDPad,CuDef*%
G36*
G01*
X79705000Y-53190000D02*
X78755000Y-53190000D01*
G75*
G02*
X78505000Y-52940000I0J250000D01*
G01*
X78505000Y-52440000D01*
G75*
G02*
X78755000Y-52190000I250000J0D01*
G01*
X79705000Y-52190000D01*
G75*
G02*
X79955000Y-52440000I0J-250000D01*
G01*
X79955000Y-52940000D01*
G75*
G02*
X79705000Y-53190000I-250000J0D01*
G01*
G37*
%TD.AperFunction*%
%TO.P,C4,1*%
%TO.N,GND*%
%TA.AperFunction,SMDPad,CuDef*%
G36*
G01*
X79705000Y-55090000D02*
X78755000Y-55090000D01*
G75*
G02*
X78505000Y-54840000I0J250000D01*
G01*
X78505000Y-54340000D01*
G75*
G02*
X78755000Y-54090000I250000J0D01*
G01*
X79705000Y-54090000D01*
G75*
G02*
X79955000Y-54340000I0J-250000D01*
G01*
X79955000Y-54840000D01*
G75*
G02*
X79705000Y-55090000I-250000J0D01*
G01*
G37*
%TD.AperFunction*%
%TD*%
%TO.P,C2,2*%
%TO.N,/RESET*%
%TA.AperFunction,SMDPad,CuDef*%
G36*
G01*
X64665000Y-37990000D02*
X63715000Y-37990000D01*
G75*
G02*
X63465000Y-37740000I0J250000D01*
G01*
X63465000Y-37240000D01*
G75*
G02*
X63715000Y-36990000I250000J0D01*
G01*
X64665000Y-36990000D01*
G75*
G02*
X64915000Y-37240000I0J-250000D01*
G01*
X64915000Y-37740000D01*
G75*
G02*
X64665000Y-37990000I-250000J0D01*
G01*
G37*
%TD.AperFunction*%
%TO.P,C2,1*%
%TO.N,GND*%
%TA.AperFunction,SMDPad,CuDef*%
G36*
G01*
X64665000Y-39890000D02*
X63715000Y-39890000D01*
G75*
G02*
X63465000Y-39640000I0J250000D01*
G01*
X63465000Y-39140000D01*
G75*
G02*
X63715000Y-38890000I250000J0D01*
G01*
X64665000Y-38890000D01*
G75*
G02*
X64915000Y-39140000I0J-250000D01*
G01*
X64915000Y-39640000D01*
G75*
G02*
X64665000Y-39890000I-250000J0D01*
G01*
G37*
%TD.AperFunction*%
%TD*%
D21*
%TO.N,GND*%
X64720000Y-45510000D03*
X87570000Y-42860000D03*
X81390000Y-42930000D03*
X76820000Y-51400000D03*
X80950000Y-48370000D03*
%TO.N,+3V3*%
X69390000Y-38090000D03*
X86500000Y-50200000D03*
X90600000Y-50200000D03*
%TO.N,SCL*%
X85250000Y-31400000D03*
X86890000Y-37980000D03*
%TO.N,SDA*%
X85870000Y-39110000D03*
X85280000Y-35620000D03*
%TO.N,CH2*%
X62280000Y-43670000D03*
X68240000Y-40780000D03*
X81730000Y-37330000D03*
X75690000Y-39840000D03*
%TO.N,CH1*%
X62325000Y-46535000D03*
X68210000Y-42650000D03*
X81760000Y-38590000D03*
X75950000Y-42660000D03*
%TO.N,VBUS*%
X80620000Y-53560000D03*
X75220000Y-53570000D03*
%TO.N,/RESET*%
X64870000Y-30970000D03*
X78490000Y-35830000D03*
%TO.N,SLED1*%
X66520000Y-47230000D03*
X66520000Y-52595000D03*
%TD*%
D22*
%TO.N,GPIO14*%
X67288602Y-43675000D02*
X66520000Y-43675000D01*
X67980000Y-44240000D02*
X67288602Y-43675000D01*
X73260000Y-51170000D02*
X73260000Y-51130000D01*
X73260000Y-51130000D02*
X71540000Y-49410000D01*
X71540000Y-49410000D02*
X69380000Y-49410000D01*
X67980000Y-48010000D02*
X67980000Y-46400000D01*
X69380000Y-49410000D02*
X67980000Y-48010000D01*
X67980000Y-46400000D02*
X67980000Y-44240000D01*
X67980000Y-46540000D02*
X67980000Y-46400000D01*
X73260000Y-51170000D02*
X76420000Y-48010000D01*
X79135000Y-48010000D02*
X79160000Y-47985000D01*
X76420000Y-48010000D02*
X79135000Y-48010000D01*
D23*
%TO.N,+3V3*%
X67820000Y-29705000D02*
X66520000Y-29705000D01*
X69390000Y-31275000D02*
X67820000Y-29705000D01*
X69390000Y-38090000D02*
X69390000Y-31275000D01*
X70760000Y-51370000D02*
X70760000Y-51170000D01*
X92170000Y-43680000D02*
X90340000Y-41850000D01*
X70760000Y-51250000D02*
X72230000Y-52720000D01*
X70760000Y-51170000D02*
X70760000Y-51250000D01*
X92170000Y-47870000D02*
X92170000Y-47370000D01*
X92170000Y-47370000D02*
X92170000Y-43680000D01*
X92170000Y-47760000D02*
X92170000Y-47370000D01*
X66510000Y-29695000D02*
X66520000Y-29705000D01*
X82765000Y-49835000D02*
X82800000Y-49870000D01*
D24*
X85350000Y-51900000D02*
X85350000Y-58200000D01*
D23*
X82800000Y-49870000D02*
X83320000Y-49870000D01*
X90600000Y-52455000D02*
X89970000Y-53085000D01*
X92170000Y-47760000D02*
X92170000Y-47870000D01*
X90600000Y-52455000D02*
X90600000Y-50200000D01*
X92170000Y-48630000D02*
X90600000Y-50200000D01*
X92170000Y-47760000D02*
X92170000Y-48630000D01*
X79200000Y-52720000D02*
X79230000Y-52690000D01*
X72230000Y-52720000D02*
X79200000Y-52720000D01*
X79230000Y-49880000D02*
X79160000Y-49810000D01*
X79230000Y-52690000D02*
X79230000Y-49880000D01*
X82740000Y-49810000D02*
X82800000Y-49870000D01*
X79160000Y-49810000D02*
X82740000Y-49810000D01*
X87640000Y-36430000D02*
X89980000Y-34090000D01*
X87640000Y-39820000D02*
X87640000Y-36430000D01*
X89870000Y-41850000D02*
X87640000Y-39820000D01*
X90340000Y-41850000D02*
X89870000Y-41850000D01*
X85050000Y-49870000D02*
X85060000Y-49860000D01*
X82800000Y-49870000D02*
X85050000Y-49870000D01*
D24*
X85350000Y-50150000D02*
X85060000Y-49860000D01*
X85350000Y-51900000D02*
X85350000Y-50150000D01*
X85350000Y-51350000D02*
X86500000Y-50200000D01*
X85350000Y-51900000D02*
X85350000Y-51350000D01*
D22*
%TO.N,SCL*%
X84825000Y-30975000D02*
X85250000Y-31400000D01*
X83520000Y-30975000D02*
X84825000Y-30975000D01*
X86890000Y-40890000D02*
X90340000Y-44350000D01*
X86890000Y-37980000D02*
X86890000Y-40890000D01*
%TO.N,SDA*%
X83520000Y-34785000D02*
X84288602Y-34785000D01*
X84375474Y-34785000D02*
X83520000Y-34785000D01*
X85870000Y-42490000D02*
X90340000Y-46850000D01*
X85870000Y-39110000D02*
X85870000Y-42490000D01*
X84445000Y-34785000D02*
X85280000Y-35620000D01*
X83520000Y-34785000D02*
X84445000Y-34785000D01*
%TO.N,CH2*%
X59770000Y-46180000D02*
X59770000Y-46270000D01*
X62280000Y-43670000D02*
X59770000Y-46180000D01*
X68240000Y-40780000D02*
X74763602Y-40780000D01*
D23*
X81735000Y-37325000D02*
X81730000Y-37330000D01*
D22*
X83520000Y-37325000D02*
X81735000Y-37325000D01*
X74763602Y-40766398D02*
X75690000Y-39840000D01*
X74763602Y-40780000D02*
X74763602Y-40766398D01*
%TO.N,CH1*%
X60090000Y-48770000D02*
X59770000Y-48770000D01*
X62325000Y-46535000D02*
X60090000Y-48770000D01*
X82751398Y-38595000D02*
X83520000Y-38595000D01*
X75940000Y-42650000D02*
X68210000Y-42650000D01*
D23*
X81765000Y-38595000D02*
X81760000Y-38590000D01*
D22*
X83520000Y-38595000D02*
X81765000Y-38595000D01*
D23*
%TO.N,VBUS*%
X81390000Y-53560000D02*
X83050000Y-51900000D01*
X80620000Y-53560000D02*
X81390000Y-53560000D01*
X75220000Y-53570000D02*
X75220000Y-55600000D01*
X78100000Y-58480000D02*
X75220000Y-55600000D01*
X79240000Y-58480000D02*
X78100000Y-58480000D01*
%TO.N,/RELAY_V*%
X61490000Y-42050000D02*
X59770000Y-43770000D01*
X61490000Y-38260000D02*
X61490000Y-42050000D01*
D22*
%TO.N,/RESET*%
X64875000Y-30975000D02*
X64870000Y-30970000D01*
X66520000Y-30975000D02*
X64875000Y-30975000D01*
X78490000Y-36395962D02*
X78490000Y-35830000D01*
X82192999Y-40098961D02*
X78490000Y-36395962D01*
X82192999Y-45656601D02*
X82192999Y-40098961D01*
X84571398Y-48035000D02*
X82192999Y-45656601D01*
X85060000Y-48035000D02*
X84571398Y-48035000D01*
X64870000Y-33040000D02*
X62870000Y-35040000D01*
X64870000Y-30970000D02*
X64870000Y-33040000D01*
X64190000Y-36360000D02*
X64190000Y-37490000D01*
X62870000Y-35040000D02*
X64190000Y-36360000D01*
D23*
%TO.N,TX*%
X83565000Y-32200000D02*
X83520000Y-32245000D01*
X87210000Y-32200000D02*
X83565000Y-32200000D01*
%TO.N,RX*%
X83565000Y-33470000D02*
X83520000Y-33515000D01*
X87210000Y-33470000D02*
X83565000Y-33470000D01*
D22*
%TO.N,GPIO0*%
X88802999Y-34507001D02*
X88802999Y-32727001D01*
X88802999Y-32727001D02*
X89980000Y-31550000D01*
X85140000Y-38170000D02*
X88802999Y-34507001D01*
X85140000Y-44120000D02*
X85140000Y-38170000D01*
X84315000Y-44945000D02*
X85140000Y-44120000D01*
X83520000Y-44945000D02*
X84315000Y-44945000D01*
D23*
%TO.N,/PLED_V*%
X90190000Y-54910000D02*
X92100000Y-53000000D01*
X89970000Y-54910000D02*
X90190000Y-54910000D01*
D22*
%TO.N,/SLED_V1*%
X67100000Y-55000000D02*
X67100000Y-58690000D01*
%TO.N,/SLED_V2*%
X62185000Y-58675000D02*
X62200000Y-58690000D01*
X62185000Y-55010000D02*
X62185000Y-58675000D01*
%TO.N,SLED1*%
X66520000Y-52595000D02*
X68925000Y-55000000D01*
X66520000Y-44945000D02*
X66520000Y-47230000D01*
%TO.N,SLED2*%
X63992999Y-54992999D02*
X64010000Y-55010000D01*
X63992999Y-43678001D02*
X63992999Y-54992999D01*
X65266000Y-42405000D02*
X63992999Y-43678001D01*
X66520000Y-42405000D02*
X65266000Y-42405000D01*
%TD*%
%TO.N,GND*%
X63029659Y-21458625D02*
X63279429Y-21534035D01*
X63509792Y-21656522D01*
X63711980Y-21821422D01*
X63878286Y-22022450D01*
X64002378Y-22251954D01*
X64079531Y-22501195D01*
X64112938Y-22819040D01*
X64112765Y-22843781D01*
X64113665Y-22852952D01*
X64154466Y-23241145D01*
X64166487Y-23299708D01*
X64177702Y-23358501D01*
X64180366Y-23367323D01*
X64295790Y-23740198D01*
X64318975Y-23795353D01*
X64341379Y-23850806D01*
X64345706Y-23858943D01*
X64531357Y-24202298D01*
X64564780Y-24251849D01*
X64597562Y-24301946D01*
X64603387Y-24309087D01*
X64852194Y-24609841D01*
X64894629Y-24651981D01*
X64936492Y-24694730D01*
X64943592Y-24700604D01*
X65246077Y-24947305D01*
X65295904Y-24980409D01*
X65345259Y-25014204D01*
X65353365Y-25018587D01*
X65698007Y-25201837D01*
X65753311Y-25224631D01*
X65808295Y-25248198D01*
X65817098Y-25250923D01*
X66190770Y-25363741D01*
X66249458Y-25375361D01*
X66307961Y-25387797D01*
X66317126Y-25388760D01*
X66705595Y-25426850D01*
X66705598Y-25426850D01*
X66737581Y-25430000D01*
X83332419Y-25430000D01*
X83361373Y-25427148D01*
X83373781Y-25427235D01*
X83382952Y-25426335D01*
X83771145Y-25385534D01*
X83829708Y-25373513D01*
X83888501Y-25362298D01*
X83897323Y-25359634D01*
X84270198Y-25244210D01*
X84325353Y-25221025D01*
X84380806Y-25198621D01*
X84388943Y-25194294D01*
X84732298Y-25008643D01*
X84781849Y-24975220D01*
X84831946Y-24942438D01*
X84839087Y-24936613D01*
X85139841Y-24687806D01*
X85181981Y-24645371D01*
X85224730Y-24603508D01*
X85230604Y-24596408D01*
X85477305Y-24293923D01*
X85510409Y-24244096D01*
X85544204Y-24194741D01*
X85548587Y-24186635D01*
X85731837Y-23841993D01*
X85754631Y-23786689D01*
X85778198Y-23731705D01*
X85780923Y-23722902D01*
X85834787Y-23544495D01*
X90345000Y-23544495D01*
X90345000Y-23935505D01*
X90421282Y-24319003D01*
X90570915Y-24680250D01*
X90788149Y-25005364D01*
X91064636Y-25281851D01*
X91389750Y-25499085D01*
X91750997Y-25648718D01*
X92134495Y-25725000D01*
X92525505Y-25725000D01*
X92909003Y-25648718D01*
X93270250Y-25499085D01*
X93595364Y-25281851D01*
X93871851Y-25005364D01*
X94089085Y-24680250D01*
X94238718Y-24319003D01*
X94315000Y-23935505D01*
X94315000Y-23544495D01*
X94238718Y-23160997D01*
X94089085Y-22799750D01*
X93871851Y-22474636D01*
X93595364Y-22198149D01*
X93270250Y-21980915D01*
X92909003Y-21831282D01*
X92525505Y-21755000D01*
X92134495Y-21755000D01*
X91750997Y-21831282D01*
X91389750Y-21980915D01*
X91064636Y-22198149D01*
X90788149Y-22474636D01*
X90570915Y-22799750D01*
X90421282Y-23160997D01*
X90345000Y-23544495D01*
X85834787Y-23544495D01*
X85893741Y-23349230D01*
X85905361Y-23290542D01*
X85917797Y-23232039D01*
X85918760Y-23222874D01*
X85956850Y-22834405D01*
X85988625Y-22510341D01*
X86064035Y-22260571D01*
X86186522Y-22030208D01*
X86351422Y-21828020D01*
X86552450Y-21661714D01*
X86781954Y-21537622D01*
X87031195Y-21460469D01*
X87321088Y-21430000D01*
X92267721Y-21430000D01*
X92753893Y-21477670D01*
X93190498Y-21609489D01*
X93593185Y-21823600D01*
X93946612Y-22111848D01*
X94237327Y-22463261D01*
X94454242Y-22864439D01*
X94589106Y-23300113D01*
X94640001Y-23784353D01*
X94640000Y-58467721D01*
X94592330Y-58953894D01*
X94460512Y-59390497D01*
X94246399Y-59793186D01*
X93958150Y-60146613D01*
X93606739Y-60437327D01*
X93205564Y-60654240D01*
X92769886Y-60789106D01*
X92285664Y-60840000D01*
X57772279Y-60840000D01*
X57286106Y-60792330D01*
X56849503Y-60660512D01*
X56446814Y-60446399D01*
X56093387Y-60158150D01*
X55802673Y-59806739D01*
X55585760Y-59405564D01*
X55450894Y-58969886D01*
X55400012Y-58485777D01*
X55400142Y-58334495D01*
X55725000Y-58334495D01*
X55725000Y-58725505D01*
X55801282Y-59109003D01*
X55950915Y-59470250D01*
X56168149Y-59795364D01*
X56444636Y-60071851D01*
X56769750Y-60289085D01*
X57130997Y-60438718D01*
X57514495Y-60515000D01*
X57905505Y-60515000D01*
X58289003Y-60438718D01*
X58650250Y-60289085D01*
X58975364Y-60071851D01*
X59251851Y-59795364D01*
X59469085Y-59470250D01*
X59618718Y-59109003D01*
X59695000Y-58725505D01*
X59695000Y-58334495D01*
X59618718Y-57950997D01*
X59469085Y-57589750D01*
X59251851Y-57264636D01*
X58975364Y-56988149D01*
X58650250Y-56770915D01*
X58289003Y-56621282D01*
X57905505Y-56545000D01*
X57514495Y-56545000D01*
X57130997Y-56621282D01*
X56769750Y-56770915D01*
X56444636Y-56988149D01*
X56168149Y-57264636D01*
X55950915Y-57589750D01*
X55801282Y-57950997D01*
X55725000Y-58334495D01*
X55400142Y-58334495D01*
X55405967Y-51590000D01*
X58136928Y-51590000D01*
X58149188Y-51714482D01*
X58185498Y-51834180D01*
X58244463Y-51944494D01*
X58323815Y-52041185D01*
X58420506Y-52120537D01*
X58530820Y-52179502D01*
X58650518Y-52215812D01*
X58775000Y-52228072D01*
X59464250Y-52225000D01*
X59623000Y-52066250D01*
X59623000Y-50867000D01*
X59877000Y-50867000D01*
X59877000Y-52066250D01*
X60035750Y-52225000D01*
X60725000Y-52228072D01*
X60849482Y-52215812D01*
X60969180Y-52179502D01*
X61079494Y-52120537D01*
X61176185Y-52041185D01*
X61255537Y-51944494D01*
X61314502Y-51834180D01*
X61350812Y-51714482D01*
X61363072Y-51590000D01*
X61360000Y-51025750D01*
X61201250Y-50867000D01*
X59877000Y-50867000D01*
X59623000Y-50867000D01*
X58298750Y-50867000D01*
X58140000Y-51025750D01*
X58136928Y-51590000D01*
X55405967Y-51590000D01*
X55417478Y-38263740D01*
X57245000Y-38263740D01*
X57245000Y-38556260D01*
X57302068Y-38843158D01*
X57414010Y-39113411D01*
X57576525Y-39356632D01*
X57783368Y-39563475D01*
X58026589Y-39725990D01*
X58296842Y-39837932D01*
X58583740Y-39895000D01*
X58876260Y-39895000D01*
X59163158Y-39837932D01*
X59433411Y-39725990D01*
X59676632Y-39563475D01*
X59808487Y-39431620D01*
X59830498Y-39504180D01*
X59889463Y-39614494D01*
X59968815Y-39711185D01*
X60065506Y-39790537D01*
X60175820Y-39849502D01*
X60295518Y-39885812D01*
X60420000Y-39898072D01*
X60705000Y-39898072D01*
X60705001Y-41724841D01*
X60525804Y-41904039D01*
X60446034Y-41861401D01*
X60166111Y-41776487D01*
X59947950Y-41755000D01*
X59552050Y-41755000D01*
X59333889Y-41776487D01*
X59053966Y-41861401D01*
X58795986Y-41999294D01*
X58569866Y-42184866D01*
X58384294Y-42410986D01*
X58246401Y-42668966D01*
X58161487Y-42948889D01*
X58132815Y-43240000D01*
X58161487Y-43531111D01*
X58246401Y-43811034D01*
X58384294Y-44069014D01*
X58569866Y-44295134D01*
X58795986Y-44480706D01*
X58813374Y-44490000D01*
X58795986Y-44499294D01*
X58569866Y-44684866D01*
X58384294Y-44910986D01*
X58246401Y-45168966D01*
X58161487Y-45448889D01*
X58132815Y-45740000D01*
X58161487Y-46031111D01*
X58246401Y-46311034D01*
X58384294Y-46569014D01*
X58569866Y-46795134D01*
X58795986Y-46980706D01*
X58813374Y-46990000D01*
X58795986Y-46999294D01*
X58569866Y-47184866D01*
X58384294Y-47410986D01*
X58246401Y-47668966D01*
X58161487Y-47948889D01*
X58132815Y-48240000D01*
X58161487Y-48531111D01*
X58246401Y-48811034D01*
X58384294Y-49069014D01*
X58565608Y-49289945D01*
X58530820Y-49300498D01*
X58420506Y-49359463D01*
X58323815Y-49438815D01*
X58244463Y-49535506D01*
X58185498Y-49645820D01*
X58149188Y-49765518D01*
X58136928Y-49890000D01*
X58140000Y-50454250D01*
X58298750Y-50613000D01*
X59623000Y-50613000D01*
X59623000Y-50593000D01*
X59877000Y-50593000D01*
X59877000Y-50613000D01*
X61201250Y-50613000D01*
X61360000Y-50454250D01*
X61363072Y-49890000D01*
X61350812Y-49765518D01*
X61314502Y-49645820D01*
X61255537Y-49535506D01*
X61176185Y-49438815D01*
X61079494Y-49359463D01*
X60969180Y-49300498D01*
X60934392Y-49289945D01*
X61115706Y-49069014D01*
X61253599Y-48811034D01*
X61308901Y-48628730D01*
X62367631Y-47570000D01*
X62426939Y-47570000D01*
X62626898Y-47530226D01*
X62815256Y-47452205D01*
X62984774Y-47338937D01*
X63128937Y-47194774D01*
X63230999Y-47042027D01*
X63231000Y-53840563D01*
X63119538Y-53932038D01*
X63097500Y-53958891D01*
X63075462Y-53932038D01*
X62940887Y-53821595D01*
X62787352Y-53739528D01*
X62620756Y-53688992D01*
X62447502Y-53671928D01*
X61922498Y-53671928D01*
X61749244Y-53688992D01*
X61582648Y-53739528D01*
X61429113Y-53821595D01*
X61294538Y-53932038D01*
X61184095Y-54066613D01*
X61102028Y-54220148D01*
X61051492Y-54386744D01*
X61034428Y-54559998D01*
X61034428Y-55460002D01*
X61051492Y-55633256D01*
X61102028Y-55799852D01*
X61184095Y-55953387D01*
X61294538Y-56087962D01*
X61423000Y-56193388D01*
X61423001Y-57788808D01*
X61375385Y-57827885D01*
X61268829Y-57957725D01*
X61189650Y-58105858D01*
X61140892Y-58266592D01*
X61124428Y-58433750D01*
X61124428Y-58946250D01*
X61140892Y-59113408D01*
X61189650Y-59274142D01*
X61268829Y-59422275D01*
X61375385Y-59552115D01*
X61505225Y-59658671D01*
X61653358Y-59737850D01*
X61814092Y-59786608D01*
X61981250Y-59803072D01*
X62418750Y-59803072D01*
X62585908Y-59786608D01*
X62746642Y-59737850D01*
X62894775Y-59658671D01*
X62916430Y-59640900D01*
X62983006Y-59695537D01*
X63093320Y-59754502D01*
X63213018Y-59790812D01*
X63337500Y-59803072D01*
X63489250Y-59800000D01*
X63648000Y-59641250D01*
X63648000Y-58817000D01*
X63902000Y-58817000D01*
X63902000Y-59641250D01*
X64060750Y-59800000D01*
X64212500Y-59803072D01*
X64336982Y-59790812D01*
X64456680Y-59754502D01*
X64566994Y-59695537D01*
X64663685Y-59616185D01*
X64743037Y-59519494D01*
X64802002Y-59409180D01*
X64838312Y-59289482D01*
X64850572Y-59165000D01*
X64847500Y-58975750D01*
X64688750Y-58817000D01*
X63902000Y-58817000D01*
X63648000Y-58817000D01*
X63628000Y-58817000D01*
X63628000Y-58563000D01*
X63648000Y-58563000D01*
X63648000Y-57738750D01*
X63902000Y-57738750D01*
X63902000Y-58563000D01*
X64688750Y-58563000D01*
X64847500Y-58404250D01*
X64850572Y-58215000D01*
X64838312Y-58090518D01*
X64802002Y-57970820D01*
X64743037Y-57860506D01*
X64663685Y-57763815D01*
X64566994Y-57684463D01*
X64456680Y-57625498D01*
X64336982Y-57589188D01*
X64212500Y-57576928D01*
X64060750Y-57580000D01*
X63902000Y-57738750D01*
X63648000Y-57738750D01*
X63489250Y-57580000D01*
X63337500Y-57576928D01*
X63213018Y-57589188D01*
X63093320Y-57625498D01*
X62983006Y-57684463D01*
X62947000Y-57714012D01*
X62947000Y-56193388D01*
X63075462Y-56087962D01*
X63097500Y-56061109D01*
X63119538Y-56087962D01*
X63254113Y-56198405D01*
X63407648Y-56280472D01*
X63574244Y-56331008D01*
X63747498Y-56348072D01*
X64272502Y-56348072D01*
X64445756Y-56331008D01*
X64612352Y-56280472D01*
X64765887Y-56198405D01*
X64900462Y-56087962D01*
X65010905Y-55953387D01*
X65092972Y-55799852D01*
X65143508Y-55633256D01*
X65160572Y-55460002D01*
X65160572Y-54559998D01*
X65143508Y-54386744D01*
X65092972Y-54220148D01*
X65010905Y-54066613D01*
X64900462Y-53932038D01*
X64765887Y-53821595D01*
X64754999Y-53815775D01*
X64754999Y-52493061D01*
X65485000Y-52493061D01*
X65485000Y-52696939D01*
X65524774Y-52896898D01*
X65602795Y-53085256D01*
X65716063Y-53254774D01*
X65860226Y-53398937D01*
X66029744Y-53512205D01*
X66218102Y-53590226D01*
X66418061Y-53630000D01*
X66477370Y-53630000D01*
X66558453Y-53711083D01*
X66497648Y-53729528D01*
X66344113Y-53811595D01*
X66209538Y-53922038D01*
X66099095Y-54056613D01*
X66017028Y-54210148D01*
X65966492Y-54376744D01*
X65949428Y-54549998D01*
X65949428Y-55450002D01*
X65966492Y-55623256D01*
X66017028Y-55789852D01*
X66099095Y-55943387D01*
X66209538Y-56077962D01*
X66338000Y-56183388D01*
X66338001Y-57776498D01*
X66275385Y-57827885D01*
X66168829Y-57957725D01*
X66089650Y-58105858D01*
X66040892Y-58266592D01*
X66024428Y-58433750D01*
X66024428Y-58946250D01*
X66040892Y-59113408D01*
X66089650Y-59274142D01*
X66168829Y-59422275D01*
X66275385Y-59552115D01*
X66405225Y-59658671D01*
X66553358Y-59737850D01*
X66714092Y-59786608D01*
X66881250Y-59803072D01*
X67318750Y-59803072D01*
X67485908Y-59786608D01*
X67646642Y-59737850D01*
X67794775Y-59658671D01*
X67816430Y-59640900D01*
X67883006Y-59695537D01*
X67993320Y-59754502D01*
X68113018Y-59790812D01*
X68237500Y-59803072D01*
X68389250Y-59800000D01*
X68548000Y-59641250D01*
X68548000Y-58817000D01*
X68802000Y-58817000D01*
X68802000Y-59641250D01*
X68960750Y-59800000D01*
X69112500Y-59803072D01*
X69236982Y-59790812D01*
X69356680Y-59754502D01*
X69466994Y-59695537D01*
X69563685Y-59616185D01*
X69643037Y-59519494D01*
X69702002Y-59409180D01*
X69738312Y-59289482D01*
X69750572Y-59165000D01*
X69747500Y-58975750D01*
X69588750Y-58817000D01*
X68802000Y-58817000D01*
X68548000Y-58817000D01*
X68528000Y-58817000D01*
X68528000Y-58563000D01*
X68548000Y-58563000D01*
X68548000Y-57738750D01*
X68802000Y-57738750D01*
X68802000Y-58563000D01*
X69588750Y-58563000D01*
X69747500Y-58404250D01*
X69750572Y-58215000D01*
X69738312Y-58090518D01*
X69702002Y-57970820D01*
X69643037Y-57860506D01*
X69563685Y-57763815D01*
X69466994Y-57684463D01*
X69356680Y-57625498D01*
X69236982Y-57589188D01*
X69112500Y-57576928D01*
X68960750Y-57580000D01*
X68802000Y-57738750D01*
X68548000Y-57738750D01*
X68389250Y-57580000D01*
X68237500Y-57576928D01*
X68113018Y-57589188D01*
X67993320Y-57625498D01*
X67883006Y-57684463D01*
X67862000Y-57701702D01*
X67862000Y-56600000D01*
X71231928Y-56600000D01*
X71244188Y-56724482D01*
X71280498Y-56844180D01*
X71339463Y-56954494D01*
X71418815Y-57051185D01*
X71515506Y-57130537D01*
X71625820Y-57189502D01*
X71745518Y-57225812D01*
X71870000Y-57238072D01*
X72434250Y-57235000D01*
X72593000Y-57076250D01*
X72593000Y-55727000D01*
X71393750Y-55727000D01*
X71235000Y-55885750D01*
X71231928Y-56600000D01*
X67862000Y-56600000D01*
X67862000Y-56183388D01*
X67990462Y-56077962D01*
X68012500Y-56051109D01*
X68034538Y-56077962D01*
X68169113Y-56188405D01*
X68322648Y-56270472D01*
X68489244Y-56321008D01*
X68662498Y-56338072D01*
X69187502Y-56338072D01*
X69360756Y-56321008D01*
X69527352Y-56270472D01*
X69680887Y-56188405D01*
X69815462Y-56077962D01*
X69925905Y-55943387D01*
X70007972Y-55789852D01*
X70058508Y-55623256D01*
X70075572Y-55450002D01*
X70075572Y-54600000D01*
X71231928Y-54600000D01*
X71235000Y-55314250D01*
X71393750Y-55473000D01*
X72593000Y-55473000D01*
X72593000Y-54123750D01*
X72434250Y-53965000D01*
X71870000Y-53961928D01*
X71745518Y-53974188D01*
X71625820Y-54010498D01*
X71515506Y-54069463D01*
X71418815Y-54148815D01*
X71339463Y-54245506D01*
X71280498Y-54355820D01*
X71244188Y-54475518D01*
X71231928Y-54600000D01*
X70075572Y-54600000D01*
X70075572Y-54549998D01*
X70058508Y-54376744D01*
X70007972Y-54210148D01*
X69925905Y-54056613D01*
X69815462Y-53922038D01*
X69680887Y-53811595D01*
X69527352Y-53729528D01*
X69360756Y-53678992D01*
X69187502Y-53661928D01*
X68664558Y-53661928D01*
X67650670Y-52648040D01*
X67903110Y-52736476D01*
X68133000Y-52615155D01*
X68133000Y-51297000D01*
X66933835Y-51297000D01*
X66793680Y-51529267D01*
X66811645Y-51597735D01*
X66621939Y-51560000D01*
X66418061Y-51560000D01*
X66218102Y-51599774D01*
X66029744Y-51677795D01*
X65860226Y-51791063D01*
X65716063Y-51935226D01*
X65602795Y-52104744D01*
X65524774Y-52293102D01*
X65485000Y-52493061D01*
X64754999Y-52493061D01*
X64754999Y-50810733D01*
X66793680Y-50810733D01*
X66933835Y-51043000D01*
X68133000Y-51043000D01*
X68133000Y-49724845D01*
X67903110Y-49603524D01*
X67640142Y-49695648D01*
X67388807Y-49842504D01*
X67170951Y-50035571D01*
X66994947Y-50267430D01*
X66867558Y-50529170D01*
X66793680Y-50810733D01*
X64754999Y-50810733D01*
X64754999Y-43993631D01*
X64881928Y-43866702D01*
X64881928Y-44125000D01*
X64894188Y-44249482D01*
X64912546Y-44310000D01*
X64894188Y-44370518D01*
X64881928Y-44495000D01*
X64881928Y-45395000D01*
X64894188Y-45519482D01*
X64930498Y-45639180D01*
X64989463Y-45749494D01*
X65068815Y-45846185D01*
X65165506Y-45925537D01*
X65275820Y-45984502D01*
X65395518Y-46020812D01*
X65520000Y-46033072D01*
X65758000Y-46033072D01*
X65758001Y-46528288D01*
X65716063Y-46570226D01*
X65602795Y-46739744D01*
X65524774Y-46928102D01*
X65485000Y-47128061D01*
X65485000Y-47331939D01*
X65524774Y-47531898D01*
X65602795Y-47720256D01*
X65716063Y-47889774D01*
X65860226Y-48033937D01*
X66029744Y-48147205D01*
X66218102Y-48225226D01*
X66418061Y-48265000D01*
X66621939Y-48265000D01*
X66821898Y-48225226D01*
X67010256Y-48147205D01*
X67179774Y-48033937D01*
X67215472Y-47998239D01*
X67214314Y-48010000D01*
X67218000Y-48047423D01*
X67218000Y-48047425D01*
X67229026Y-48159377D01*
X67272598Y-48303014D01*
X67305535Y-48364635D01*
X67343355Y-48435392D01*
X67372378Y-48470756D01*
X67438578Y-48551422D01*
X67467654Y-48575284D01*
X68537690Y-49645321D01*
X68387000Y-49724845D01*
X68387000Y-51043000D01*
X68407000Y-51043000D01*
X68407000Y-51297000D01*
X68387000Y-51297000D01*
X68387000Y-52615155D01*
X68616890Y-52736476D01*
X68879858Y-52644352D01*
X69131193Y-52497496D01*
X69349049Y-52304429D01*
X69505538Y-52098278D01*
X69519294Y-52124013D01*
X69704866Y-52350134D01*
X69930986Y-52535706D01*
X70188966Y-52673599D01*
X70468889Y-52758513D01*
X70760000Y-52787185D01*
X71051110Y-52758513D01*
X71133395Y-52733552D01*
X71647658Y-53247816D01*
X71672236Y-53277764D01*
X71702184Y-53302342D01*
X71702187Y-53302345D01*
X71731559Y-53326450D01*
X71791767Y-53375862D01*
X71928140Y-53448754D01*
X72076113Y-53493642D01*
X72151026Y-53501020D01*
X72191439Y-53505000D01*
X72191444Y-53505000D01*
X72230000Y-53508797D01*
X72268555Y-53505000D01*
X74185000Y-53505000D01*
X74185000Y-53671939D01*
X74224774Y-53871898D01*
X74302795Y-54060256D01*
X74399381Y-54204807D01*
X74390986Y-54209294D01*
X74170055Y-54390608D01*
X74159502Y-54355820D01*
X74100537Y-54245506D01*
X74021185Y-54148815D01*
X73924494Y-54069463D01*
X73814180Y-54010498D01*
X73694482Y-53974188D01*
X73570000Y-53961928D01*
X73005750Y-53965000D01*
X72847000Y-54123750D01*
X72847000Y-55473000D01*
X72867000Y-55473000D01*
X72867000Y-55727000D01*
X72847000Y-55727000D01*
X72847000Y-57076250D01*
X73005750Y-57235000D01*
X73570000Y-57238072D01*
X73694482Y-57225812D01*
X73814180Y-57189502D01*
X73924494Y-57130537D01*
X74021185Y-57051185D01*
X74100537Y-56954494D01*
X74159502Y-56844180D01*
X74170055Y-56809392D01*
X74390987Y-56990706D01*
X74648967Y-57128599D01*
X74928890Y-57213513D01*
X75220000Y-57242185D01*
X75511111Y-57213513D01*
X75673957Y-57164114D01*
X77517658Y-59007816D01*
X77542236Y-59037764D01*
X77572184Y-59062342D01*
X77572187Y-59062345D01*
X77572549Y-59062642D01*
X77661767Y-59135862D01*
X77798140Y-59208754D01*
X77946113Y-59253641D01*
X78060686Y-59264926D01*
X78137038Y-59357962D01*
X78271614Y-59468405D01*
X78425150Y-59550472D01*
X78591746Y-59601008D01*
X78765000Y-59618072D01*
X79715000Y-59618072D01*
X79888254Y-59601008D01*
X80054850Y-59550472D01*
X80208386Y-59468405D01*
X80342962Y-59357962D01*
X80453405Y-59223386D01*
X80535472Y-59069850D01*
X80586008Y-58903254D01*
X80603072Y-58730000D01*
X80603072Y-58230000D01*
X80586008Y-58056746D01*
X80535472Y-57890150D01*
X80453405Y-57736614D01*
X80342962Y-57602038D01*
X80336406Y-57596658D01*
X80416185Y-57531185D01*
X80495537Y-57434494D01*
X80554502Y-57324180D01*
X80590812Y-57204482D01*
X80603072Y-57080000D01*
X80600000Y-56865750D01*
X80441250Y-56707000D01*
X79367000Y-56707000D01*
X79367000Y-56727000D01*
X79113000Y-56727000D01*
X79113000Y-56707000D01*
X78038750Y-56707000D01*
X77880000Y-56865750D01*
X77876928Y-57080000D01*
X77884223Y-57154065D01*
X76691381Y-55961224D01*
X76705000Y-55822949D01*
X76705000Y-55377050D01*
X76683513Y-55158889D01*
X76662616Y-55090000D01*
X77866928Y-55090000D01*
X77879188Y-55214482D01*
X77915498Y-55334180D01*
X77974463Y-55444494D01*
X78053815Y-55541185D01*
X78112204Y-55589103D01*
X78063815Y-55628815D01*
X77984463Y-55725506D01*
X77925498Y-55835820D01*
X77889188Y-55955518D01*
X77876928Y-56080000D01*
X77880000Y-56294250D01*
X78038750Y-56453000D01*
X79113000Y-56453000D01*
X79113000Y-55603750D01*
X79089250Y-55580000D01*
X79103000Y-55566250D01*
X79103000Y-54717000D01*
X78028750Y-54717000D01*
X77870000Y-54875750D01*
X77866928Y-55090000D01*
X76662616Y-55090000D01*
X76598599Y-54878966D01*
X76460706Y-54620986D01*
X76275134Y-54394866D01*
X76049013Y-54209294D01*
X76040619Y-54204807D01*
X76137205Y-54060256D01*
X76215226Y-53871898D01*
X76255000Y-53671939D01*
X76255000Y-53505000D01*
X78075367Y-53505000D01*
X78127038Y-53567962D01*
X78133594Y-53573342D01*
X78053815Y-53638815D01*
X77974463Y-53735506D01*
X77915498Y-53845820D01*
X77879188Y-53965518D01*
X77866928Y-54090000D01*
X77870000Y-54304250D01*
X78028750Y-54463000D01*
X79103000Y-54463000D01*
X79103000Y-54443000D01*
X79357000Y-54443000D01*
X79357000Y-54463000D01*
X79377000Y-54463000D01*
X79377000Y-54717000D01*
X79357000Y-54717000D01*
X79357000Y-55566250D01*
X79380750Y-55590000D01*
X79367000Y-55603750D01*
X79367000Y-56453000D01*
X80441250Y-56453000D01*
X80600000Y-56294250D01*
X80603072Y-56080000D01*
X80590812Y-55955518D01*
X80554502Y-55835820D01*
X80495537Y-55725506D01*
X80416185Y-55628815D01*
X80357796Y-55580897D01*
X80406185Y-55541185D01*
X80485537Y-55444494D01*
X80544502Y-55334180D01*
X80580812Y-55214482D01*
X80593072Y-55090000D01*
X80590000Y-54875750D01*
X80431252Y-54717002D01*
X80590000Y-54717002D01*
X80590000Y-54595000D01*
X80721939Y-54595000D01*
X80921898Y-54555226D01*
X81110256Y-54477205D01*
X81279774Y-54363937D01*
X81298711Y-54345000D01*
X81351447Y-54345000D01*
X81390000Y-54348797D01*
X81428553Y-54345000D01*
X81428561Y-54345000D01*
X81543887Y-54333641D01*
X81691860Y-54288754D01*
X81828233Y-54215862D01*
X81947764Y-54117764D01*
X81972347Y-54087810D01*
X82522085Y-53538072D01*
X83800000Y-53538072D01*
X83924482Y-53525812D01*
X84044180Y-53489502D01*
X84154494Y-53430537D01*
X84200000Y-53393191D01*
X84245506Y-53430537D01*
X84355820Y-53489502D01*
X84475518Y-53525812D01*
X84500000Y-53528223D01*
X84500001Y-56561928D01*
X83450000Y-56561928D01*
X83325518Y-56574188D01*
X83205820Y-56610498D01*
X83095506Y-56669463D01*
X82998815Y-56748815D01*
X82919463Y-56845506D01*
X82860498Y-56955820D01*
X82824188Y-57075518D01*
X82811928Y-57200000D01*
X82811928Y-59200000D01*
X82824188Y-59324482D01*
X82860498Y-59444180D01*
X82919463Y-59554494D01*
X82998815Y-59651185D01*
X83095506Y-59730537D01*
X83205820Y-59789502D01*
X83325518Y-59825812D01*
X83450000Y-59838072D01*
X87250000Y-59838072D01*
X87374482Y-59825812D01*
X87494180Y-59789502D01*
X87604494Y-59730537D01*
X87701185Y-59651185D01*
X87780537Y-59554494D01*
X87839502Y-59444180D01*
X87875812Y-59324482D01*
X87888072Y-59200000D01*
X87888072Y-58324495D01*
X90355000Y-58324495D01*
X90355000Y-58715505D01*
X90431282Y-59099003D01*
X90580915Y-59460250D01*
X90798149Y-59785364D01*
X91074636Y-60061851D01*
X91399750Y-60279085D01*
X91760997Y-60428718D01*
X92144495Y-60505000D01*
X92535505Y-60505000D01*
X92919003Y-60428718D01*
X93280250Y-60279085D01*
X93605364Y-60061851D01*
X93881851Y-59785364D01*
X94099085Y-59460250D01*
X94248718Y-59099003D01*
X94325000Y-58715505D01*
X94325000Y-58324495D01*
X94248718Y-57940997D01*
X94099085Y-57579750D01*
X93881851Y-57254636D01*
X93605364Y-56978149D01*
X93280250Y-56760915D01*
X92919003Y-56611282D01*
X92535505Y-56535000D01*
X92144495Y-56535000D01*
X91760997Y-56611282D01*
X91399750Y-56760915D01*
X91074636Y-56978149D01*
X90798149Y-57254636D01*
X90580915Y-57579750D01*
X90431282Y-57940997D01*
X90355000Y-58324495D01*
X87888072Y-58324495D01*
X87888072Y-57200000D01*
X87875812Y-57075518D01*
X87839502Y-56955820D01*
X87780537Y-56845506D01*
X87701185Y-56748815D01*
X87604494Y-56669463D01*
X87494180Y-56610498D01*
X87374482Y-56574188D01*
X87250000Y-56561928D01*
X86200000Y-56561928D01*
X86200000Y-53528223D01*
X86224482Y-53525812D01*
X86344180Y-53489502D01*
X86454494Y-53430537D01*
X86500000Y-53393191D01*
X86545506Y-53430537D01*
X86655820Y-53489502D01*
X86775518Y-53525812D01*
X86900000Y-53538072D01*
X87364250Y-53535000D01*
X87523000Y-53376250D01*
X87523000Y-52027000D01*
X87503000Y-52027000D01*
X87503000Y-51773000D01*
X87523000Y-51773000D01*
X87523000Y-50423750D01*
X87777000Y-50423750D01*
X87777000Y-51773000D01*
X88876250Y-51773000D01*
X89035000Y-51614250D01*
X89038072Y-50900000D01*
X89025812Y-50775518D01*
X88989502Y-50655820D01*
X88930537Y-50545506D01*
X88851185Y-50448815D01*
X88754494Y-50369463D01*
X88644180Y-50310498D01*
X88524482Y-50274188D01*
X88400000Y-50261928D01*
X87935750Y-50265000D01*
X87777000Y-50423750D01*
X87523000Y-50423750D01*
X87512799Y-50413549D01*
X87535000Y-50301939D01*
X87535000Y-50098061D01*
X87495226Y-49898102D01*
X87417205Y-49709744D01*
X87303937Y-49540226D01*
X87159774Y-49396063D01*
X86990256Y-49282795D01*
X86801898Y-49204774D01*
X86601939Y-49165000D01*
X86398061Y-49165000D01*
X86292205Y-49186056D01*
X86248405Y-49104113D01*
X86137962Y-48969538D01*
X86111109Y-48947500D01*
X86137962Y-48925462D01*
X86248405Y-48790887D01*
X86330472Y-48637352D01*
X86381008Y-48470756D01*
X86398072Y-48297502D01*
X86398072Y-47772498D01*
X86381008Y-47599244D01*
X86330472Y-47432648D01*
X86248405Y-47279113D01*
X86137962Y-47144538D01*
X86003387Y-47034095D01*
X85849852Y-46952028D01*
X85683256Y-46901492D01*
X85510002Y-46884428D01*
X84609998Y-46884428D01*
X84508458Y-46894429D01*
X83647100Y-46033072D01*
X84520000Y-46033072D01*
X84644482Y-46020812D01*
X84764180Y-45984502D01*
X84874494Y-45925537D01*
X84971185Y-45846185D01*
X85050537Y-45749494D01*
X85109502Y-45639180D01*
X85145812Y-45519482D01*
X85158072Y-45395000D01*
X85158072Y-45179558D01*
X85652353Y-44685278D01*
X85681422Y-44661422D01*
X85776645Y-44545392D01*
X85847402Y-44413015D01*
X85890974Y-44269378D01*
X85902000Y-44157426D01*
X85902000Y-44157424D01*
X85905686Y-44120001D01*
X85902000Y-44082578D01*
X85902000Y-43585665D01*
X88796866Y-46409294D01*
X88751487Y-46558889D01*
X88722815Y-46850000D01*
X88751487Y-47141111D01*
X88836401Y-47421034D01*
X88974294Y-47679014D01*
X89159866Y-47905134D01*
X89385986Y-48090706D01*
X89643966Y-48228599D01*
X89923889Y-48313513D01*
X90142050Y-48335000D01*
X90537950Y-48335000D01*
X90756111Y-48313513D01*
X91036034Y-48228599D01*
X91294014Y-48090706D01*
X91385000Y-48016036D01*
X91385000Y-48304842D01*
X90524843Y-49165000D01*
X90498061Y-49165000D01*
X90298102Y-49204774D01*
X90109744Y-49282795D01*
X89940226Y-49396063D01*
X89796063Y-49540226D01*
X89682795Y-49709744D01*
X89604774Y-49898102D01*
X89565000Y-50098061D01*
X89565000Y-50301939D01*
X89604774Y-50501898D01*
X89682795Y-50690256D01*
X89796063Y-50859774D01*
X89815001Y-50878712D01*
X89815000Y-51934428D01*
X89519998Y-51934428D01*
X89346744Y-51951492D01*
X89180148Y-52002028D01*
X89026613Y-52084095D01*
X88975386Y-52126136D01*
X88876250Y-52027000D01*
X87777000Y-52027000D01*
X87777000Y-53376250D01*
X87935750Y-53535000D01*
X88400000Y-53538072D01*
X88524482Y-53525812D01*
X88644180Y-53489502D01*
X88645827Y-53488622D01*
X88648992Y-53520756D01*
X88699528Y-53687352D01*
X88781595Y-53840887D01*
X88892038Y-53975462D01*
X88918891Y-53997500D01*
X88892038Y-54019538D01*
X88781595Y-54154113D01*
X88699528Y-54307648D01*
X88648992Y-54474244D01*
X88631928Y-54647498D01*
X88631928Y-55172502D01*
X88648992Y-55345756D01*
X88699528Y-55512352D01*
X88781595Y-55665887D01*
X88892038Y-55800462D01*
X89026613Y-55910905D01*
X89180148Y-55992972D01*
X89346744Y-56043508D01*
X89519998Y-56060572D01*
X90420002Y-56060572D01*
X90593256Y-56043508D01*
X90759852Y-55992972D01*
X90913387Y-55910905D01*
X91047962Y-55800462D01*
X91158405Y-55665887D01*
X91238229Y-55516548D01*
X91270506Y-55543037D01*
X91380820Y-55602002D01*
X91500518Y-55638312D01*
X91625000Y-55650572D01*
X91814250Y-55647500D01*
X91973000Y-55488750D01*
X91973000Y-54702000D01*
X92227000Y-54702000D01*
X92227000Y-55488750D01*
X92385750Y-55647500D01*
X92575000Y-55650572D01*
X92699482Y-55638312D01*
X92819180Y-55602002D01*
X92929494Y-55543037D01*
X93026185Y-55463685D01*
X93105537Y-55366994D01*
X93164502Y-55256680D01*
X93200812Y-55136982D01*
X93213072Y-55012500D01*
X93210000Y-54860750D01*
X93051250Y-54702000D01*
X92227000Y-54702000D01*
X91973000Y-54702000D01*
X91953000Y-54702000D01*
X91953000Y-54448000D01*
X91973000Y-54448000D01*
X91973000Y-54428000D01*
X92227000Y-54428000D01*
X92227000Y-54448000D01*
X93051250Y-54448000D01*
X93210000Y-54289250D01*
X93213072Y-54137500D01*
X93200812Y-54013018D01*
X93164502Y-53893320D01*
X93105537Y-53783006D01*
X93050900Y-53716430D01*
X93068671Y-53694775D01*
X93147850Y-53546642D01*
X93196608Y-53385908D01*
X93213072Y-53218750D01*
X93213072Y-52781250D01*
X93196608Y-52614092D01*
X93147850Y-52453358D01*
X93068671Y-52305225D01*
X92962115Y-52175385D01*
X92832275Y-52068829D01*
X92684142Y-51989650D01*
X92523408Y-51940892D01*
X92356250Y-51924428D01*
X91843750Y-51924428D01*
X91676592Y-51940892D01*
X91515858Y-51989650D01*
X91385000Y-52059595D01*
X91385000Y-50878711D01*
X91403937Y-50859774D01*
X91517205Y-50690256D01*
X91595226Y-50501898D01*
X91635000Y-50301939D01*
X91635000Y-50275157D01*
X92697816Y-49212342D01*
X92727764Y-49187764D01*
X92770598Y-49135572D01*
X92784602Y-49118508D01*
X92825862Y-49068233D01*
X92898754Y-48931860D01*
X92938545Y-48800686D01*
X92943641Y-48783888D01*
X92947876Y-48740887D01*
X92955000Y-48668561D01*
X92955000Y-48668554D01*
X92958797Y-48630001D01*
X92955000Y-48591448D01*
X92955000Y-43718556D01*
X92958797Y-43680000D01*
X92955000Y-43641444D01*
X92955000Y-43641439D01*
X92948809Y-43578579D01*
X92943642Y-43526113D01*
X92898754Y-43378140D01*
X92865257Y-43315471D01*
X92825862Y-43241767D01*
X92727764Y-43122236D01*
X92697810Y-43097653D01*
X91884933Y-42284776D01*
X91928513Y-42141111D01*
X91957185Y-41850000D01*
X91928513Y-41558889D01*
X91843599Y-41278966D01*
X91705706Y-41020986D01*
X91524392Y-40800055D01*
X91559180Y-40789502D01*
X91669494Y-40730537D01*
X91766185Y-40651185D01*
X91845537Y-40554494D01*
X91904502Y-40444180D01*
X91940812Y-40324482D01*
X91953072Y-40200000D01*
X91950000Y-39635750D01*
X91791250Y-39477000D01*
X90467000Y-39477000D01*
X90467000Y-39497000D01*
X90213000Y-39497000D01*
X90213000Y-39477000D01*
X88888750Y-39477000D01*
X88730000Y-39635750D01*
X88729377Y-39750133D01*
X88425000Y-39473054D01*
X88425000Y-38500000D01*
X88726928Y-38500000D01*
X88730000Y-39064250D01*
X88888750Y-39223000D01*
X90213000Y-39223000D01*
X90213000Y-38023750D01*
X90467000Y-38023750D01*
X90467000Y-39223000D01*
X91791250Y-39223000D01*
X91950000Y-39064250D01*
X91953072Y-38500000D01*
X91940812Y-38375518D01*
X91904502Y-38255820D01*
X91845537Y-38145506D01*
X91766185Y-38048815D01*
X91669494Y-37969463D01*
X91559180Y-37910498D01*
X91439482Y-37874188D01*
X91315000Y-37861928D01*
X90625750Y-37865000D01*
X90467000Y-38023750D01*
X90213000Y-38023750D01*
X90054250Y-37865000D01*
X89365000Y-37861928D01*
X89240518Y-37874188D01*
X89120820Y-37910498D01*
X89010506Y-37969463D01*
X88913815Y-38048815D01*
X88834463Y-38145506D01*
X88775498Y-38255820D01*
X88739188Y-38375518D01*
X88726928Y-38500000D01*
X88425000Y-38500000D01*
X88425000Y-36755157D01*
X89643082Y-35537075D01*
X89833740Y-35575000D01*
X90126260Y-35575000D01*
X90413158Y-35517932D01*
X90683411Y-35405990D01*
X90926632Y-35243475D01*
X91133475Y-35036632D01*
X91295990Y-34793411D01*
X91407932Y-34523158D01*
X91465000Y-34236260D01*
X91465000Y-33943740D01*
X91407932Y-33656842D01*
X91295990Y-33386589D01*
X91133475Y-33143368D01*
X90926632Y-32936525D01*
X90752240Y-32820000D01*
X90926632Y-32703475D01*
X91133475Y-32496632D01*
X91295990Y-32253411D01*
X91407932Y-31983158D01*
X91465000Y-31696260D01*
X91465000Y-31403740D01*
X91407932Y-31116842D01*
X91295990Y-30846589D01*
X91133475Y-30603368D01*
X90926632Y-30396525D01*
X90752240Y-30280000D01*
X90926632Y-30163475D01*
X91133475Y-29956632D01*
X91295990Y-29713411D01*
X91407932Y-29443158D01*
X91465000Y-29156260D01*
X91465000Y-28863740D01*
X91407932Y-28576842D01*
X91295990Y-28306589D01*
X91133475Y-28063368D01*
X90926632Y-27856525D01*
X90683411Y-27694010D01*
X90413158Y-27582068D01*
X90126260Y-27525000D01*
X89833740Y-27525000D01*
X89546842Y-27582068D01*
X89276589Y-27694010D01*
X89033368Y-27856525D01*
X88901513Y-27988380D01*
X88879502Y-27915820D01*
X88820537Y-27805506D01*
X88741185Y-27708815D01*
X88644494Y-27629463D01*
X88534180Y-27570498D01*
X88414482Y-27534188D01*
X88290000Y-27521928D01*
X87725750Y-27525000D01*
X87567000Y-27683750D01*
X87567000Y-28883000D01*
X87587000Y-28883000D01*
X87587000Y-29137000D01*
X87567000Y-29137000D01*
X87567000Y-29157000D01*
X87313000Y-29157000D01*
X87313000Y-29137000D01*
X86113750Y-29137000D01*
X85955000Y-29295750D01*
X85951928Y-29860000D01*
X85964188Y-29984482D01*
X86000498Y-30104180D01*
X86059463Y-30214494D01*
X86138815Y-30311185D01*
X86235506Y-30390537D01*
X86345820Y-30449502D01*
X86418380Y-30471513D01*
X86286525Y-30603368D01*
X86124508Y-30845843D01*
X86053937Y-30740226D01*
X85909774Y-30596063D01*
X85740256Y-30482795D01*
X85551898Y-30404774D01*
X85351939Y-30365000D01*
X85282859Y-30365000D01*
X85250392Y-30338355D01*
X85145036Y-30282041D01*
X85145812Y-30279482D01*
X85158072Y-30155000D01*
X85158072Y-29255000D01*
X85145812Y-29130518D01*
X85127454Y-29070000D01*
X85145812Y-29009482D01*
X85158072Y-28885000D01*
X85155000Y-28720750D01*
X84996250Y-28562000D01*
X83647000Y-28562000D01*
X83647000Y-28582000D01*
X83393000Y-28582000D01*
X83393000Y-28562000D01*
X82043750Y-28562000D01*
X81885000Y-28720750D01*
X81881928Y-28885000D01*
X81894188Y-29009482D01*
X81912546Y-29070000D01*
X81894188Y-29130518D01*
X81881928Y-29255000D01*
X81881928Y-30155000D01*
X81894188Y-30279482D01*
X81912546Y-30340000D01*
X81894188Y-30400518D01*
X81881928Y-30525000D01*
X81881928Y-31425000D01*
X81894188Y-31549482D01*
X81912546Y-31610000D01*
X81894188Y-31670518D01*
X81881928Y-31795000D01*
X81881928Y-32695000D01*
X81894188Y-32819482D01*
X81912546Y-32880000D01*
X81894188Y-32940518D01*
X81881928Y-33065000D01*
X81881928Y-33965000D01*
X81894188Y-34089482D01*
X81912546Y-34150000D01*
X81894188Y-34210518D01*
X81881928Y-34335000D01*
X81881928Y-35235000D01*
X81894188Y-35359482D01*
X81912546Y-35420000D01*
X81894188Y-35480518D01*
X81881928Y-35605000D01*
X81881928Y-36304943D01*
X81831939Y-36295000D01*
X81628061Y-36295000D01*
X81428102Y-36334774D01*
X81239744Y-36412795D01*
X81070226Y-36526063D01*
X80926063Y-36670226D01*
X80812795Y-36839744D01*
X80734774Y-37028102D01*
X80695000Y-37228061D01*
X80695000Y-37431939D01*
X80717693Y-37546024D01*
X79432019Y-36260351D01*
X79485226Y-36131898D01*
X79525000Y-35931939D01*
X79525000Y-35728061D01*
X79485226Y-35528102D01*
X79407205Y-35339744D01*
X79293937Y-35170226D01*
X79149774Y-35026063D01*
X78980256Y-34912795D01*
X78791898Y-34834774D01*
X78591939Y-34795000D01*
X78388061Y-34795000D01*
X78188102Y-34834774D01*
X77999744Y-34912795D01*
X77830226Y-35026063D01*
X77686063Y-35170226D01*
X77572795Y-35339744D01*
X77494774Y-35528102D01*
X77455000Y-35728061D01*
X77455000Y-35931939D01*
X77494774Y-36131898D01*
X77572795Y-36320256D01*
X77686063Y-36489774D01*
X77738742Y-36542453D01*
X77739026Y-36545339D01*
X77782598Y-36688976D01*
X77811290Y-36742655D01*
X77853355Y-36821354D01*
X77884656Y-36859494D01*
X77948578Y-36937384D01*
X77977654Y-36961246D01*
X81431000Y-40414593D01*
X81430999Y-44356470D01*
X81429180Y-44355498D01*
X81309482Y-44319188D01*
X81185000Y-44306928D01*
X80285000Y-44306928D01*
X80160518Y-44319188D01*
X80100000Y-44337546D01*
X80039482Y-44319188D01*
X79915000Y-44306928D01*
X79015000Y-44306928D01*
X78890518Y-44319188D01*
X78830000Y-44337546D01*
X78769482Y-44319188D01*
X78645000Y-44306928D01*
X77745000Y-44306928D01*
X77620518Y-44319188D01*
X77560000Y-44337546D01*
X77499482Y-44319188D01*
X77375000Y-44306928D01*
X76475000Y-44306928D01*
X76350518Y-44319188D01*
X76290000Y-44337546D01*
X76229482Y-44319188D01*
X76105000Y-44306928D01*
X75205000Y-44306928D01*
X75080518Y-44319188D01*
X75020000Y-44337546D01*
X74959482Y-44319188D01*
X74835000Y-44306928D01*
X73935000Y-44306928D01*
X73810518Y-44319188D01*
X73750000Y-44337546D01*
X73689482Y-44319188D01*
X73565000Y-44306928D01*
X72665000Y-44306928D01*
X72540518Y-44319188D01*
X72480000Y-44337546D01*
X72419482Y-44319188D01*
X72295000Y-44306928D01*
X71395000Y-44306928D01*
X71270518Y-44319188D01*
X71210000Y-44337546D01*
X71149482Y-44319188D01*
X71025000Y-44306928D01*
X70125000Y-44306928D01*
X70000518Y-44319188D01*
X69940000Y-44337546D01*
X69879482Y-44319188D01*
X69755000Y-44306928D01*
X69590750Y-44310000D01*
X69432000Y-44468750D01*
X69432000Y-45818000D01*
X69452000Y-45818000D01*
X69452000Y-46072000D01*
X69432000Y-46072000D01*
X69432000Y-47421250D01*
X69590750Y-47580000D01*
X69755000Y-47583072D01*
X69879482Y-47570812D01*
X69940000Y-47552454D01*
X70000518Y-47570812D01*
X70125000Y-47583072D01*
X71025000Y-47583072D01*
X71149482Y-47570812D01*
X71210000Y-47552454D01*
X71270518Y-47570812D01*
X71395000Y-47583072D01*
X72295000Y-47583072D01*
X72419482Y-47570812D01*
X72480000Y-47552454D01*
X72540518Y-47570812D01*
X72665000Y-47583072D01*
X73565000Y-47583072D01*
X73689482Y-47570812D01*
X73750000Y-47552454D01*
X73810518Y-47570812D01*
X73935000Y-47583072D01*
X74835000Y-47583072D01*
X74959482Y-47570812D01*
X75020000Y-47552454D01*
X75080518Y-47570812D01*
X75205000Y-47583072D01*
X75769297Y-47583072D01*
X73795442Y-49556928D01*
X72764558Y-49556928D01*
X72105284Y-48897654D01*
X72081422Y-48868578D01*
X71965392Y-48773355D01*
X71833015Y-48702598D01*
X71689378Y-48659026D01*
X71577426Y-48648000D01*
X71577423Y-48648000D01*
X71540000Y-48644314D01*
X71502577Y-48648000D01*
X69695631Y-48648000D01*
X68742000Y-47694370D01*
X68742000Y-47571943D01*
X68855000Y-47583072D01*
X69019250Y-47580000D01*
X69178000Y-47421250D01*
X69178000Y-46072000D01*
X69158000Y-46072000D01*
X69158000Y-45818000D01*
X69178000Y-45818000D01*
X69178000Y-44468750D01*
X69019250Y-44310000D01*
X68855000Y-44306928D01*
X68742000Y-44318057D01*
X68742000Y-44314240D01*
X68742154Y-44313457D01*
X68742000Y-44239841D01*
X68742000Y-44202574D01*
X68741920Y-44201765D01*
X68741840Y-44163356D01*
X68734583Y-44127268D01*
X68730974Y-44090622D01*
X68719821Y-44053856D01*
X68712249Y-44016200D01*
X68698090Y-43982219D01*
X68687402Y-43946985D01*
X68669292Y-43913104D01*
X68654518Y-43877646D01*
X68634000Y-43847077D01*
X68616645Y-43814608D01*
X68592277Y-43784915D01*
X68570866Y-43753016D01*
X68544777Y-43727037D01*
X68521422Y-43698578D01*
X68491724Y-43674205D01*
X68491155Y-43673639D01*
X68467253Y-43654106D01*
X68511898Y-43645226D01*
X68700256Y-43567205D01*
X68869774Y-43453937D01*
X68911711Y-43412000D01*
X75238289Y-43412000D01*
X75290226Y-43463937D01*
X75459744Y-43577205D01*
X75648102Y-43655226D01*
X75848061Y-43695000D01*
X76051939Y-43695000D01*
X76251898Y-43655226D01*
X76440256Y-43577205D01*
X76609774Y-43463937D01*
X76753937Y-43319774D01*
X76867205Y-43150256D01*
X76945226Y-42961898D01*
X76985000Y-42761939D01*
X76985000Y-42558061D01*
X76945226Y-42358102D01*
X76867205Y-42169744D01*
X76753937Y-42000226D01*
X76609774Y-41856063D01*
X76440256Y-41742795D01*
X76251898Y-41664774D01*
X76051939Y-41625000D01*
X75848061Y-41625000D01*
X75648102Y-41664774D01*
X75459744Y-41742795D01*
X75290226Y-41856063D01*
X75258289Y-41888000D01*
X68911711Y-41888000D01*
X68869774Y-41846063D01*
X68700256Y-41732795D01*
X68672295Y-41721213D01*
X68730256Y-41697205D01*
X68899774Y-41583937D01*
X68941711Y-41542000D01*
X74726176Y-41542000D01*
X74763602Y-41545686D01*
X74801027Y-41542000D01*
X74801028Y-41542000D01*
X74912980Y-41530974D01*
X75056617Y-41487402D01*
X75188994Y-41416645D01*
X75305024Y-41321422D01*
X75391135Y-41216495D01*
X75732630Y-40875000D01*
X75791939Y-40875000D01*
X75991898Y-40835226D01*
X76180256Y-40757205D01*
X76349774Y-40643937D01*
X76493937Y-40499774D01*
X76607205Y-40330256D01*
X76685226Y-40141898D01*
X76725000Y-39941939D01*
X76725000Y-39738061D01*
X76685226Y-39538102D01*
X76607205Y-39349744D01*
X76493937Y-39180226D01*
X76386598Y-39072887D01*
X76520000Y-39073072D01*
X76644482Y-39060812D01*
X76764180Y-39024502D01*
X76874494Y-38965537D01*
X76971185Y-38886185D01*
X77050537Y-38789494D01*
X77109502Y-38679180D01*
X77145812Y-38559482D01*
X77158072Y-38435000D01*
X77155000Y-36220750D01*
X76996250Y-36062000D01*
X74147000Y-36062000D01*
X74147000Y-38911250D01*
X74305750Y-39070000D01*
X74995332Y-39070957D01*
X74886063Y-39180226D01*
X74772795Y-39349744D01*
X74694774Y-39538102D01*
X74655000Y-39738061D01*
X74655000Y-39797370D01*
X74434370Y-40018000D01*
X68941711Y-40018000D01*
X68899774Y-39976063D01*
X68730256Y-39862795D01*
X68541898Y-39784774D01*
X68341939Y-39745000D01*
X68158072Y-39745000D01*
X68158072Y-39415000D01*
X68145812Y-39290518D01*
X68127454Y-39230000D01*
X68145812Y-39169482D01*
X68158072Y-39045000D01*
X68158072Y-38145000D01*
X68145812Y-38020518D01*
X68127454Y-37960000D01*
X68145812Y-37899482D01*
X68158072Y-37775000D01*
X68158072Y-36875000D01*
X68145812Y-36750518D01*
X68127454Y-36690000D01*
X68145812Y-36629482D01*
X68158072Y-36505000D01*
X68158072Y-35605000D01*
X68145812Y-35480518D01*
X68127454Y-35420000D01*
X68145812Y-35359482D01*
X68158072Y-35235000D01*
X68158072Y-34335000D01*
X68145812Y-34210518D01*
X68127454Y-34150000D01*
X68145812Y-34089482D01*
X68158072Y-33965000D01*
X68158072Y-33065000D01*
X68145812Y-32940518D01*
X68127454Y-32880000D01*
X68145812Y-32819482D01*
X68158072Y-32695000D01*
X68158072Y-31795000D01*
X68145812Y-31670518D01*
X68127454Y-31610000D01*
X68145812Y-31549482D01*
X68158072Y-31425000D01*
X68158072Y-31153230D01*
X68605001Y-31600159D01*
X68605000Y-37411289D01*
X68586063Y-37430226D01*
X68472795Y-37599744D01*
X68394774Y-37788102D01*
X68355000Y-37988061D01*
X68355000Y-38191939D01*
X68394774Y-38391898D01*
X68472795Y-38580256D01*
X68586063Y-38749774D01*
X68730226Y-38893937D01*
X68899744Y-39007205D01*
X69088102Y-39085226D01*
X69288061Y-39125000D01*
X69491939Y-39125000D01*
X69691898Y-39085226D01*
X69880256Y-39007205D01*
X70049774Y-38893937D01*
X70193937Y-38749774D01*
X70307205Y-38580256D01*
X70367372Y-38435000D01*
X70881928Y-38435000D01*
X70894188Y-38559482D01*
X70930498Y-38679180D01*
X70989463Y-38789494D01*
X71068815Y-38886185D01*
X71165506Y-38965537D01*
X71275820Y-39024502D01*
X71395518Y-39060812D01*
X71520000Y-39073072D01*
X73734250Y-39070000D01*
X73893000Y-38911250D01*
X73893000Y-36062000D01*
X71043750Y-36062000D01*
X70885000Y-36220750D01*
X70881928Y-38435000D01*
X70367372Y-38435000D01*
X70385226Y-38391898D01*
X70425000Y-38191939D01*
X70425000Y-37988061D01*
X70385226Y-37788102D01*
X70307205Y-37599744D01*
X70193937Y-37430226D01*
X70175000Y-37411289D01*
X70175000Y-33435000D01*
X70881928Y-33435000D01*
X70885000Y-35649250D01*
X71043750Y-35808000D01*
X73893000Y-35808000D01*
X73893000Y-32958750D01*
X74147000Y-32958750D01*
X74147000Y-35808000D01*
X76996250Y-35808000D01*
X77155000Y-35649250D01*
X77158072Y-33435000D01*
X77145812Y-33310518D01*
X77109502Y-33190820D01*
X77050537Y-33080506D01*
X76971185Y-32983815D01*
X76874494Y-32904463D01*
X76764180Y-32845498D01*
X76644482Y-32809188D01*
X76520000Y-32796928D01*
X74305750Y-32800000D01*
X74147000Y-32958750D01*
X73893000Y-32958750D01*
X73734250Y-32800000D01*
X71520000Y-32796928D01*
X71395518Y-32809188D01*
X71275820Y-32845498D01*
X71165506Y-32904463D01*
X71068815Y-32983815D01*
X70989463Y-33080506D01*
X70930498Y-33190820D01*
X70894188Y-33310518D01*
X70881928Y-33435000D01*
X70175000Y-33435000D01*
X70175000Y-31313552D01*
X70178797Y-31274999D01*
X70175000Y-31236446D01*
X70175000Y-31236439D01*
X70163641Y-31121113D01*
X70162346Y-31116842D01*
X70129504Y-31008579D01*
X70118754Y-30973140D01*
X70045862Y-30836767D01*
X69947764Y-30717236D01*
X69917816Y-30692658D01*
X68402345Y-29177188D01*
X68377764Y-29147236D01*
X68258233Y-29049138D01*
X68147724Y-28990070D01*
X68158072Y-28885000D01*
X68155000Y-28720750D01*
X67996250Y-28562000D01*
X66647000Y-28562000D01*
X66647000Y-28582000D01*
X66393000Y-28582000D01*
X66393000Y-28562000D01*
X65043750Y-28562000D01*
X64885000Y-28720750D01*
X64881928Y-28885000D01*
X64894188Y-29009482D01*
X64912546Y-29070000D01*
X64894188Y-29130518D01*
X64881928Y-29255000D01*
X64881928Y-29935000D01*
X64768061Y-29935000D01*
X64568102Y-29974774D01*
X64379744Y-30052795D01*
X64210226Y-30166063D01*
X64066063Y-30310226D01*
X63952795Y-30479744D01*
X63874774Y-30668102D01*
X63835000Y-30868061D01*
X63835000Y-31071939D01*
X63874774Y-31271898D01*
X63952795Y-31460256D01*
X64066063Y-31629774D01*
X64108000Y-31671711D01*
X64108001Y-32724368D01*
X63359375Y-33472994D01*
X63346912Y-33467832D01*
X63031033Y-33405000D01*
X62708967Y-33405000D01*
X62393088Y-33467832D01*
X62095537Y-33591082D01*
X61827748Y-33770013D01*
X61600013Y-33997748D01*
X61421082Y-34265537D01*
X61297832Y-34563088D01*
X61235000Y-34878967D01*
X61235000Y-35201033D01*
X61297832Y-35516912D01*
X61421082Y-35814463D01*
X61600013Y-36082252D01*
X61827748Y-36309987D01*
X62095537Y-36488918D01*
X62393088Y-36612168D01*
X62708967Y-36675000D01*
X63031033Y-36675000D01*
X63036212Y-36673970D01*
X62976595Y-36746614D01*
X62894528Y-36900150D01*
X62843992Y-37066746D01*
X62826928Y-37240000D01*
X62826928Y-37740000D01*
X62843992Y-37913254D01*
X62894528Y-38079850D01*
X62976595Y-38233386D01*
X63087038Y-38367962D01*
X63093594Y-38373342D01*
X63013815Y-38438815D01*
X62934463Y-38535506D01*
X62875498Y-38645820D01*
X62839188Y-38765518D01*
X62826928Y-38890000D01*
X62830000Y-39104250D01*
X62988750Y-39263000D01*
X64063000Y-39263000D01*
X64063000Y-39243000D01*
X64317000Y-39243000D01*
X64317000Y-39263000D01*
X64337000Y-39263000D01*
X64337000Y-39517000D01*
X64317000Y-39517000D01*
X64317000Y-40366250D01*
X64475750Y-40525000D01*
X64904054Y-40527995D01*
X64894188Y-40560518D01*
X64881928Y-40685000D01*
X64881928Y-41585000D01*
X64894188Y-41709482D01*
X64902080Y-41735498D01*
X64840608Y-41768355D01*
X64724578Y-41863578D01*
X64700721Y-41892648D01*
X63480653Y-43112717D01*
X63451577Y-43136579D01*
X63395982Y-43204323D01*
X63356354Y-43252609D01*
X63325799Y-43309774D01*
X63285597Y-43384987D01*
X63281362Y-43398949D01*
X63275226Y-43368102D01*
X63197205Y-43179744D01*
X63083937Y-43010226D01*
X62939774Y-42866063D01*
X62770256Y-42752795D01*
X62581898Y-42674774D01*
X62381939Y-42635000D01*
X62178061Y-42635000D01*
X61978102Y-42674774D01*
X61973462Y-42676696D01*
X62017816Y-42632342D01*
X62047764Y-42607764D01*
X62091578Y-42554378D01*
X62096762Y-42548061D01*
X62145862Y-42488233D01*
X62218754Y-42351860D01*
X62257821Y-42223072D01*
X62263641Y-42203888D01*
X62272343Y-42115537D01*
X62275000Y-42088561D01*
X62275000Y-42088554D01*
X62278797Y-42050001D01*
X62275000Y-42011448D01*
X62275000Y-39890000D01*
X62826928Y-39890000D01*
X62839188Y-40014482D01*
X62875498Y-40134180D01*
X62934463Y-40244494D01*
X63013815Y-40341185D01*
X63110506Y-40420537D01*
X63220820Y-40479502D01*
X63340518Y-40515812D01*
X63465000Y-40528072D01*
X63904250Y-40525000D01*
X64063000Y-40366250D01*
X64063000Y-39517000D01*
X62988750Y-39517000D01*
X62830000Y-39675750D01*
X62826928Y-39890000D01*
X62275000Y-39890000D01*
X62275000Y-39876554D01*
X62364180Y-39849502D01*
X62474494Y-39790537D01*
X62571185Y-39711185D01*
X62650537Y-39614494D01*
X62709502Y-39504180D01*
X62745812Y-39384482D01*
X62758072Y-39260000D01*
X62758072Y-37560000D01*
X62745812Y-37435518D01*
X62709502Y-37315820D01*
X62650537Y-37205506D01*
X62571185Y-37108815D01*
X62474494Y-37029463D01*
X62364180Y-36970498D01*
X62244482Y-36934188D01*
X62120000Y-36921928D01*
X60420000Y-36921928D01*
X60295518Y-36934188D01*
X60175820Y-36970498D01*
X60065506Y-37029463D01*
X59968815Y-37108815D01*
X59889463Y-37205506D01*
X59830498Y-37315820D01*
X59808487Y-37388380D01*
X59676632Y-37256525D01*
X59433411Y-37094010D01*
X59163158Y-36982068D01*
X58876260Y-36925000D01*
X58583740Y-36925000D01*
X58296842Y-36982068D01*
X58026589Y-37094010D01*
X57783368Y-37256525D01*
X57576525Y-37463368D01*
X57414010Y-37706589D01*
X57302068Y-37976842D01*
X57245000Y-38263740D01*
X55417478Y-38263740D01*
X55419282Y-36175413D01*
X57414192Y-36175413D01*
X57509956Y-36439814D01*
X57799571Y-36580704D01*
X58111108Y-36662384D01*
X58432595Y-36681718D01*
X58751675Y-36637961D01*
X59056088Y-36532795D01*
X59230044Y-36439814D01*
X59325808Y-36175413D01*
X58370000Y-35219605D01*
X57414192Y-36175413D01*
X55419282Y-36175413D01*
X55420209Y-35102595D01*
X56728282Y-35102595D01*
X56772039Y-35421675D01*
X56877205Y-35726088D01*
X56970186Y-35900044D01*
X57234587Y-35995808D01*
X58190395Y-35040000D01*
X58549605Y-35040000D01*
X59505413Y-35995808D01*
X59769814Y-35900044D01*
X59910704Y-35610429D01*
X59992384Y-35298892D01*
X60011718Y-34977405D01*
X59967961Y-34658325D01*
X59862795Y-34353912D01*
X59769814Y-34179956D01*
X59505413Y-34084192D01*
X58549605Y-35040000D01*
X58190395Y-35040000D01*
X57234587Y-34084192D01*
X56970186Y-34179956D01*
X56829296Y-34469571D01*
X56747616Y-34781108D01*
X56728282Y-35102595D01*
X55420209Y-35102595D01*
X55421243Y-33904587D01*
X57414192Y-33904587D01*
X58370000Y-34860395D01*
X59325808Y-33904587D01*
X59230044Y-33640186D01*
X58940429Y-33499296D01*
X58628892Y-33417616D01*
X58307405Y-33398282D01*
X57988325Y-33442039D01*
X57683912Y-33547205D01*
X57509956Y-33640186D01*
X57414192Y-33904587D01*
X55421243Y-33904587D01*
X55424897Y-29675413D01*
X57414192Y-29675413D01*
X57509956Y-29939814D01*
X57799571Y-30080704D01*
X58111108Y-30162384D01*
X58432595Y-30181718D01*
X58751675Y-30137961D01*
X59056088Y-30032795D01*
X59230044Y-29939814D01*
X59325808Y-29675413D01*
X58370000Y-28719605D01*
X57414192Y-29675413D01*
X55424897Y-29675413D01*
X55425824Y-28602595D01*
X56728282Y-28602595D01*
X56772039Y-28921675D01*
X56877205Y-29226088D01*
X56970186Y-29400044D01*
X57234587Y-29495808D01*
X58190395Y-28540000D01*
X58549605Y-28540000D01*
X59505413Y-29495808D01*
X59769814Y-29400044D01*
X59910704Y-29110429D01*
X59992384Y-28798892D01*
X60011718Y-28477405D01*
X59998219Y-28378967D01*
X61235000Y-28378967D01*
X61235000Y-28701033D01*
X61297832Y-29016912D01*
X61421082Y-29314463D01*
X61600013Y-29582252D01*
X61827748Y-29809987D01*
X62095537Y-29988918D01*
X62393088Y-30112168D01*
X62708967Y-30175000D01*
X63031033Y-30175000D01*
X63346912Y-30112168D01*
X63644463Y-29988918D01*
X63912252Y-29809987D01*
X64139987Y-29582252D01*
X64318918Y-29314463D01*
X64442168Y-29016912D01*
X64505000Y-28701033D01*
X64505000Y-28378967D01*
X64442168Y-28063088D01*
X64409823Y-27985000D01*
X64881928Y-27985000D01*
X64885000Y-28149250D01*
X65043750Y-28308000D01*
X66393000Y-28308000D01*
X66393000Y-27508750D01*
X66647000Y-27508750D01*
X66647000Y-28308000D01*
X67996250Y-28308000D01*
X68155000Y-28149250D01*
X68158072Y-27985000D01*
X81881928Y-27985000D01*
X81885000Y-28149250D01*
X82043750Y-28308000D01*
X83393000Y-28308000D01*
X83393000Y-27508750D01*
X83647000Y-27508750D01*
X83647000Y-28308000D01*
X84996250Y-28308000D01*
X85144250Y-28160000D01*
X85951928Y-28160000D01*
X85955000Y-28724250D01*
X86113750Y-28883000D01*
X87313000Y-28883000D01*
X87313000Y-27683750D01*
X87154250Y-27525000D01*
X86590000Y-27521928D01*
X86465518Y-27534188D01*
X86345820Y-27570498D01*
X86235506Y-27629463D01*
X86138815Y-27708815D01*
X86059463Y-27805506D01*
X86000498Y-27915820D01*
X85964188Y-28035518D01*
X85951928Y-28160000D01*
X85144250Y-28160000D01*
X85155000Y-28149250D01*
X85158072Y-27985000D01*
X85145812Y-27860518D01*
X85109502Y-27740820D01*
X85050537Y-27630506D01*
X84971185Y-27533815D01*
X84874494Y-27454463D01*
X84764180Y-27395498D01*
X84644482Y-27359188D01*
X84520000Y-27346928D01*
X83805750Y-27350000D01*
X83647000Y-27508750D01*
X83393000Y-27508750D01*
X83234250Y-27350000D01*
X82520000Y-27346928D01*
X82395518Y-27359188D01*
X82275820Y-27395498D01*
X82165506Y-27454463D01*
X82068815Y-27533815D01*
X81989463Y-27630506D01*
X81930498Y-27740820D01*
X81894188Y-27860518D01*
X81881928Y-27985000D01*
X68158072Y-27985000D01*
X68145812Y-27860518D01*
X68109502Y-27740820D01*
X68050537Y-27630506D01*
X67971185Y-27533815D01*
X67874494Y-27454463D01*
X67764180Y-27395498D01*
X67644482Y-27359188D01*
X67520000Y-27346928D01*
X66805750Y-27350000D01*
X66647000Y-27508750D01*
X66393000Y-27508750D01*
X66234250Y-27350000D01*
X65520000Y-27346928D01*
X65395518Y-27359188D01*
X65275820Y-27395498D01*
X65165506Y-27454463D01*
X65068815Y-27533815D01*
X64989463Y-27630506D01*
X64930498Y-27740820D01*
X64894188Y-27860518D01*
X64881928Y-27985000D01*
X64409823Y-27985000D01*
X64318918Y-27765537D01*
X64139987Y-27497748D01*
X63912252Y-27270013D01*
X63644463Y-27091082D01*
X63346912Y-26967832D01*
X63031033Y-26905000D01*
X62708967Y-26905000D01*
X62393088Y-26967832D01*
X62095537Y-27091082D01*
X61827748Y-27270013D01*
X61600013Y-27497748D01*
X61421082Y-27765537D01*
X61297832Y-28063088D01*
X61235000Y-28378967D01*
X59998219Y-28378967D01*
X59967961Y-28158325D01*
X59862795Y-27853912D01*
X59769814Y-27679956D01*
X59505413Y-27584192D01*
X58549605Y-28540000D01*
X58190395Y-28540000D01*
X57234587Y-27584192D01*
X56970186Y-27679956D01*
X56829296Y-27969571D01*
X56747616Y-28281108D01*
X56728282Y-28602595D01*
X55425824Y-28602595D01*
X55426859Y-27404587D01*
X57414192Y-27404587D01*
X58370000Y-28360395D01*
X59325808Y-27404587D01*
X59230044Y-27140186D01*
X58940429Y-26999296D01*
X58628892Y-26917616D01*
X58307405Y-26898282D01*
X57988325Y-26942039D01*
X57683912Y-27047205D01*
X57509956Y-27140186D01*
X57414192Y-27404587D01*
X55426859Y-27404587D01*
X55429971Y-23802571D01*
X55456256Y-23534495D01*
X55765000Y-23534495D01*
X55765000Y-23925505D01*
X55841282Y-24309003D01*
X55990915Y-24670250D01*
X56208149Y-24995364D01*
X56484636Y-25271851D01*
X56809750Y-25489085D01*
X57170997Y-25638718D01*
X57554495Y-25715000D01*
X57945505Y-25715000D01*
X58329003Y-25638718D01*
X58690250Y-25489085D01*
X59015364Y-25271851D01*
X59291851Y-24995364D01*
X59509085Y-24670250D01*
X59658718Y-24309003D01*
X59735000Y-23925505D01*
X59735000Y-23534495D01*
X59658718Y-23150997D01*
X59509085Y-22789750D01*
X59291851Y-22464636D01*
X59015364Y-22188149D01*
X58690250Y-21970915D01*
X58329003Y-21821282D01*
X57945505Y-21745000D01*
X57554495Y-21745000D01*
X57170997Y-21821282D01*
X56809750Y-21970915D01*
X56484636Y-22188149D01*
X56208149Y-22464636D01*
X55990915Y-22789750D01*
X55841282Y-23150997D01*
X55765000Y-23534495D01*
X55456256Y-23534495D01*
X55477670Y-23316107D01*
X55609489Y-22879502D01*
X55823600Y-22476815D01*
X56111848Y-22123388D01*
X56463261Y-21832673D01*
X56864439Y-21615758D01*
X57300113Y-21480894D01*
X57784344Y-21430000D01*
X62737721Y-21430000D01*
X63029659Y-21458625D01*
%TA.AperFunction,Conductor*%
D25*
G36*
X63029659Y-21458625D02*
G01*
X63279429Y-21534035D01*
X63509792Y-21656522D01*
X63711980Y-21821422D01*
X63878286Y-22022450D01*
X64002378Y-22251954D01*
X64079531Y-22501195D01*
X64112938Y-22819040D01*
X64112765Y-22843781D01*
X64113665Y-22852952D01*
X64154466Y-23241145D01*
X64166487Y-23299708D01*
X64177702Y-23358501D01*
X64180366Y-23367323D01*
X64295790Y-23740198D01*
X64318975Y-23795353D01*
X64341379Y-23850806D01*
X64345706Y-23858943D01*
X64531357Y-24202298D01*
X64564780Y-24251849D01*
X64597562Y-24301946D01*
X64603387Y-24309087D01*
X64852194Y-24609841D01*
X64894629Y-24651981D01*
X64936492Y-24694730D01*
X64943592Y-24700604D01*
X65246077Y-24947305D01*
X65295904Y-24980409D01*
X65345259Y-25014204D01*
X65353365Y-25018587D01*
X65698007Y-25201837D01*
X65753311Y-25224631D01*
X65808295Y-25248198D01*
X65817098Y-25250923D01*
X66190770Y-25363741D01*
X66249458Y-25375361D01*
X66307961Y-25387797D01*
X66317126Y-25388760D01*
X66705595Y-25426850D01*
X66705598Y-25426850D01*
X66737581Y-25430000D01*
X83332419Y-25430000D01*
X83361373Y-25427148D01*
X83373781Y-25427235D01*
X83382952Y-25426335D01*
X83771145Y-25385534D01*
X83829708Y-25373513D01*
X83888501Y-25362298D01*
X83897323Y-25359634D01*
X84270198Y-25244210D01*
X84325353Y-25221025D01*
X84380806Y-25198621D01*
X84388943Y-25194294D01*
X84732298Y-25008643D01*
X84781849Y-24975220D01*
X84831946Y-24942438D01*
X84839087Y-24936613D01*
X85139841Y-24687806D01*
X85181981Y-24645371D01*
X85224730Y-24603508D01*
X85230604Y-24596408D01*
X85477305Y-24293923D01*
X85510409Y-24244096D01*
X85544204Y-24194741D01*
X85548587Y-24186635D01*
X85731837Y-23841993D01*
X85754631Y-23786689D01*
X85778198Y-23731705D01*
X85780923Y-23722902D01*
X85834787Y-23544495D01*
X90345000Y-23544495D01*
X90345000Y-23935505D01*
X90421282Y-24319003D01*
X90570915Y-24680250D01*
X90788149Y-25005364D01*
X91064636Y-25281851D01*
X91389750Y-25499085D01*
X91750997Y-25648718D01*
X92134495Y-25725000D01*
X92525505Y-25725000D01*
X92909003Y-25648718D01*
X93270250Y-25499085D01*
X93595364Y-25281851D01*
X93871851Y-25005364D01*
X94089085Y-24680250D01*
X94238718Y-24319003D01*
X94315000Y-23935505D01*
X94315000Y-23544495D01*
X94238718Y-23160997D01*
X94089085Y-22799750D01*
X93871851Y-22474636D01*
X93595364Y-22198149D01*
X93270250Y-21980915D01*
X92909003Y-21831282D01*
X92525505Y-21755000D01*
X92134495Y-21755000D01*
X91750997Y-21831282D01*
X91389750Y-21980915D01*
X91064636Y-22198149D01*
X90788149Y-22474636D01*
X90570915Y-22799750D01*
X90421282Y-23160997D01*
X90345000Y-23544495D01*
X85834787Y-23544495D01*
X85893741Y-23349230D01*
X85905361Y-23290542D01*
X85917797Y-23232039D01*
X85918760Y-23222874D01*
X85956850Y-22834405D01*
X85988625Y-22510341D01*
X86064035Y-22260571D01*
X86186522Y-22030208D01*
X86351422Y-21828020D01*
X86552450Y-21661714D01*
X86781954Y-21537622D01*
X87031195Y-21460469D01*
X87321088Y-21430000D01*
X92267721Y-21430000D01*
X92753893Y-21477670D01*
X93190498Y-21609489D01*
X93593185Y-21823600D01*
X93946612Y-22111848D01*
X94237327Y-22463261D01*
X94454242Y-22864439D01*
X94589106Y-23300113D01*
X94640001Y-23784353D01*
X94640000Y-58467721D01*
X94592330Y-58953894D01*
X94460512Y-59390497D01*
X94246399Y-59793186D01*
X93958150Y-60146613D01*
X93606739Y-60437327D01*
X93205564Y-60654240D01*
X92769886Y-60789106D01*
X92285664Y-60840000D01*
X57772279Y-60840000D01*
X57286106Y-60792330D01*
X56849503Y-60660512D01*
X56446814Y-60446399D01*
X56093387Y-60158150D01*
X55802673Y-59806739D01*
X55585760Y-59405564D01*
X55450894Y-58969886D01*
X55400012Y-58485777D01*
X55400142Y-58334495D01*
X55725000Y-58334495D01*
X55725000Y-58725505D01*
X55801282Y-59109003D01*
X55950915Y-59470250D01*
X56168149Y-59795364D01*
X56444636Y-60071851D01*
X56769750Y-60289085D01*
X57130997Y-60438718D01*
X57514495Y-60515000D01*
X57905505Y-60515000D01*
X58289003Y-60438718D01*
X58650250Y-60289085D01*
X58975364Y-60071851D01*
X59251851Y-59795364D01*
X59469085Y-59470250D01*
X59618718Y-59109003D01*
X59695000Y-58725505D01*
X59695000Y-58334495D01*
X59618718Y-57950997D01*
X59469085Y-57589750D01*
X59251851Y-57264636D01*
X58975364Y-56988149D01*
X58650250Y-56770915D01*
X58289003Y-56621282D01*
X57905505Y-56545000D01*
X57514495Y-56545000D01*
X57130997Y-56621282D01*
X56769750Y-56770915D01*
X56444636Y-56988149D01*
X56168149Y-57264636D01*
X55950915Y-57589750D01*
X55801282Y-57950997D01*
X55725000Y-58334495D01*
X55400142Y-58334495D01*
X55405967Y-51590000D01*
X58136928Y-51590000D01*
X58149188Y-51714482D01*
X58185498Y-51834180D01*
X58244463Y-51944494D01*
X58323815Y-52041185D01*
X58420506Y-52120537D01*
X58530820Y-52179502D01*
X58650518Y-52215812D01*
X58775000Y-52228072D01*
X59464250Y-52225000D01*
X59623000Y-52066250D01*
X59623000Y-50867000D01*
X59877000Y-50867000D01*
X59877000Y-52066250D01*
X60035750Y-52225000D01*
X60725000Y-52228072D01*
X60849482Y-52215812D01*
X60969180Y-52179502D01*
X61079494Y-52120537D01*
X61176185Y-52041185D01*
X61255537Y-51944494D01*
X61314502Y-51834180D01*
X61350812Y-51714482D01*
X61363072Y-51590000D01*
X61360000Y-51025750D01*
X61201250Y-50867000D01*
X59877000Y-50867000D01*
X59623000Y-50867000D01*
X58298750Y-50867000D01*
X58140000Y-51025750D01*
X58136928Y-51590000D01*
X55405967Y-51590000D01*
X55417478Y-38263740D01*
X57245000Y-38263740D01*
X57245000Y-38556260D01*
X57302068Y-38843158D01*
X57414010Y-39113411D01*
X57576525Y-39356632D01*
X57783368Y-39563475D01*
X58026589Y-39725990D01*
X58296842Y-39837932D01*
X58583740Y-39895000D01*
X58876260Y-39895000D01*
X59163158Y-39837932D01*
X59433411Y-39725990D01*
X59676632Y-39563475D01*
X59808487Y-39431620D01*
X59830498Y-39504180D01*
X59889463Y-39614494D01*
X59968815Y-39711185D01*
X60065506Y-39790537D01*
X60175820Y-39849502D01*
X60295518Y-39885812D01*
X60420000Y-39898072D01*
X60705000Y-39898072D01*
X60705001Y-41724841D01*
X60525804Y-41904039D01*
X60446034Y-41861401D01*
X60166111Y-41776487D01*
X59947950Y-41755000D01*
X59552050Y-41755000D01*
X59333889Y-41776487D01*
X59053966Y-41861401D01*
X58795986Y-41999294D01*
X58569866Y-42184866D01*
X58384294Y-42410986D01*
X58246401Y-42668966D01*
X58161487Y-42948889D01*
X58132815Y-43240000D01*
X58161487Y-43531111D01*
X58246401Y-43811034D01*
X58384294Y-44069014D01*
X58569866Y-44295134D01*
X58795986Y-44480706D01*
X58813374Y-44490000D01*
X58795986Y-44499294D01*
X58569866Y-44684866D01*
X58384294Y-44910986D01*
X58246401Y-45168966D01*
X58161487Y-45448889D01*
X58132815Y-45740000D01*
X58161487Y-46031111D01*
X58246401Y-46311034D01*
X58384294Y-46569014D01*
X58569866Y-46795134D01*
X58795986Y-46980706D01*
X58813374Y-46990000D01*
X58795986Y-46999294D01*
X58569866Y-47184866D01*
X58384294Y-47410986D01*
X58246401Y-47668966D01*
X58161487Y-47948889D01*
X58132815Y-48240000D01*
X58161487Y-48531111D01*
X58246401Y-48811034D01*
X58384294Y-49069014D01*
X58565608Y-49289945D01*
X58530820Y-49300498D01*
X58420506Y-49359463D01*
X58323815Y-49438815D01*
X58244463Y-49535506D01*
X58185498Y-49645820D01*
X58149188Y-49765518D01*
X58136928Y-49890000D01*
X58140000Y-50454250D01*
X58298750Y-50613000D01*
X59623000Y-50613000D01*
X59623000Y-50593000D01*
X59877000Y-50593000D01*
X59877000Y-50613000D01*
X61201250Y-50613000D01*
X61360000Y-50454250D01*
X61363072Y-49890000D01*
X61350812Y-49765518D01*
X61314502Y-49645820D01*
X61255537Y-49535506D01*
X61176185Y-49438815D01*
X61079494Y-49359463D01*
X60969180Y-49300498D01*
X60934392Y-49289945D01*
X61115706Y-49069014D01*
X61253599Y-48811034D01*
X61308901Y-48628730D01*
X62367631Y-47570000D01*
X62426939Y-47570000D01*
X62626898Y-47530226D01*
X62815256Y-47452205D01*
X62984774Y-47338937D01*
X63128937Y-47194774D01*
X63230999Y-47042027D01*
X63231000Y-53840563D01*
X63119538Y-53932038D01*
X63097500Y-53958891D01*
X63075462Y-53932038D01*
X62940887Y-53821595D01*
X62787352Y-53739528D01*
X62620756Y-53688992D01*
X62447502Y-53671928D01*
X61922498Y-53671928D01*
X61749244Y-53688992D01*
X61582648Y-53739528D01*
X61429113Y-53821595D01*
X61294538Y-53932038D01*
X61184095Y-54066613D01*
X61102028Y-54220148D01*
X61051492Y-54386744D01*
X61034428Y-54559998D01*
X61034428Y-55460002D01*
X61051492Y-55633256D01*
X61102028Y-55799852D01*
X61184095Y-55953387D01*
X61294538Y-56087962D01*
X61423000Y-56193388D01*
X61423001Y-57788808D01*
X61375385Y-57827885D01*
X61268829Y-57957725D01*
X61189650Y-58105858D01*
X61140892Y-58266592D01*
X61124428Y-58433750D01*
X61124428Y-58946250D01*
X61140892Y-59113408D01*
X61189650Y-59274142D01*
X61268829Y-59422275D01*
X61375385Y-59552115D01*
X61505225Y-59658671D01*
X61653358Y-59737850D01*
X61814092Y-59786608D01*
X61981250Y-59803072D01*
X62418750Y-59803072D01*
X62585908Y-59786608D01*
X62746642Y-59737850D01*
X62894775Y-59658671D01*
X62916430Y-59640900D01*
X62983006Y-59695537D01*
X63093320Y-59754502D01*
X63213018Y-59790812D01*
X63337500Y-59803072D01*
X63489250Y-59800000D01*
X63648000Y-59641250D01*
X63648000Y-58817000D01*
X63902000Y-58817000D01*
X63902000Y-59641250D01*
X64060750Y-59800000D01*
X64212500Y-59803072D01*
X64336982Y-59790812D01*
X64456680Y-59754502D01*
X64566994Y-59695537D01*
X64663685Y-59616185D01*
X64743037Y-59519494D01*
X64802002Y-59409180D01*
X64838312Y-59289482D01*
X64850572Y-59165000D01*
X64847500Y-58975750D01*
X64688750Y-58817000D01*
X63902000Y-58817000D01*
X63648000Y-58817000D01*
X63628000Y-58817000D01*
X63628000Y-58563000D01*
X63648000Y-58563000D01*
X63648000Y-57738750D01*
X63902000Y-57738750D01*
X63902000Y-58563000D01*
X64688750Y-58563000D01*
X64847500Y-58404250D01*
X64850572Y-58215000D01*
X64838312Y-58090518D01*
X64802002Y-57970820D01*
X64743037Y-57860506D01*
X64663685Y-57763815D01*
X64566994Y-57684463D01*
X64456680Y-57625498D01*
X64336982Y-57589188D01*
X64212500Y-57576928D01*
X64060750Y-57580000D01*
X63902000Y-57738750D01*
X63648000Y-57738750D01*
X63489250Y-57580000D01*
X63337500Y-57576928D01*
X63213018Y-57589188D01*
X63093320Y-57625498D01*
X62983006Y-57684463D01*
X62947000Y-57714012D01*
X62947000Y-56193388D01*
X63075462Y-56087962D01*
X63097500Y-56061109D01*
X63119538Y-56087962D01*
X63254113Y-56198405D01*
X63407648Y-56280472D01*
X63574244Y-56331008D01*
X63747498Y-56348072D01*
X64272502Y-56348072D01*
X64445756Y-56331008D01*
X64612352Y-56280472D01*
X64765887Y-56198405D01*
X64900462Y-56087962D01*
X65010905Y-55953387D01*
X65092972Y-55799852D01*
X65143508Y-55633256D01*
X65160572Y-55460002D01*
X65160572Y-54559998D01*
X65143508Y-54386744D01*
X65092972Y-54220148D01*
X65010905Y-54066613D01*
X64900462Y-53932038D01*
X64765887Y-53821595D01*
X64754999Y-53815775D01*
X64754999Y-52493061D01*
X65485000Y-52493061D01*
X65485000Y-52696939D01*
X65524774Y-52896898D01*
X65602795Y-53085256D01*
X65716063Y-53254774D01*
X65860226Y-53398937D01*
X66029744Y-53512205D01*
X66218102Y-53590226D01*
X66418061Y-53630000D01*
X66477370Y-53630000D01*
X66558453Y-53711083D01*
X66497648Y-53729528D01*
X66344113Y-53811595D01*
X66209538Y-53922038D01*
X66099095Y-54056613D01*
X66017028Y-54210148D01*
X65966492Y-54376744D01*
X65949428Y-54549998D01*
X65949428Y-55450002D01*
X65966492Y-55623256D01*
X66017028Y-55789852D01*
X66099095Y-55943387D01*
X66209538Y-56077962D01*
X66338000Y-56183388D01*
X66338001Y-57776498D01*
X66275385Y-57827885D01*
X66168829Y-57957725D01*
X66089650Y-58105858D01*
X66040892Y-58266592D01*
X66024428Y-58433750D01*
X66024428Y-58946250D01*
X66040892Y-59113408D01*
X66089650Y-59274142D01*
X66168829Y-59422275D01*
X66275385Y-59552115D01*
X66405225Y-59658671D01*
X66553358Y-59737850D01*
X66714092Y-59786608D01*
X66881250Y-59803072D01*
X67318750Y-59803072D01*
X67485908Y-59786608D01*
X67646642Y-59737850D01*
X67794775Y-59658671D01*
X67816430Y-59640900D01*
X67883006Y-59695537D01*
X67993320Y-59754502D01*
X68113018Y-59790812D01*
X68237500Y-59803072D01*
X68389250Y-59800000D01*
X68548000Y-59641250D01*
X68548000Y-58817000D01*
X68802000Y-58817000D01*
X68802000Y-59641250D01*
X68960750Y-59800000D01*
X69112500Y-59803072D01*
X69236982Y-59790812D01*
X69356680Y-59754502D01*
X69466994Y-59695537D01*
X69563685Y-59616185D01*
X69643037Y-59519494D01*
X69702002Y-59409180D01*
X69738312Y-59289482D01*
X69750572Y-59165000D01*
X69747500Y-58975750D01*
X69588750Y-58817000D01*
X68802000Y-58817000D01*
X68548000Y-58817000D01*
X68528000Y-58817000D01*
X68528000Y-58563000D01*
X68548000Y-58563000D01*
X68548000Y-57738750D01*
X68802000Y-57738750D01*
X68802000Y-58563000D01*
X69588750Y-58563000D01*
X69747500Y-58404250D01*
X69750572Y-58215000D01*
X69738312Y-58090518D01*
X69702002Y-57970820D01*
X69643037Y-57860506D01*
X69563685Y-57763815D01*
X69466994Y-57684463D01*
X69356680Y-57625498D01*
X69236982Y-57589188D01*
X69112500Y-57576928D01*
X68960750Y-57580000D01*
X68802000Y-57738750D01*
X68548000Y-57738750D01*
X68389250Y-57580000D01*
X68237500Y-57576928D01*
X68113018Y-57589188D01*
X67993320Y-57625498D01*
X67883006Y-57684463D01*
X67862000Y-57701702D01*
X67862000Y-56600000D01*
X71231928Y-56600000D01*
X71244188Y-56724482D01*
X71280498Y-56844180D01*
X71339463Y-56954494D01*
X71418815Y-57051185D01*
X71515506Y-57130537D01*
X71625820Y-57189502D01*
X71745518Y-57225812D01*
X71870000Y-57238072D01*
X72434250Y-57235000D01*
X72593000Y-57076250D01*
X72593000Y-55727000D01*
X71393750Y-55727000D01*
X71235000Y-55885750D01*
X71231928Y-56600000D01*
X67862000Y-56600000D01*
X67862000Y-56183388D01*
X67990462Y-56077962D01*
X68012500Y-56051109D01*
X68034538Y-56077962D01*
X68169113Y-56188405D01*
X68322648Y-56270472D01*
X68489244Y-56321008D01*
X68662498Y-56338072D01*
X69187502Y-56338072D01*
X69360756Y-56321008D01*
X69527352Y-56270472D01*
X69680887Y-56188405D01*
X69815462Y-56077962D01*
X69925905Y-55943387D01*
X70007972Y-55789852D01*
X70058508Y-55623256D01*
X70075572Y-55450002D01*
X70075572Y-54600000D01*
X71231928Y-54600000D01*
X71235000Y-55314250D01*
X71393750Y-55473000D01*
X72593000Y-55473000D01*
X72593000Y-54123750D01*
X72434250Y-53965000D01*
X71870000Y-53961928D01*
X71745518Y-53974188D01*
X71625820Y-54010498D01*
X71515506Y-54069463D01*
X71418815Y-54148815D01*
X71339463Y-54245506D01*
X71280498Y-54355820D01*
X71244188Y-54475518D01*
X71231928Y-54600000D01*
X70075572Y-54600000D01*
X70075572Y-54549998D01*
X70058508Y-54376744D01*
X70007972Y-54210148D01*
X69925905Y-54056613D01*
X69815462Y-53922038D01*
X69680887Y-53811595D01*
X69527352Y-53729528D01*
X69360756Y-53678992D01*
X69187502Y-53661928D01*
X68664558Y-53661928D01*
X67650670Y-52648040D01*
X67903110Y-52736476D01*
X68133000Y-52615155D01*
X68133000Y-51297000D01*
X66933835Y-51297000D01*
X66793680Y-51529267D01*
X66811645Y-51597735D01*
X66621939Y-51560000D01*
X66418061Y-51560000D01*
X66218102Y-51599774D01*
X66029744Y-51677795D01*
X65860226Y-51791063D01*
X65716063Y-51935226D01*
X65602795Y-52104744D01*
X65524774Y-52293102D01*
X65485000Y-52493061D01*
X64754999Y-52493061D01*
X64754999Y-50810733D01*
X66793680Y-50810733D01*
X66933835Y-51043000D01*
X68133000Y-51043000D01*
X68133000Y-49724845D01*
X67903110Y-49603524D01*
X67640142Y-49695648D01*
X67388807Y-49842504D01*
X67170951Y-50035571D01*
X66994947Y-50267430D01*
X66867558Y-50529170D01*
X66793680Y-50810733D01*
X64754999Y-50810733D01*
X64754999Y-43993631D01*
X64881928Y-43866702D01*
X64881928Y-44125000D01*
X64894188Y-44249482D01*
X64912546Y-44310000D01*
X64894188Y-44370518D01*
X64881928Y-44495000D01*
X64881928Y-45395000D01*
X64894188Y-45519482D01*
X64930498Y-45639180D01*
X64989463Y-45749494D01*
X65068815Y-45846185D01*
X65165506Y-45925537D01*
X65275820Y-45984502D01*
X65395518Y-46020812D01*
X65520000Y-46033072D01*
X65758000Y-46033072D01*
X65758001Y-46528288D01*
X65716063Y-46570226D01*
X65602795Y-46739744D01*
X65524774Y-46928102D01*
X65485000Y-47128061D01*
X65485000Y-47331939D01*
X65524774Y-47531898D01*
X65602795Y-47720256D01*
X65716063Y-47889774D01*
X65860226Y-48033937D01*
X66029744Y-48147205D01*
X66218102Y-48225226D01*
X66418061Y-48265000D01*
X66621939Y-48265000D01*
X66821898Y-48225226D01*
X67010256Y-48147205D01*
X67179774Y-48033937D01*
X67215472Y-47998239D01*
X67214314Y-48010000D01*
X67218000Y-48047423D01*
X67218000Y-48047425D01*
X67229026Y-48159377D01*
X67272598Y-48303014D01*
X67305535Y-48364635D01*
X67343355Y-48435392D01*
X67372378Y-48470756D01*
X67438578Y-48551422D01*
X67467654Y-48575284D01*
X68537690Y-49645321D01*
X68387000Y-49724845D01*
X68387000Y-51043000D01*
X68407000Y-51043000D01*
X68407000Y-51297000D01*
X68387000Y-51297000D01*
X68387000Y-52615155D01*
X68616890Y-52736476D01*
X68879858Y-52644352D01*
X69131193Y-52497496D01*
X69349049Y-52304429D01*
X69505538Y-52098278D01*
X69519294Y-52124013D01*
X69704866Y-52350134D01*
X69930986Y-52535706D01*
X70188966Y-52673599D01*
X70468889Y-52758513D01*
X70760000Y-52787185D01*
X71051110Y-52758513D01*
X71133395Y-52733552D01*
X71647658Y-53247816D01*
X71672236Y-53277764D01*
X71702184Y-53302342D01*
X71702187Y-53302345D01*
X71731559Y-53326450D01*
X71791767Y-53375862D01*
X71928140Y-53448754D01*
X72076113Y-53493642D01*
X72151026Y-53501020D01*
X72191439Y-53505000D01*
X72191444Y-53505000D01*
X72230000Y-53508797D01*
X72268555Y-53505000D01*
X74185000Y-53505000D01*
X74185000Y-53671939D01*
X74224774Y-53871898D01*
X74302795Y-54060256D01*
X74399381Y-54204807D01*
X74390986Y-54209294D01*
X74170055Y-54390608D01*
X74159502Y-54355820D01*
X74100537Y-54245506D01*
X74021185Y-54148815D01*
X73924494Y-54069463D01*
X73814180Y-54010498D01*
X73694482Y-53974188D01*
X73570000Y-53961928D01*
X73005750Y-53965000D01*
X72847000Y-54123750D01*
X72847000Y-55473000D01*
X72867000Y-55473000D01*
X72867000Y-55727000D01*
X72847000Y-55727000D01*
X72847000Y-57076250D01*
X73005750Y-57235000D01*
X73570000Y-57238072D01*
X73694482Y-57225812D01*
X73814180Y-57189502D01*
X73924494Y-57130537D01*
X74021185Y-57051185D01*
X74100537Y-56954494D01*
X74159502Y-56844180D01*
X74170055Y-56809392D01*
X74390987Y-56990706D01*
X74648967Y-57128599D01*
X74928890Y-57213513D01*
X75220000Y-57242185D01*
X75511111Y-57213513D01*
X75673957Y-57164114D01*
X77517658Y-59007816D01*
X77542236Y-59037764D01*
X77572184Y-59062342D01*
X77572187Y-59062345D01*
X77572549Y-59062642D01*
X77661767Y-59135862D01*
X77798140Y-59208754D01*
X77946113Y-59253641D01*
X78060686Y-59264926D01*
X78137038Y-59357962D01*
X78271614Y-59468405D01*
X78425150Y-59550472D01*
X78591746Y-59601008D01*
X78765000Y-59618072D01*
X79715000Y-59618072D01*
X79888254Y-59601008D01*
X80054850Y-59550472D01*
X80208386Y-59468405D01*
X80342962Y-59357962D01*
X80453405Y-59223386D01*
X80535472Y-59069850D01*
X80586008Y-58903254D01*
X80603072Y-58730000D01*
X80603072Y-58230000D01*
X80586008Y-58056746D01*
X80535472Y-57890150D01*
X80453405Y-57736614D01*
X80342962Y-57602038D01*
X80336406Y-57596658D01*
X80416185Y-57531185D01*
X80495537Y-57434494D01*
X80554502Y-57324180D01*
X80590812Y-57204482D01*
X80603072Y-57080000D01*
X80600000Y-56865750D01*
X80441250Y-56707000D01*
X79367000Y-56707000D01*
X79367000Y-56727000D01*
X79113000Y-56727000D01*
X79113000Y-56707000D01*
X78038750Y-56707000D01*
X77880000Y-56865750D01*
X77876928Y-57080000D01*
X77884223Y-57154065D01*
X76691381Y-55961224D01*
X76705000Y-55822949D01*
X76705000Y-55377050D01*
X76683513Y-55158889D01*
X76662616Y-55090000D01*
X77866928Y-55090000D01*
X77879188Y-55214482D01*
X77915498Y-55334180D01*
X77974463Y-55444494D01*
X78053815Y-55541185D01*
X78112204Y-55589103D01*
X78063815Y-55628815D01*
X77984463Y-55725506D01*
X77925498Y-55835820D01*
X77889188Y-55955518D01*
X77876928Y-56080000D01*
X77880000Y-56294250D01*
X78038750Y-56453000D01*
X79113000Y-56453000D01*
X79113000Y-55603750D01*
X79089250Y-55580000D01*
X79103000Y-55566250D01*
X79103000Y-54717000D01*
X78028750Y-54717000D01*
X77870000Y-54875750D01*
X77866928Y-55090000D01*
X76662616Y-55090000D01*
X76598599Y-54878966D01*
X76460706Y-54620986D01*
X76275134Y-54394866D01*
X76049013Y-54209294D01*
X76040619Y-54204807D01*
X76137205Y-54060256D01*
X76215226Y-53871898D01*
X76255000Y-53671939D01*
X76255000Y-53505000D01*
X78075367Y-53505000D01*
X78127038Y-53567962D01*
X78133594Y-53573342D01*
X78053815Y-53638815D01*
X77974463Y-53735506D01*
X77915498Y-53845820D01*
X77879188Y-53965518D01*
X77866928Y-54090000D01*
X77870000Y-54304250D01*
X78028750Y-54463000D01*
X79103000Y-54463000D01*
X79103000Y-54443000D01*
X79357000Y-54443000D01*
X79357000Y-54463000D01*
X79377000Y-54463000D01*
X79377000Y-54717000D01*
X79357000Y-54717000D01*
X79357000Y-55566250D01*
X79380750Y-55590000D01*
X79367000Y-55603750D01*
X79367000Y-56453000D01*
X80441250Y-56453000D01*
X80600000Y-56294250D01*
X80603072Y-56080000D01*
X80590812Y-55955518D01*
X80554502Y-55835820D01*
X80495537Y-55725506D01*
X80416185Y-55628815D01*
X80357796Y-55580897D01*
X80406185Y-55541185D01*
X80485537Y-55444494D01*
X80544502Y-55334180D01*
X80580812Y-55214482D01*
X80593072Y-55090000D01*
X80590000Y-54875750D01*
X80431252Y-54717002D01*
X80590000Y-54717002D01*
X80590000Y-54595000D01*
X80721939Y-54595000D01*
X80921898Y-54555226D01*
X81110256Y-54477205D01*
X81279774Y-54363937D01*
X81298711Y-54345000D01*
X81351447Y-54345000D01*
X81390000Y-54348797D01*
X81428553Y-54345000D01*
X81428561Y-54345000D01*
X81543887Y-54333641D01*
X81691860Y-54288754D01*
X81828233Y-54215862D01*
X81947764Y-54117764D01*
X81972347Y-54087810D01*
X82522085Y-53538072D01*
X83800000Y-53538072D01*
X83924482Y-53525812D01*
X84044180Y-53489502D01*
X84154494Y-53430537D01*
X84200000Y-53393191D01*
X84245506Y-53430537D01*
X84355820Y-53489502D01*
X84475518Y-53525812D01*
X84500000Y-53528223D01*
X84500001Y-56561928D01*
X83450000Y-56561928D01*
X83325518Y-56574188D01*
X83205820Y-56610498D01*
X83095506Y-56669463D01*
X82998815Y-56748815D01*
X82919463Y-56845506D01*
X82860498Y-56955820D01*
X82824188Y-57075518D01*
X82811928Y-57200000D01*
X82811928Y-59200000D01*
X82824188Y-59324482D01*
X82860498Y-59444180D01*
X82919463Y-59554494D01*
X82998815Y-59651185D01*
X83095506Y-59730537D01*
X83205820Y-59789502D01*
X83325518Y-59825812D01*
X83450000Y-59838072D01*
X87250000Y-59838072D01*
X87374482Y-59825812D01*
X87494180Y-59789502D01*
X87604494Y-59730537D01*
X87701185Y-59651185D01*
X87780537Y-59554494D01*
X87839502Y-59444180D01*
X87875812Y-59324482D01*
X87888072Y-59200000D01*
X87888072Y-58324495D01*
X90355000Y-58324495D01*
X90355000Y-58715505D01*
X90431282Y-59099003D01*
X90580915Y-59460250D01*
X90798149Y-59785364D01*
X91074636Y-60061851D01*
X91399750Y-60279085D01*
X91760997Y-60428718D01*
X92144495Y-60505000D01*
X92535505Y-60505000D01*
X92919003Y-60428718D01*
X93280250Y-60279085D01*
X93605364Y-60061851D01*
X93881851Y-59785364D01*
X94099085Y-59460250D01*
X94248718Y-59099003D01*
X94325000Y-58715505D01*
X94325000Y-58324495D01*
X94248718Y-57940997D01*
X94099085Y-57579750D01*
X93881851Y-57254636D01*
X93605364Y-56978149D01*
X93280250Y-56760915D01*
X92919003Y-56611282D01*
X92535505Y-56535000D01*
X92144495Y-56535000D01*
X91760997Y-56611282D01*
X91399750Y-56760915D01*
X91074636Y-56978149D01*
X90798149Y-57254636D01*
X90580915Y-57579750D01*
X90431282Y-57940997D01*
X90355000Y-58324495D01*
X87888072Y-58324495D01*
X87888072Y-57200000D01*
X87875812Y-57075518D01*
X87839502Y-56955820D01*
X87780537Y-56845506D01*
X87701185Y-56748815D01*
X87604494Y-56669463D01*
X87494180Y-56610498D01*
X87374482Y-56574188D01*
X87250000Y-56561928D01*
X86200000Y-56561928D01*
X86200000Y-53528223D01*
X86224482Y-53525812D01*
X86344180Y-53489502D01*
X86454494Y-53430537D01*
X86500000Y-53393191D01*
X86545506Y-53430537D01*
X86655820Y-53489502D01*
X86775518Y-53525812D01*
X86900000Y-53538072D01*
X87364250Y-53535000D01*
X87523000Y-53376250D01*
X87523000Y-52027000D01*
X87503000Y-52027000D01*
X87503000Y-51773000D01*
X87523000Y-51773000D01*
X87523000Y-50423750D01*
X87777000Y-50423750D01*
X87777000Y-51773000D01*
X88876250Y-51773000D01*
X89035000Y-51614250D01*
X89038072Y-50900000D01*
X89025812Y-50775518D01*
X88989502Y-50655820D01*
X88930537Y-50545506D01*
X88851185Y-50448815D01*
X88754494Y-50369463D01*
X88644180Y-50310498D01*
X88524482Y-50274188D01*
X88400000Y-50261928D01*
X87935750Y-50265000D01*
X87777000Y-50423750D01*
X87523000Y-50423750D01*
X87512799Y-50413549D01*
X87535000Y-50301939D01*
X87535000Y-50098061D01*
X87495226Y-49898102D01*
X87417205Y-49709744D01*
X87303937Y-49540226D01*
X87159774Y-49396063D01*
X86990256Y-49282795D01*
X86801898Y-49204774D01*
X86601939Y-49165000D01*
X86398061Y-49165000D01*
X86292205Y-49186056D01*
X86248405Y-49104113D01*
X86137962Y-48969538D01*
X86111109Y-48947500D01*
X86137962Y-48925462D01*
X86248405Y-48790887D01*
X86330472Y-48637352D01*
X86381008Y-48470756D01*
X86398072Y-48297502D01*
X86398072Y-47772498D01*
X86381008Y-47599244D01*
X86330472Y-47432648D01*
X86248405Y-47279113D01*
X86137962Y-47144538D01*
X86003387Y-47034095D01*
X85849852Y-46952028D01*
X85683256Y-46901492D01*
X85510002Y-46884428D01*
X84609998Y-46884428D01*
X84508458Y-46894429D01*
X83647100Y-46033072D01*
X84520000Y-46033072D01*
X84644482Y-46020812D01*
X84764180Y-45984502D01*
X84874494Y-45925537D01*
X84971185Y-45846185D01*
X85050537Y-45749494D01*
X85109502Y-45639180D01*
X85145812Y-45519482D01*
X85158072Y-45395000D01*
X85158072Y-45179558D01*
X85652353Y-44685278D01*
X85681422Y-44661422D01*
X85776645Y-44545392D01*
X85847402Y-44413015D01*
X85890974Y-44269378D01*
X85902000Y-44157426D01*
X85902000Y-44157424D01*
X85905686Y-44120001D01*
X85902000Y-44082578D01*
X85902000Y-43585665D01*
X88796866Y-46409294D01*
X88751487Y-46558889D01*
X88722815Y-46850000D01*
X88751487Y-47141111D01*
X88836401Y-47421034D01*
X88974294Y-47679014D01*
X89159866Y-47905134D01*
X89385986Y-48090706D01*
X89643966Y-48228599D01*
X89923889Y-48313513D01*
X90142050Y-48335000D01*
X90537950Y-48335000D01*
X90756111Y-48313513D01*
X91036034Y-48228599D01*
X91294014Y-48090706D01*
X91385000Y-48016036D01*
X91385000Y-48304842D01*
X90524843Y-49165000D01*
X90498061Y-49165000D01*
X90298102Y-49204774D01*
X90109744Y-49282795D01*
X89940226Y-49396063D01*
X89796063Y-49540226D01*
X89682795Y-49709744D01*
X89604774Y-49898102D01*
X89565000Y-50098061D01*
X89565000Y-50301939D01*
X89604774Y-50501898D01*
X89682795Y-50690256D01*
X89796063Y-50859774D01*
X89815001Y-50878712D01*
X89815000Y-51934428D01*
X89519998Y-51934428D01*
X89346744Y-51951492D01*
X89180148Y-52002028D01*
X89026613Y-52084095D01*
X88975386Y-52126136D01*
X88876250Y-52027000D01*
X87777000Y-52027000D01*
X87777000Y-53376250D01*
X87935750Y-53535000D01*
X88400000Y-53538072D01*
X88524482Y-53525812D01*
X88644180Y-53489502D01*
X88645827Y-53488622D01*
X88648992Y-53520756D01*
X88699528Y-53687352D01*
X88781595Y-53840887D01*
X88892038Y-53975462D01*
X88918891Y-53997500D01*
X88892038Y-54019538D01*
X88781595Y-54154113D01*
X88699528Y-54307648D01*
X88648992Y-54474244D01*
X88631928Y-54647498D01*
X88631928Y-55172502D01*
X88648992Y-55345756D01*
X88699528Y-55512352D01*
X88781595Y-55665887D01*
X88892038Y-55800462D01*
X89026613Y-55910905D01*
X89180148Y-55992972D01*
X89346744Y-56043508D01*
X89519998Y-56060572D01*
X90420002Y-56060572D01*
X90593256Y-56043508D01*
X90759852Y-55992972D01*
X90913387Y-55910905D01*
X91047962Y-55800462D01*
X91158405Y-55665887D01*
X91238229Y-55516548D01*
X91270506Y-55543037D01*
X91380820Y-55602002D01*
X91500518Y-55638312D01*
X91625000Y-55650572D01*
X91814250Y-55647500D01*
X91973000Y-55488750D01*
X91973000Y-54702000D01*
X92227000Y-54702000D01*
X92227000Y-55488750D01*
X92385750Y-55647500D01*
X92575000Y-55650572D01*
X92699482Y-55638312D01*
X92819180Y-55602002D01*
X92929494Y-55543037D01*
X93026185Y-55463685D01*
X93105537Y-55366994D01*
X93164502Y-55256680D01*
X93200812Y-55136982D01*
X93213072Y-55012500D01*
X93210000Y-54860750D01*
X93051250Y-54702000D01*
X92227000Y-54702000D01*
X91973000Y-54702000D01*
X91953000Y-54702000D01*
X91953000Y-54448000D01*
X91973000Y-54448000D01*
X91973000Y-54428000D01*
X92227000Y-54428000D01*
X92227000Y-54448000D01*
X93051250Y-54448000D01*
X93210000Y-54289250D01*
X93213072Y-54137500D01*
X93200812Y-54013018D01*
X93164502Y-53893320D01*
X93105537Y-53783006D01*
X93050900Y-53716430D01*
X93068671Y-53694775D01*
X93147850Y-53546642D01*
X93196608Y-53385908D01*
X93213072Y-53218750D01*
X93213072Y-52781250D01*
X93196608Y-52614092D01*
X93147850Y-52453358D01*
X93068671Y-52305225D01*
X92962115Y-52175385D01*
X92832275Y-52068829D01*
X92684142Y-51989650D01*
X92523408Y-51940892D01*
X92356250Y-51924428D01*
X91843750Y-51924428D01*
X91676592Y-51940892D01*
X91515858Y-51989650D01*
X91385000Y-52059595D01*
X91385000Y-50878711D01*
X91403937Y-50859774D01*
X91517205Y-50690256D01*
X91595226Y-50501898D01*
X91635000Y-50301939D01*
X91635000Y-50275157D01*
X92697816Y-49212342D01*
X92727764Y-49187764D01*
X92770598Y-49135572D01*
X92784602Y-49118508D01*
X92825862Y-49068233D01*
X92898754Y-48931860D01*
X92938545Y-48800686D01*
X92943641Y-48783888D01*
X92947876Y-48740887D01*
X92955000Y-48668561D01*
X92955000Y-48668554D01*
X92958797Y-48630001D01*
X92955000Y-48591448D01*
X92955000Y-43718556D01*
X92958797Y-43680000D01*
X92955000Y-43641444D01*
X92955000Y-43641439D01*
X92948809Y-43578579D01*
X92943642Y-43526113D01*
X92898754Y-43378140D01*
X92865257Y-43315471D01*
X92825862Y-43241767D01*
X92727764Y-43122236D01*
X92697810Y-43097653D01*
X91884933Y-42284776D01*
X91928513Y-42141111D01*
X91957185Y-41850000D01*
X91928513Y-41558889D01*
X91843599Y-41278966D01*
X91705706Y-41020986D01*
X91524392Y-40800055D01*
X91559180Y-40789502D01*
X91669494Y-40730537D01*
X91766185Y-40651185D01*
X91845537Y-40554494D01*
X91904502Y-40444180D01*
X91940812Y-40324482D01*
X91953072Y-40200000D01*
X91950000Y-39635750D01*
X91791250Y-39477000D01*
X90467000Y-39477000D01*
X90467000Y-39497000D01*
X90213000Y-39497000D01*
X90213000Y-39477000D01*
X88888750Y-39477000D01*
X88730000Y-39635750D01*
X88729377Y-39750133D01*
X88425000Y-39473054D01*
X88425000Y-38500000D01*
X88726928Y-38500000D01*
X88730000Y-39064250D01*
X88888750Y-39223000D01*
X90213000Y-39223000D01*
X90213000Y-38023750D01*
X90467000Y-38023750D01*
X90467000Y-39223000D01*
X91791250Y-39223000D01*
X91950000Y-39064250D01*
X91953072Y-38500000D01*
X91940812Y-38375518D01*
X91904502Y-38255820D01*
X91845537Y-38145506D01*
X91766185Y-38048815D01*
X91669494Y-37969463D01*
X91559180Y-37910498D01*
X91439482Y-37874188D01*
X91315000Y-37861928D01*
X90625750Y-37865000D01*
X90467000Y-38023750D01*
X90213000Y-38023750D01*
X90054250Y-37865000D01*
X89365000Y-37861928D01*
X89240518Y-37874188D01*
X89120820Y-37910498D01*
X89010506Y-37969463D01*
X88913815Y-38048815D01*
X88834463Y-38145506D01*
X88775498Y-38255820D01*
X88739188Y-38375518D01*
X88726928Y-38500000D01*
X88425000Y-38500000D01*
X88425000Y-36755157D01*
X89643082Y-35537075D01*
X89833740Y-35575000D01*
X90126260Y-35575000D01*
X90413158Y-35517932D01*
X90683411Y-35405990D01*
X90926632Y-35243475D01*
X91133475Y-35036632D01*
X91295990Y-34793411D01*
X91407932Y-34523158D01*
X91465000Y-34236260D01*
X91465000Y-33943740D01*
X91407932Y-33656842D01*
X91295990Y-33386589D01*
X91133475Y-33143368D01*
X90926632Y-32936525D01*
X90752240Y-32820000D01*
X90926632Y-32703475D01*
X91133475Y-32496632D01*
X91295990Y-32253411D01*
X91407932Y-31983158D01*
X91465000Y-31696260D01*
X91465000Y-31403740D01*
X91407932Y-31116842D01*
X91295990Y-30846589D01*
X91133475Y-30603368D01*
X90926632Y-30396525D01*
X90752240Y-30280000D01*
X90926632Y-30163475D01*
X91133475Y-29956632D01*
X91295990Y-29713411D01*
X91407932Y-29443158D01*
X91465000Y-29156260D01*
X91465000Y-28863740D01*
X91407932Y-28576842D01*
X91295990Y-28306589D01*
X91133475Y-28063368D01*
X90926632Y-27856525D01*
X90683411Y-27694010D01*
X90413158Y-27582068D01*
X90126260Y-27525000D01*
X89833740Y-27525000D01*
X89546842Y-27582068D01*
X89276589Y-27694010D01*
X89033368Y-27856525D01*
X88901513Y-27988380D01*
X88879502Y-27915820D01*
X88820537Y-27805506D01*
X88741185Y-27708815D01*
X88644494Y-27629463D01*
X88534180Y-27570498D01*
X88414482Y-27534188D01*
X88290000Y-27521928D01*
X87725750Y-27525000D01*
X87567000Y-27683750D01*
X87567000Y-28883000D01*
X87587000Y-28883000D01*
X87587000Y-29137000D01*
X87567000Y-29137000D01*
X87567000Y-29157000D01*
X87313000Y-29157000D01*
X87313000Y-29137000D01*
X86113750Y-29137000D01*
X85955000Y-29295750D01*
X85951928Y-29860000D01*
X85964188Y-29984482D01*
X86000498Y-30104180D01*
X86059463Y-30214494D01*
X86138815Y-30311185D01*
X86235506Y-30390537D01*
X86345820Y-30449502D01*
X86418380Y-30471513D01*
X86286525Y-30603368D01*
X86124508Y-30845843D01*
X86053937Y-30740226D01*
X85909774Y-30596063D01*
X85740256Y-30482795D01*
X85551898Y-30404774D01*
X85351939Y-30365000D01*
X85282859Y-30365000D01*
X85250392Y-30338355D01*
X85145036Y-30282041D01*
X85145812Y-30279482D01*
X85158072Y-30155000D01*
X85158072Y-29255000D01*
X85145812Y-29130518D01*
X85127454Y-29070000D01*
X85145812Y-29009482D01*
X85158072Y-28885000D01*
X85155000Y-28720750D01*
X84996250Y-28562000D01*
X83647000Y-28562000D01*
X83647000Y-28582000D01*
X83393000Y-28582000D01*
X83393000Y-28562000D01*
X82043750Y-28562000D01*
X81885000Y-28720750D01*
X81881928Y-28885000D01*
X81894188Y-29009482D01*
X81912546Y-29070000D01*
X81894188Y-29130518D01*
X81881928Y-29255000D01*
X81881928Y-30155000D01*
X81894188Y-30279482D01*
X81912546Y-30340000D01*
X81894188Y-30400518D01*
X81881928Y-30525000D01*
X81881928Y-31425000D01*
X81894188Y-31549482D01*
X81912546Y-31610000D01*
X81894188Y-31670518D01*
X81881928Y-31795000D01*
X81881928Y-32695000D01*
X81894188Y-32819482D01*
X81912546Y-32880000D01*
X81894188Y-32940518D01*
X81881928Y-33065000D01*
X81881928Y-33965000D01*
X81894188Y-34089482D01*
X81912546Y-34150000D01*
X81894188Y-34210518D01*
X81881928Y-34335000D01*
X81881928Y-35235000D01*
X81894188Y-35359482D01*
X81912546Y-35420000D01*
X81894188Y-35480518D01*
X81881928Y-35605000D01*
X81881928Y-36304943D01*
X81831939Y-36295000D01*
X81628061Y-36295000D01*
X81428102Y-36334774D01*
X81239744Y-36412795D01*
X81070226Y-36526063D01*
X80926063Y-36670226D01*
X80812795Y-36839744D01*
X80734774Y-37028102D01*
X80695000Y-37228061D01*
X80695000Y-37431939D01*
X80717693Y-37546024D01*
X79432019Y-36260351D01*
X79485226Y-36131898D01*
X79525000Y-35931939D01*
X79525000Y-35728061D01*
X79485226Y-35528102D01*
X79407205Y-35339744D01*
X79293937Y-35170226D01*
X79149774Y-35026063D01*
X78980256Y-34912795D01*
X78791898Y-34834774D01*
X78591939Y-34795000D01*
X78388061Y-34795000D01*
X78188102Y-34834774D01*
X77999744Y-34912795D01*
X77830226Y-35026063D01*
X77686063Y-35170226D01*
X77572795Y-35339744D01*
X77494774Y-35528102D01*
X77455000Y-35728061D01*
X77455000Y-35931939D01*
X77494774Y-36131898D01*
X77572795Y-36320256D01*
X77686063Y-36489774D01*
X77738742Y-36542453D01*
X77739026Y-36545339D01*
X77782598Y-36688976D01*
X77811290Y-36742655D01*
X77853355Y-36821354D01*
X77884656Y-36859494D01*
X77948578Y-36937384D01*
X77977654Y-36961246D01*
X81431000Y-40414593D01*
X81430999Y-44356470D01*
X81429180Y-44355498D01*
X81309482Y-44319188D01*
X81185000Y-44306928D01*
X80285000Y-44306928D01*
X80160518Y-44319188D01*
X80100000Y-44337546D01*
X80039482Y-44319188D01*
X79915000Y-44306928D01*
X79015000Y-44306928D01*
X78890518Y-44319188D01*
X78830000Y-44337546D01*
X78769482Y-44319188D01*
X78645000Y-44306928D01*
X77745000Y-44306928D01*
X77620518Y-44319188D01*
X77560000Y-44337546D01*
X77499482Y-44319188D01*
X77375000Y-44306928D01*
X76475000Y-44306928D01*
X76350518Y-44319188D01*
X76290000Y-44337546D01*
X76229482Y-44319188D01*
X76105000Y-44306928D01*
X75205000Y-44306928D01*
X75080518Y-44319188D01*
X75020000Y-44337546D01*
X74959482Y-44319188D01*
X74835000Y-44306928D01*
X73935000Y-44306928D01*
X73810518Y-44319188D01*
X73750000Y-44337546D01*
X73689482Y-44319188D01*
X73565000Y-44306928D01*
X72665000Y-44306928D01*
X72540518Y-44319188D01*
X72480000Y-44337546D01*
X72419482Y-44319188D01*
X72295000Y-44306928D01*
X71395000Y-44306928D01*
X71270518Y-44319188D01*
X71210000Y-44337546D01*
X71149482Y-44319188D01*
X71025000Y-44306928D01*
X70125000Y-44306928D01*
X70000518Y-44319188D01*
X69940000Y-44337546D01*
X69879482Y-44319188D01*
X69755000Y-44306928D01*
X69590750Y-44310000D01*
X69432000Y-44468750D01*
X69432000Y-45818000D01*
X69452000Y-45818000D01*
X69452000Y-46072000D01*
X69432000Y-46072000D01*
X69432000Y-47421250D01*
X69590750Y-47580000D01*
X69755000Y-47583072D01*
X69879482Y-47570812D01*
X69940000Y-47552454D01*
X70000518Y-47570812D01*
X70125000Y-47583072D01*
X71025000Y-47583072D01*
X71149482Y-47570812D01*
X71210000Y-47552454D01*
X71270518Y-47570812D01*
X71395000Y-47583072D01*
X72295000Y-47583072D01*
X72419482Y-47570812D01*
X72480000Y-47552454D01*
X72540518Y-47570812D01*
X72665000Y-47583072D01*
X73565000Y-47583072D01*
X73689482Y-47570812D01*
X73750000Y-47552454D01*
X73810518Y-47570812D01*
X73935000Y-47583072D01*
X74835000Y-47583072D01*
X74959482Y-47570812D01*
X75020000Y-47552454D01*
X75080518Y-47570812D01*
X75205000Y-47583072D01*
X75769297Y-47583072D01*
X73795442Y-49556928D01*
X72764558Y-49556928D01*
X72105284Y-48897654D01*
X72081422Y-48868578D01*
X71965392Y-48773355D01*
X71833015Y-48702598D01*
X71689378Y-48659026D01*
X71577426Y-48648000D01*
X71577423Y-48648000D01*
X71540000Y-48644314D01*
X71502577Y-48648000D01*
X69695631Y-48648000D01*
X68742000Y-47694370D01*
X68742000Y-47571943D01*
X68855000Y-47583072D01*
X69019250Y-47580000D01*
X69178000Y-47421250D01*
X69178000Y-46072000D01*
X69158000Y-46072000D01*
X69158000Y-45818000D01*
X69178000Y-45818000D01*
X69178000Y-44468750D01*
X69019250Y-44310000D01*
X68855000Y-44306928D01*
X68742000Y-44318057D01*
X68742000Y-44314240D01*
X68742154Y-44313457D01*
X68742000Y-44239841D01*
X68742000Y-44202574D01*
X68741920Y-44201765D01*
X68741840Y-44163356D01*
X68734583Y-44127268D01*
X68730974Y-44090622D01*
X68719821Y-44053856D01*
X68712249Y-44016200D01*
X68698090Y-43982219D01*
X68687402Y-43946985D01*
X68669292Y-43913104D01*
X68654518Y-43877646D01*
X68634000Y-43847077D01*
X68616645Y-43814608D01*
X68592277Y-43784915D01*
X68570866Y-43753016D01*
X68544777Y-43727037D01*
X68521422Y-43698578D01*
X68491724Y-43674205D01*
X68491155Y-43673639D01*
X68467253Y-43654106D01*
X68511898Y-43645226D01*
X68700256Y-43567205D01*
X68869774Y-43453937D01*
X68911711Y-43412000D01*
X75238289Y-43412000D01*
X75290226Y-43463937D01*
X75459744Y-43577205D01*
X75648102Y-43655226D01*
X75848061Y-43695000D01*
X76051939Y-43695000D01*
X76251898Y-43655226D01*
X76440256Y-43577205D01*
X76609774Y-43463937D01*
X76753937Y-43319774D01*
X76867205Y-43150256D01*
X76945226Y-42961898D01*
X76985000Y-42761939D01*
X76985000Y-42558061D01*
X76945226Y-42358102D01*
X76867205Y-42169744D01*
X76753937Y-42000226D01*
X76609774Y-41856063D01*
X76440256Y-41742795D01*
X76251898Y-41664774D01*
X76051939Y-41625000D01*
X75848061Y-41625000D01*
X75648102Y-41664774D01*
X75459744Y-41742795D01*
X75290226Y-41856063D01*
X75258289Y-41888000D01*
X68911711Y-41888000D01*
X68869774Y-41846063D01*
X68700256Y-41732795D01*
X68672295Y-41721213D01*
X68730256Y-41697205D01*
X68899774Y-41583937D01*
X68941711Y-41542000D01*
X74726176Y-41542000D01*
X74763602Y-41545686D01*
X74801027Y-41542000D01*
X74801028Y-41542000D01*
X74912980Y-41530974D01*
X75056617Y-41487402D01*
X75188994Y-41416645D01*
X75305024Y-41321422D01*
X75391135Y-41216495D01*
X75732630Y-40875000D01*
X75791939Y-40875000D01*
X75991898Y-40835226D01*
X76180256Y-40757205D01*
X76349774Y-40643937D01*
X76493937Y-40499774D01*
X76607205Y-40330256D01*
X76685226Y-40141898D01*
X76725000Y-39941939D01*
X76725000Y-39738061D01*
X76685226Y-39538102D01*
X76607205Y-39349744D01*
X76493937Y-39180226D01*
X76386598Y-39072887D01*
X76520000Y-39073072D01*
X76644482Y-39060812D01*
X76764180Y-39024502D01*
X76874494Y-38965537D01*
X76971185Y-38886185D01*
X77050537Y-38789494D01*
X77109502Y-38679180D01*
X77145812Y-38559482D01*
X77158072Y-38435000D01*
X77155000Y-36220750D01*
X76996250Y-36062000D01*
X74147000Y-36062000D01*
X74147000Y-38911250D01*
X74305750Y-39070000D01*
X74995332Y-39070957D01*
X74886063Y-39180226D01*
X74772795Y-39349744D01*
X74694774Y-39538102D01*
X74655000Y-39738061D01*
X74655000Y-39797370D01*
X74434370Y-40018000D01*
X68941711Y-40018000D01*
X68899774Y-39976063D01*
X68730256Y-39862795D01*
X68541898Y-39784774D01*
X68341939Y-39745000D01*
X68158072Y-39745000D01*
X68158072Y-39415000D01*
X68145812Y-39290518D01*
X68127454Y-39230000D01*
X68145812Y-39169482D01*
X68158072Y-39045000D01*
X68158072Y-38145000D01*
X68145812Y-38020518D01*
X68127454Y-37960000D01*
X68145812Y-37899482D01*
X68158072Y-37775000D01*
X68158072Y-36875000D01*
X68145812Y-36750518D01*
X68127454Y-36690000D01*
X68145812Y-36629482D01*
X68158072Y-36505000D01*
X68158072Y-35605000D01*
X68145812Y-35480518D01*
X68127454Y-35420000D01*
X68145812Y-35359482D01*
X68158072Y-35235000D01*
X68158072Y-34335000D01*
X68145812Y-34210518D01*
X68127454Y-34150000D01*
X68145812Y-34089482D01*
X68158072Y-33965000D01*
X68158072Y-33065000D01*
X68145812Y-32940518D01*
X68127454Y-32880000D01*
X68145812Y-32819482D01*
X68158072Y-32695000D01*
X68158072Y-31795000D01*
X68145812Y-31670518D01*
X68127454Y-31610000D01*
X68145812Y-31549482D01*
X68158072Y-31425000D01*
X68158072Y-31153230D01*
X68605001Y-31600159D01*
X68605000Y-37411289D01*
X68586063Y-37430226D01*
X68472795Y-37599744D01*
X68394774Y-37788102D01*
X68355000Y-37988061D01*
X68355000Y-38191939D01*
X68394774Y-38391898D01*
X68472795Y-38580256D01*
X68586063Y-38749774D01*
X68730226Y-38893937D01*
X68899744Y-39007205D01*
X69088102Y-39085226D01*
X69288061Y-39125000D01*
X69491939Y-39125000D01*
X69691898Y-39085226D01*
X69880256Y-39007205D01*
X70049774Y-38893937D01*
X70193937Y-38749774D01*
X70307205Y-38580256D01*
X70367372Y-38435000D01*
X70881928Y-38435000D01*
X70894188Y-38559482D01*
X70930498Y-38679180D01*
X70989463Y-38789494D01*
X71068815Y-38886185D01*
X71165506Y-38965537D01*
X71275820Y-39024502D01*
X71395518Y-39060812D01*
X71520000Y-39073072D01*
X73734250Y-39070000D01*
X73893000Y-38911250D01*
X73893000Y-36062000D01*
X71043750Y-36062000D01*
X70885000Y-36220750D01*
X70881928Y-38435000D01*
X70367372Y-38435000D01*
X70385226Y-38391898D01*
X70425000Y-38191939D01*
X70425000Y-37988061D01*
X70385226Y-37788102D01*
X70307205Y-37599744D01*
X70193937Y-37430226D01*
X70175000Y-37411289D01*
X70175000Y-33435000D01*
X70881928Y-33435000D01*
X70885000Y-35649250D01*
X71043750Y-35808000D01*
X73893000Y-35808000D01*
X73893000Y-32958750D01*
X74147000Y-32958750D01*
X74147000Y-35808000D01*
X76996250Y-35808000D01*
X77155000Y-35649250D01*
X77158072Y-33435000D01*
X77145812Y-33310518D01*
X77109502Y-33190820D01*
X77050537Y-33080506D01*
X76971185Y-32983815D01*
X76874494Y-32904463D01*
X76764180Y-32845498D01*
X76644482Y-32809188D01*
X76520000Y-32796928D01*
X74305750Y-32800000D01*
X74147000Y-32958750D01*
X73893000Y-32958750D01*
X73734250Y-32800000D01*
X71520000Y-32796928D01*
X71395518Y-32809188D01*
X71275820Y-32845498D01*
X71165506Y-32904463D01*
X71068815Y-32983815D01*
X70989463Y-33080506D01*
X70930498Y-33190820D01*
X70894188Y-33310518D01*
X70881928Y-33435000D01*
X70175000Y-33435000D01*
X70175000Y-31313552D01*
X70178797Y-31274999D01*
X70175000Y-31236446D01*
X70175000Y-31236439D01*
X70163641Y-31121113D01*
X70162346Y-31116842D01*
X70129504Y-31008579D01*
X70118754Y-30973140D01*
X70045862Y-30836767D01*
X69947764Y-30717236D01*
X69917816Y-30692658D01*
X68402345Y-29177188D01*
X68377764Y-29147236D01*
X68258233Y-29049138D01*
X68147724Y-28990070D01*
X68158072Y-28885000D01*
X68155000Y-28720750D01*
X67996250Y-28562000D01*
X66647000Y-28562000D01*
X66647000Y-28582000D01*
X66393000Y-28582000D01*
X66393000Y-28562000D01*
X65043750Y-28562000D01*
X64885000Y-28720750D01*
X64881928Y-28885000D01*
X64894188Y-29009482D01*
X64912546Y-29070000D01*
X64894188Y-29130518D01*
X64881928Y-29255000D01*
X64881928Y-29935000D01*
X64768061Y-29935000D01*
X64568102Y-29974774D01*
X64379744Y-30052795D01*
X64210226Y-30166063D01*
X64066063Y-30310226D01*
X63952795Y-30479744D01*
X63874774Y-30668102D01*
X63835000Y-30868061D01*
X63835000Y-31071939D01*
X63874774Y-31271898D01*
X63952795Y-31460256D01*
X64066063Y-31629774D01*
X64108000Y-31671711D01*
X64108001Y-32724368D01*
X63359375Y-33472994D01*
X63346912Y-33467832D01*
X63031033Y-33405000D01*
X62708967Y-33405000D01*
X62393088Y-33467832D01*
X62095537Y-33591082D01*
X61827748Y-33770013D01*
X61600013Y-33997748D01*
X61421082Y-34265537D01*
X61297832Y-34563088D01*
X61235000Y-34878967D01*
X61235000Y-35201033D01*
X61297832Y-35516912D01*
X61421082Y-35814463D01*
X61600013Y-36082252D01*
X61827748Y-36309987D01*
X62095537Y-36488918D01*
X62393088Y-36612168D01*
X62708967Y-36675000D01*
X63031033Y-36675000D01*
X63036212Y-36673970D01*
X62976595Y-36746614D01*
X62894528Y-36900150D01*
X62843992Y-37066746D01*
X62826928Y-37240000D01*
X62826928Y-37740000D01*
X62843992Y-37913254D01*
X62894528Y-38079850D01*
X62976595Y-38233386D01*
X63087038Y-38367962D01*
X63093594Y-38373342D01*
X63013815Y-38438815D01*
X62934463Y-38535506D01*
X62875498Y-38645820D01*
X62839188Y-38765518D01*
X62826928Y-38890000D01*
X62830000Y-39104250D01*
X62988750Y-39263000D01*
X64063000Y-39263000D01*
X64063000Y-39243000D01*
X64317000Y-39243000D01*
X64317000Y-39263000D01*
X64337000Y-39263000D01*
X64337000Y-39517000D01*
X64317000Y-39517000D01*
X64317000Y-40366250D01*
X64475750Y-40525000D01*
X64904054Y-40527995D01*
X64894188Y-40560518D01*
X64881928Y-40685000D01*
X64881928Y-41585000D01*
X64894188Y-41709482D01*
X64902080Y-41735498D01*
X64840608Y-41768355D01*
X64724578Y-41863578D01*
X64700721Y-41892648D01*
X63480653Y-43112717D01*
X63451577Y-43136579D01*
X63395982Y-43204323D01*
X63356354Y-43252609D01*
X63325799Y-43309774D01*
X63285597Y-43384987D01*
X63281362Y-43398949D01*
X63275226Y-43368102D01*
X63197205Y-43179744D01*
X63083937Y-43010226D01*
X62939774Y-42866063D01*
X62770256Y-42752795D01*
X62581898Y-42674774D01*
X62381939Y-42635000D01*
X62178061Y-42635000D01*
X61978102Y-42674774D01*
X61973462Y-42676696D01*
X62017816Y-42632342D01*
X62047764Y-42607764D01*
X62091578Y-42554378D01*
X62096762Y-42548061D01*
X62145862Y-42488233D01*
X62218754Y-42351860D01*
X62257821Y-42223072D01*
X62263641Y-42203888D01*
X62272343Y-42115537D01*
X62275000Y-42088561D01*
X62275000Y-42088554D01*
X62278797Y-42050001D01*
X62275000Y-42011448D01*
X62275000Y-39890000D01*
X62826928Y-39890000D01*
X62839188Y-40014482D01*
X62875498Y-40134180D01*
X62934463Y-40244494D01*
X63013815Y-40341185D01*
X63110506Y-40420537D01*
X63220820Y-40479502D01*
X63340518Y-40515812D01*
X63465000Y-40528072D01*
X63904250Y-40525000D01*
X64063000Y-40366250D01*
X64063000Y-39517000D01*
X62988750Y-39517000D01*
X62830000Y-39675750D01*
X62826928Y-39890000D01*
X62275000Y-39890000D01*
X62275000Y-39876554D01*
X62364180Y-39849502D01*
X62474494Y-39790537D01*
X62571185Y-39711185D01*
X62650537Y-39614494D01*
X62709502Y-39504180D01*
X62745812Y-39384482D01*
X62758072Y-39260000D01*
X62758072Y-37560000D01*
X62745812Y-37435518D01*
X62709502Y-37315820D01*
X62650537Y-37205506D01*
X62571185Y-37108815D01*
X62474494Y-37029463D01*
X62364180Y-36970498D01*
X62244482Y-36934188D01*
X62120000Y-36921928D01*
X60420000Y-36921928D01*
X60295518Y-36934188D01*
X60175820Y-36970498D01*
X60065506Y-37029463D01*
X59968815Y-37108815D01*
X59889463Y-37205506D01*
X59830498Y-37315820D01*
X59808487Y-37388380D01*
X59676632Y-37256525D01*
X59433411Y-37094010D01*
X59163158Y-36982068D01*
X58876260Y-36925000D01*
X58583740Y-36925000D01*
X58296842Y-36982068D01*
X58026589Y-37094010D01*
X57783368Y-37256525D01*
X57576525Y-37463368D01*
X57414010Y-37706589D01*
X57302068Y-37976842D01*
X57245000Y-38263740D01*
X55417478Y-38263740D01*
X55419282Y-36175413D01*
X57414192Y-36175413D01*
X57509956Y-36439814D01*
X57799571Y-36580704D01*
X58111108Y-36662384D01*
X58432595Y-36681718D01*
X58751675Y-36637961D01*
X59056088Y-36532795D01*
X59230044Y-36439814D01*
X59325808Y-36175413D01*
X58370000Y-35219605D01*
X57414192Y-36175413D01*
X55419282Y-36175413D01*
X55420209Y-35102595D01*
X56728282Y-35102595D01*
X56772039Y-35421675D01*
X56877205Y-35726088D01*
X56970186Y-35900044D01*
X57234587Y-35995808D01*
X58190395Y-35040000D01*
X58549605Y-35040000D01*
X59505413Y-35995808D01*
X59769814Y-35900044D01*
X59910704Y-35610429D01*
X59992384Y-35298892D01*
X60011718Y-34977405D01*
X59967961Y-34658325D01*
X59862795Y-34353912D01*
X59769814Y-34179956D01*
X59505413Y-34084192D01*
X58549605Y-35040000D01*
X58190395Y-35040000D01*
X57234587Y-34084192D01*
X56970186Y-34179956D01*
X56829296Y-34469571D01*
X56747616Y-34781108D01*
X56728282Y-35102595D01*
X55420209Y-35102595D01*
X55421243Y-33904587D01*
X57414192Y-33904587D01*
X58370000Y-34860395D01*
X59325808Y-33904587D01*
X59230044Y-33640186D01*
X58940429Y-33499296D01*
X58628892Y-33417616D01*
X58307405Y-33398282D01*
X57988325Y-33442039D01*
X57683912Y-33547205D01*
X57509956Y-33640186D01*
X57414192Y-33904587D01*
X55421243Y-33904587D01*
X55424897Y-29675413D01*
X57414192Y-29675413D01*
X57509956Y-29939814D01*
X57799571Y-30080704D01*
X58111108Y-30162384D01*
X58432595Y-30181718D01*
X58751675Y-30137961D01*
X59056088Y-30032795D01*
X59230044Y-29939814D01*
X59325808Y-29675413D01*
X58370000Y-28719605D01*
X57414192Y-29675413D01*
X55424897Y-29675413D01*
X55425824Y-28602595D01*
X56728282Y-28602595D01*
X56772039Y-28921675D01*
X56877205Y-29226088D01*
X56970186Y-29400044D01*
X57234587Y-29495808D01*
X58190395Y-28540000D01*
X58549605Y-28540000D01*
X59505413Y-29495808D01*
X59769814Y-29400044D01*
X59910704Y-29110429D01*
X59992384Y-28798892D01*
X60011718Y-28477405D01*
X59998219Y-28378967D01*
X61235000Y-28378967D01*
X61235000Y-28701033D01*
X61297832Y-29016912D01*
X61421082Y-29314463D01*
X61600013Y-29582252D01*
X61827748Y-29809987D01*
X62095537Y-29988918D01*
X62393088Y-30112168D01*
X62708967Y-30175000D01*
X63031033Y-30175000D01*
X63346912Y-30112168D01*
X63644463Y-29988918D01*
X63912252Y-29809987D01*
X64139987Y-29582252D01*
X64318918Y-29314463D01*
X64442168Y-29016912D01*
X64505000Y-28701033D01*
X64505000Y-28378967D01*
X64442168Y-28063088D01*
X64409823Y-27985000D01*
X64881928Y-27985000D01*
X64885000Y-28149250D01*
X65043750Y-28308000D01*
X66393000Y-28308000D01*
X66393000Y-27508750D01*
X66647000Y-27508750D01*
X66647000Y-28308000D01*
X67996250Y-28308000D01*
X68155000Y-28149250D01*
X68158072Y-27985000D01*
X81881928Y-27985000D01*
X81885000Y-28149250D01*
X82043750Y-28308000D01*
X83393000Y-28308000D01*
X83393000Y-27508750D01*
X83647000Y-27508750D01*
X83647000Y-28308000D01*
X84996250Y-28308000D01*
X85144250Y-28160000D01*
X85951928Y-28160000D01*
X85955000Y-28724250D01*
X86113750Y-28883000D01*
X87313000Y-28883000D01*
X87313000Y-27683750D01*
X87154250Y-27525000D01*
X86590000Y-27521928D01*
X86465518Y-27534188D01*
X86345820Y-27570498D01*
X86235506Y-27629463D01*
X86138815Y-27708815D01*
X86059463Y-27805506D01*
X86000498Y-27915820D01*
X85964188Y-28035518D01*
X85951928Y-28160000D01*
X85144250Y-28160000D01*
X85155000Y-28149250D01*
X85158072Y-27985000D01*
X85145812Y-27860518D01*
X85109502Y-27740820D01*
X85050537Y-27630506D01*
X84971185Y-27533815D01*
X84874494Y-27454463D01*
X84764180Y-27395498D01*
X84644482Y-27359188D01*
X84520000Y-27346928D01*
X83805750Y-27350000D01*
X83647000Y-27508750D01*
X83393000Y-27508750D01*
X83234250Y-27350000D01*
X82520000Y-27346928D01*
X82395518Y-27359188D01*
X82275820Y-27395498D01*
X82165506Y-27454463D01*
X82068815Y-27533815D01*
X81989463Y-27630506D01*
X81930498Y-27740820D01*
X81894188Y-27860518D01*
X81881928Y-27985000D01*
X68158072Y-27985000D01*
X68145812Y-27860518D01*
X68109502Y-27740820D01*
X68050537Y-27630506D01*
X67971185Y-27533815D01*
X67874494Y-27454463D01*
X67764180Y-27395498D01*
X67644482Y-27359188D01*
X67520000Y-27346928D01*
X66805750Y-27350000D01*
X66647000Y-27508750D01*
X66393000Y-27508750D01*
X66234250Y-27350000D01*
X65520000Y-27346928D01*
X65395518Y-27359188D01*
X65275820Y-27395498D01*
X65165506Y-27454463D01*
X65068815Y-27533815D01*
X64989463Y-27630506D01*
X64930498Y-27740820D01*
X64894188Y-27860518D01*
X64881928Y-27985000D01*
X64409823Y-27985000D01*
X64318918Y-27765537D01*
X64139987Y-27497748D01*
X63912252Y-27270013D01*
X63644463Y-27091082D01*
X63346912Y-26967832D01*
X63031033Y-26905000D01*
X62708967Y-26905000D01*
X62393088Y-26967832D01*
X62095537Y-27091082D01*
X61827748Y-27270013D01*
X61600013Y-27497748D01*
X61421082Y-27765537D01*
X61297832Y-28063088D01*
X61235000Y-28378967D01*
X59998219Y-28378967D01*
X59967961Y-28158325D01*
X59862795Y-27853912D01*
X59769814Y-27679956D01*
X59505413Y-27584192D01*
X58549605Y-28540000D01*
X58190395Y-28540000D01*
X57234587Y-27584192D01*
X56970186Y-27679956D01*
X56829296Y-27969571D01*
X56747616Y-28281108D01*
X56728282Y-28602595D01*
X55425824Y-28602595D01*
X55426859Y-27404587D01*
X57414192Y-27404587D01*
X58370000Y-28360395D01*
X59325808Y-27404587D01*
X59230044Y-27140186D01*
X58940429Y-26999296D01*
X58628892Y-26917616D01*
X58307405Y-26898282D01*
X57988325Y-26942039D01*
X57683912Y-27047205D01*
X57509956Y-27140186D01*
X57414192Y-27404587D01*
X55426859Y-27404587D01*
X55429971Y-23802571D01*
X55456256Y-23534495D01*
X55765000Y-23534495D01*
X55765000Y-23925505D01*
X55841282Y-24309003D01*
X55990915Y-24670250D01*
X56208149Y-24995364D01*
X56484636Y-25271851D01*
X56809750Y-25489085D01*
X57170997Y-25638718D01*
X57554495Y-25715000D01*
X57945505Y-25715000D01*
X58329003Y-25638718D01*
X58690250Y-25489085D01*
X59015364Y-25271851D01*
X59291851Y-24995364D01*
X59509085Y-24670250D01*
X59658718Y-24309003D01*
X59735000Y-23925505D01*
X59735000Y-23534495D01*
X59658718Y-23150997D01*
X59509085Y-22789750D01*
X59291851Y-22464636D01*
X59015364Y-22188149D01*
X58690250Y-21970915D01*
X58329003Y-21821282D01*
X57945505Y-21745000D01*
X57554495Y-21745000D01*
X57170997Y-21821282D01*
X56809750Y-21970915D01*
X56484636Y-22188149D01*
X56208149Y-22464636D01*
X55990915Y-22789750D01*
X55841282Y-23150997D01*
X55765000Y-23534495D01*
X55456256Y-23534495D01*
X55477670Y-23316107D01*
X55609489Y-22879502D01*
X55823600Y-22476815D01*
X56111848Y-22123388D01*
X56463261Y-21832673D01*
X56864439Y-21615758D01*
X57300113Y-21480894D01*
X57784344Y-21430000D01*
X62737721Y-21430000D01*
X63029659Y-21458625D01*
G37*
%TD.AperFunction*%
D22*
X78082038Y-48875462D02*
X78108891Y-48897500D01*
X78082038Y-48919538D01*
X77971595Y-49054113D01*
X77889528Y-49207648D01*
X77838992Y-49374244D01*
X77821928Y-49547498D01*
X77821928Y-50072502D01*
X77838992Y-50245756D01*
X77889528Y-50412352D01*
X77971595Y-50565887D01*
X78082038Y-50700462D01*
X78216613Y-50810905D01*
X78370148Y-50892972D01*
X78445001Y-50915678D01*
X78445000Y-51610473D01*
X78415150Y-51619528D01*
X78261614Y-51701595D01*
X78127038Y-51812038D01*
X78026126Y-51935000D01*
X74744132Y-51935000D01*
X74748072Y-51895000D01*
X74748072Y-50759558D01*
X76735631Y-48772000D01*
X77997129Y-48772000D01*
X78082038Y-48875462D01*
%TA.AperFunction,Conductor*%
D25*
G36*
X78082038Y-48875462D02*
G01*
X78108891Y-48897500D01*
X78082038Y-48919538D01*
X77971595Y-49054113D01*
X77889528Y-49207648D01*
X77838992Y-49374244D01*
X77821928Y-49547498D01*
X77821928Y-50072502D01*
X77838992Y-50245756D01*
X77889528Y-50412352D01*
X77971595Y-50565887D01*
X78082038Y-50700462D01*
X78216613Y-50810905D01*
X78370148Y-50892972D01*
X78445001Y-50915678D01*
X78445000Y-51610473D01*
X78415150Y-51619528D01*
X78261614Y-51701595D01*
X78127038Y-51812038D01*
X78026126Y-51935000D01*
X74744132Y-51935000D01*
X74748072Y-51895000D01*
X74748072Y-50759558D01*
X76735631Y-48772000D01*
X77997129Y-48772000D01*
X78082038Y-48875462D01*
G37*
%TD.AperFunction*%
D22*
X81440000Y-47684250D02*
X81598750Y-47843000D01*
X82673000Y-47843000D01*
X82673000Y-47823000D01*
X82927000Y-47823000D01*
X82927000Y-47843000D01*
X82947000Y-47843000D01*
X82947000Y-48097000D01*
X82927000Y-48097000D01*
X82927000Y-48117000D01*
X82673000Y-48117000D01*
X82673000Y-48097000D01*
X81598750Y-48097000D01*
X81440000Y-48255750D01*
X81436928Y-48470000D01*
X81449188Y-48594482D01*
X81485498Y-48714180D01*
X81544463Y-48824494D01*
X81623815Y-48921185D01*
X81703594Y-48986658D01*
X81697038Y-48992038D01*
X81669987Y-49025000D01*
X80324513Y-49025000D01*
X80237962Y-48919538D01*
X80211109Y-48897500D01*
X80237962Y-48875462D01*
X80348405Y-48740887D01*
X80430472Y-48587352D01*
X80481008Y-48420756D01*
X80498072Y-48247502D01*
X80498072Y-47722498D01*
X80484340Y-47583072D01*
X81185000Y-47583072D01*
X81309482Y-47570812D01*
X81429180Y-47534502D01*
X81437787Y-47529901D01*
X81440000Y-47684250D01*
%TA.AperFunction,Conductor*%
D25*
G36*
X81440000Y-47684250D02*
G01*
X81598750Y-47843000D01*
X82673000Y-47843000D01*
X82673000Y-47823000D01*
X82927000Y-47823000D01*
X82927000Y-47843000D01*
X82947000Y-47843000D01*
X82947000Y-48097000D01*
X82927000Y-48097000D01*
X82927000Y-48117000D01*
X82673000Y-48117000D01*
X82673000Y-48097000D01*
X81598750Y-48097000D01*
X81440000Y-48255750D01*
X81436928Y-48470000D01*
X81449188Y-48594482D01*
X81485498Y-48714180D01*
X81544463Y-48824494D01*
X81623815Y-48921185D01*
X81703594Y-48986658D01*
X81697038Y-48992038D01*
X81669987Y-49025000D01*
X80324513Y-49025000D01*
X80237962Y-48919538D01*
X80211109Y-48897500D01*
X80237962Y-48875462D01*
X80348405Y-48740887D01*
X80430472Y-48587352D01*
X80481008Y-48420756D01*
X80498072Y-48247502D01*
X80498072Y-47722498D01*
X80484340Y-47583072D01*
X81185000Y-47583072D01*
X81309482Y-47570812D01*
X81429180Y-47534502D01*
X81437787Y-47529901D01*
X81440000Y-47684250D01*
G37*
%TD.AperFunction*%
D22*
X88803311Y-43888050D02*
X88751487Y-44058889D01*
X88735561Y-44220590D01*
X86632000Y-42168796D01*
X86632000Y-41710445D01*
X88803311Y-43888050D01*
%TA.AperFunction,Conductor*%
D25*
G36*
X88803311Y-43888050D02*
G01*
X88751487Y-44058889D01*
X88735561Y-44220590D01*
X86632000Y-42168796D01*
X86632000Y-41710445D01*
X88803311Y-43888050D01*
G37*
%TD.AperFunction*%
%TD*%
M02*
