%TF.GenerationSoftware,KiCad,Pcbnew,(5.1.10)-1*%
%TF.CreationDate,2021-08-06T22:26:06+02:00*%
%TF.ProjectId,board,626f6172-642e-46b6-9963-61645f706362,0.2*%
%TF.SameCoordinates,Original*%
%TF.FileFunction,Paste,Top*%
%TF.FilePolarity,Positive*%
%FSLAX46Y46*%
G04 Gerber Fmt 4.6, Leading zero omitted, Abs format (unit mm)*
G04 Created by KiCad (PCBNEW (5.1.10)-1) date 2021-08-06 22:26:06*
%MOMM*%
%LPD*%
G01*
G04 APERTURE LIST*
%ADD10R,1.500000X2.000000*%
%ADD11R,3.800000X2.000000*%
%ADD12R,2.000000X0.900000*%
%ADD13R,0.900000X2.000000*%
%ADD14R,5.000000X5.000000*%
G04 APERTURE END LIST*
%TO.C,C1*%
G36*
G01*
X78765000Y-57980000D02*
X79715000Y-57980000D01*
G75*
G02*
X79965000Y-58230000I0J-250000D01*
G01*
X79965000Y-58730000D01*
G75*
G02*
X79715000Y-58980000I-250000J0D01*
G01*
X78765000Y-58980000D01*
G75*
G02*
X78515000Y-58730000I0J250000D01*
G01*
X78515000Y-58230000D01*
G75*
G02*
X78765000Y-57980000I250000J0D01*
G01*
G37*
G36*
G01*
X78765000Y-56080000D02*
X79715000Y-56080000D01*
G75*
G02*
X79965000Y-56330000I0J-250000D01*
G01*
X79965000Y-56830000D01*
G75*
G02*
X79715000Y-57080000I-250000J0D01*
G01*
X78765000Y-57080000D01*
G75*
G02*
X78515000Y-56830000I0J250000D01*
G01*
X78515000Y-56330000D01*
G75*
G02*
X78765000Y-56080000I250000J0D01*
G01*
G37*
%TD*%
%TO.C,R5*%
G36*
G01*
X64522500Y-54559998D02*
X64522500Y-55460002D01*
G75*
G02*
X64272502Y-55710000I-249998J0D01*
G01*
X63747498Y-55710000D01*
G75*
G02*
X63497500Y-55460002I0J249998D01*
G01*
X63497500Y-54559998D01*
G75*
G02*
X63747498Y-54310000I249998J0D01*
G01*
X64272502Y-54310000D01*
G75*
G02*
X64522500Y-54559998I0J-249998D01*
G01*
G37*
G36*
G01*
X62697500Y-54559998D02*
X62697500Y-55460002D01*
G75*
G02*
X62447502Y-55710000I-249998J0D01*
G01*
X61922498Y-55710000D01*
G75*
G02*
X61672500Y-55460002I0J249998D01*
G01*
X61672500Y-54559998D01*
G75*
G02*
X61922498Y-54310000I249998J0D01*
G01*
X62447502Y-54310000D01*
G75*
G02*
X62697500Y-54559998I0J-249998D01*
G01*
G37*
%TD*%
%TO.C,D3*%
G36*
G01*
X62637500Y-58433750D02*
X62637500Y-58946250D01*
G75*
G02*
X62418750Y-59165000I-218750J0D01*
G01*
X61981250Y-59165000D01*
G75*
G02*
X61762500Y-58946250I0J218750D01*
G01*
X61762500Y-58433750D01*
G75*
G02*
X61981250Y-58215000I218750J0D01*
G01*
X62418750Y-58215000D01*
G75*
G02*
X62637500Y-58433750I0J-218750D01*
G01*
G37*
G36*
G01*
X64212500Y-58433750D02*
X64212500Y-58946250D01*
G75*
G02*
X63993750Y-59165000I-218750J0D01*
G01*
X63556250Y-59165000D01*
G75*
G02*
X63337500Y-58946250I0J218750D01*
G01*
X63337500Y-58433750D01*
G75*
G02*
X63556250Y-58215000I218750J0D01*
G01*
X63993750Y-58215000D01*
G75*
G02*
X64212500Y-58433750I0J-218750D01*
G01*
G37*
%TD*%
%TO.C,D1*%
G36*
G01*
X67537500Y-58433750D02*
X67537500Y-58946250D01*
G75*
G02*
X67318750Y-59165000I-218750J0D01*
G01*
X66881250Y-59165000D01*
G75*
G02*
X66662500Y-58946250I0J218750D01*
G01*
X66662500Y-58433750D01*
G75*
G02*
X66881250Y-58215000I218750J0D01*
G01*
X67318750Y-58215000D01*
G75*
G02*
X67537500Y-58433750I0J-218750D01*
G01*
G37*
G36*
G01*
X69112500Y-58433750D02*
X69112500Y-58946250D01*
G75*
G02*
X68893750Y-59165000I-218750J0D01*
G01*
X68456250Y-59165000D01*
G75*
G02*
X68237500Y-58946250I0J218750D01*
G01*
X68237500Y-58433750D01*
G75*
G02*
X68456250Y-58215000I218750J0D01*
G01*
X68893750Y-58215000D01*
G75*
G02*
X69112500Y-58433750I0J-218750D01*
G01*
G37*
%TD*%
%TO.C,D2*%
G36*
G01*
X92356250Y-53437500D02*
X91843750Y-53437500D01*
G75*
G02*
X91625000Y-53218750I0J218750D01*
G01*
X91625000Y-52781250D01*
G75*
G02*
X91843750Y-52562500I218750J0D01*
G01*
X92356250Y-52562500D01*
G75*
G02*
X92575000Y-52781250I0J-218750D01*
G01*
X92575000Y-53218750D01*
G75*
G02*
X92356250Y-53437500I-218750J0D01*
G01*
G37*
G36*
G01*
X92356250Y-55012500D02*
X91843750Y-55012500D01*
G75*
G02*
X91625000Y-54793750I0J218750D01*
G01*
X91625000Y-54356250D01*
G75*
G02*
X91843750Y-54137500I218750J0D01*
G01*
X92356250Y-54137500D01*
G75*
G02*
X92575000Y-54356250I0J-218750D01*
G01*
X92575000Y-54793750D01*
G75*
G02*
X92356250Y-55012500I-218750J0D01*
G01*
G37*
%TD*%
%TO.C,R4*%
G36*
G01*
X67612500Y-54549998D02*
X67612500Y-55450002D01*
G75*
G02*
X67362502Y-55700000I-249998J0D01*
G01*
X66837498Y-55700000D01*
G75*
G02*
X66587500Y-55450002I0J249998D01*
G01*
X66587500Y-54549998D01*
G75*
G02*
X66837498Y-54300000I249998J0D01*
G01*
X67362502Y-54300000D01*
G75*
G02*
X67612500Y-54549998I0J-249998D01*
G01*
G37*
G36*
G01*
X69437500Y-54549998D02*
X69437500Y-55450002D01*
G75*
G02*
X69187502Y-55700000I-249998J0D01*
G01*
X68662498Y-55700000D01*
G75*
G02*
X68412500Y-55450002I0J249998D01*
G01*
X68412500Y-54549998D01*
G75*
G02*
X68662498Y-54300000I249998J0D01*
G01*
X69187502Y-54300000D01*
G75*
G02*
X69437500Y-54549998I0J-249998D01*
G01*
G37*
%TD*%
D10*
%TO.C,U2*%
X87650000Y-51900000D03*
X83050000Y-51900000D03*
X85350000Y-51900000D03*
D11*
X85350000Y-58200000D03*
%TD*%
D12*
%TO.C,U1*%
X83520000Y-28435000D03*
X83520000Y-29705000D03*
X83520000Y-30975000D03*
X83520000Y-32245000D03*
X83520000Y-33515000D03*
X83520000Y-34785000D03*
X83520000Y-36055000D03*
X83520000Y-37325000D03*
X83520000Y-38595000D03*
X83520000Y-39865000D03*
X83520000Y-41135000D03*
X83520000Y-42405000D03*
X83520000Y-43675000D03*
X83520000Y-44945000D03*
D13*
X80735000Y-45945000D03*
X79465000Y-45945000D03*
X78195000Y-45945000D03*
X76925000Y-45945000D03*
X75655000Y-45945000D03*
X74385000Y-45945000D03*
X73115000Y-45945000D03*
X71845000Y-45945000D03*
X70575000Y-45945000D03*
X69305000Y-45945000D03*
D12*
X66520000Y-44945000D03*
X66520000Y-43675000D03*
X66520000Y-42405000D03*
X66520000Y-41135000D03*
X66520000Y-39865000D03*
X66520000Y-38595000D03*
X66520000Y-37325000D03*
X66520000Y-36055000D03*
X66520000Y-34785000D03*
X66520000Y-33515000D03*
X66520000Y-32245000D03*
X66520000Y-30975000D03*
X66520000Y-29705000D03*
X66520000Y-28435000D03*
D14*
X74020000Y-35935000D03*
%TD*%
%TO.C,R3*%
G36*
G01*
X85510002Y-48547500D02*
X84609998Y-48547500D01*
G75*
G02*
X84360000Y-48297502I0J249998D01*
G01*
X84360000Y-47772498D01*
G75*
G02*
X84609998Y-47522500I249998J0D01*
G01*
X85510002Y-47522500D01*
G75*
G02*
X85760000Y-47772498I0J-249998D01*
G01*
X85760000Y-48297502D01*
G75*
G02*
X85510002Y-48547500I-249998J0D01*
G01*
G37*
G36*
G01*
X85510002Y-50372500D02*
X84609998Y-50372500D01*
G75*
G02*
X84360000Y-50122502I0J249998D01*
G01*
X84360000Y-49597498D01*
G75*
G02*
X84609998Y-49347500I249998J0D01*
G01*
X85510002Y-49347500D01*
G75*
G02*
X85760000Y-49597498I0J-249998D01*
G01*
X85760000Y-50122502D01*
G75*
G02*
X85510002Y-50372500I-249998J0D01*
G01*
G37*
%TD*%
%TO.C,R2*%
G36*
G01*
X89519998Y-54397500D02*
X90420002Y-54397500D01*
G75*
G02*
X90670000Y-54647498I0J-249998D01*
G01*
X90670000Y-55172502D01*
G75*
G02*
X90420002Y-55422500I-249998J0D01*
G01*
X89519998Y-55422500D01*
G75*
G02*
X89270000Y-55172502I0J249998D01*
G01*
X89270000Y-54647498D01*
G75*
G02*
X89519998Y-54397500I249998J0D01*
G01*
G37*
G36*
G01*
X89519998Y-52572500D02*
X90420002Y-52572500D01*
G75*
G02*
X90670000Y-52822498I0J-249998D01*
G01*
X90670000Y-53347502D01*
G75*
G02*
X90420002Y-53597500I-249998J0D01*
G01*
X89519998Y-53597500D01*
G75*
G02*
X89270000Y-53347502I0J249998D01*
G01*
X89270000Y-52822498D01*
G75*
G02*
X89519998Y-52572500I249998J0D01*
G01*
G37*
%TD*%
%TO.C,R1*%
G36*
G01*
X79610002Y-48497500D02*
X78709998Y-48497500D01*
G75*
G02*
X78460000Y-48247502I0J249998D01*
G01*
X78460000Y-47722498D01*
G75*
G02*
X78709998Y-47472500I249998J0D01*
G01*
X79610002Y-47472500D01*
G75*
G02*
X79860000Y-47722498I0J-249998D01*
G01*
X79860000Y-48247502D01*
G75*
G02*
X79610002Y-48497500I-249998J0D01*
G01*
G37*
G36*
G01*
X79610002Y-50322500D02*
X78709998Y-50322500D01*
G75*
G02*
X78460000Y-50072502I0J249998D01*
G01*
X78460000Y-49547498D01*
G75*
G02*
X78709998Y-49297500I249998J0D01*
G01*
X79610002Y-49297500D01*
G75*
G02*
X79860000Y-49547498I0J-249998D01*
G01*
X79860000Y-50072502D01*
G75*
G02*
X79610002Y-50322500I-249998J0D01*
G01*
G37*
%TD*%
%TO.C,C5*%
G36*
G01*
X83275000Y-48470000D02*
X82325000Y-48470000D01*
G75*
G02*
X82075000Y-48220000I0J250000D01*
G01*
X82075000Y-47720000D01*
G75*
G02*
X82325000Y-47470000I250000J0D01*
G01*
X83275000Y-47470000D01*
G75*
G02*
X83525000Y-47720000I0J-250000D01*
G01*
X83525000Y-48220000D01*
G75*
G02*
X83275000Y-48470000I-250000J0D01*
G01*
G37*
G36*
G01*
X83275000Y-50370000D02*
X82325000Y-50370000D01*
G75*
G02*
X82075000Y-50120000I0J250000D01*
G01*
X82075000Y-49620000D01*
G75*
G02*
X82325000Y-49370000I250000J0D01*
G01*
X83275000Y-49370000D01*
G75*
G02*
X83525000Y-49620000I0J-250000D01*
G01*
X83525000Y-50120000D01*
G75*
G02*
X83275000Y-50370000I-250000J0D01*
G01*
G37*
%TD*%
%TO.C,C4*%
G36*
G01*
X79705000Y-53190000D02*
X78755000Y-53190000D01*
G75*
G02*
X78505000Y-52940000I0J250000D01*
G01*
X78505000Y-52440000D01*
G75*
G02*
X78755000Y-52190000I250000J0D01*
G01*
X79705000Y-52190000D01*
G75*
G02*
X79955000Y-52440000I0J-250000D01*
G01*
X79955000Y-52940000D01*
G75*
G02*
X79705000Y-53190000I-250000J0D01*
G01*
G37*
G36*
G01*
X79705000Y-55090000D02*
X78755000Y-55090000D01*
G75*
G02*
X78505000Y-54840000I0J250000D01*
G01*
X78505000Y-54340000D01*
G75*
G02*
X78755000Y-54090000I250000J0D01*
G01*
X79705000Y-54090000D01*
G75*
G02*
X79955000Y-54340000I0J-250000D01*
G01*
X79955000Y-54840000D01*
G75*
G02*
X79705000Y-55090000I-250000J0D01*
G01*
G37*
%TD*%
%TO.C,C2*%
G36*
G01*
X64665000Y-37990000D02*
X63715000Y-37990000D01*
G75*
G02*
X63465000Y-37740000I0J250000D01*
G01*
X63465000Y-37240000D01*
G75*
G02*
X63715000Y-36990000I250000J0D01*
G01*
X64665000Y-36990000D01*
G75*
G02*
X64915000Y-37240000I0J-250000D01*
G01*
X64915000Y-37740000D01*
G75*
G02*
X64665000Y-37990000I-250000J0D01*
G01*
G37*
G36*
G01*
X64665000Y-39890000D02*
X63715000Y-39890000D01*
G75*
G02*
X63465000Y-39640000I0J250000D01*
G01*
X63465000Y-39140000D01*
G75*
G02*
X63715000Y-38890000I250000J0D01*
G01*
X64665000Y-38890000D01*
G75*
G02*
X64915000Y-39140000I0J-250000D01*
G01*
X64915000Y-39640000D01*
G75*
G02*
X64665000Y-39890000I-250000J0D01*
G01*
G37*
%TD*%
M02*
