M48
; DRILL file {KiCad (5.1.10)-1} date 08/06/21 22:26:13
; FORMAT={-:-/ absolute / inch / decimal}
; #@! TF.CreationDate,2021-08-06T22:26:13+02:00
; #@! TF.GenerationSoftware,Kicad,Pcbnew,(5.1.10)-1
FMAT,2
INCH
T1C0.0157
T2C0.0374
T3C0.0394
T4C0.0433
T5C0.1063
%
G90
G05
T1
X2.452Y-1.7193
X2.4537Y-1.8321
X2.548Y-1.7917
X2.5539Y-1.2193
X2.6189Y-1.8594
X2.6189Y-2.0707
X2.6854Y-1.6791
X2.6866Y-1.6055
X2.7319Y-1.4996
X2.9614Y-2.1091
X2.9799Y-1.5685
X2.9902Y-1.6795
X3.0244Y-2.0236
X3.0902Y-1.4106
X3.174Y-2.1087
X3.187Y-1.9043
X3.2043Y-1.6902
X3.2177Y-1.4697
X3.2189Y-1.5193
X3.3563Y-1.2362
X3.3575Y-1.4024
X3.3807Y-1.5398
X3.4055Y-1.9764
X3.4209Y-1.4953
X3.4476Y-1.6874
X3.5669Y-1.9764
T2
X2.3524Y-1.7024
X2.3524Y-1.8008
X2.3524Y-1.8992
X2.3524Y-1.9976
X2.6874Y-2.0146
X2.7858Y-2.0146
X2.8843Y-2.0146
X3.5567Y-1.5492
X3.5567Y-1.6476
X3.5567Y-1.7461
X3.5567Y-1.8445
T3
X2.3122Y-1.5122
X2.4122Y-1.5122
X2.863Y-2.189
X2.9614Y-2.189
X3.4425Y-1.1421
X3.4425Y-1.2421
X3.4425Y-1.3421
X3.5425Y-1.1421
X3.5425Y-1.2421
X3.5425Y-1.3421
T4
X2.298Y-1.1236
X2.298Y-1.3795
X2.4752Y-1.1236
X2.4752Y-1.3795
T5
X2.272Y-2.3043
X2.2736Y-0.9343
X3.635Y-0.9346
X3.6354Y-2.3039
T0
M30
