%TF.GenerationSoftware,KiCad,Pcbnew,(5.1.10)-1*%
%TF.CreationDate,2021-08-06T22:26:06+02:00*%
%TF.ProjectId,board,626f6172-642e-46b6-9963-61645f706362,0.2*%
%TF.SameCoordinates,Original*%
%TF.FileFunction,Copper,L2,Bot*%
%TF.FilePolarity,Positive*%
%FSLAX46Y46*%
G04 Gerber Fmt 4.6, Leading zero omitted, Abs format (unit mm)*
G04 Created by KiCad (PCBNEW (5.1.10)-1) date 2021-08-06 22:26:06*
%MOMM*%
%LPD*%
G01*
G04 APERTURE LIST*
%TA.AperFunction,ComponentPad*%
%ADD10C,2.000000*%
%TD*%
%TA.AperFunction,ComponentPad*%
%ADD11O,1.700000X1.700000*%
%TD*%
%TA.AperFunction,ComponentPad*%
%ADD12R,1.700000X1.700000*%
%TD*%
%TA.AperFunction,ComponentPad*%
%ADD13O,1.700000X2.000000*%
%TD*%
%TA.AperFunction,ComponentPad*%
%ADD14O,1.950000X1.700000*%
%TD*%
%TA.AperFunction,ComponentPad*%
%ADD15O,1.700000X1.950000*%
%TD*%
%TA.AperFunction,ViaPad*%
%ADD16C,0.800000*%
%TD*%
%TA.AperFunction,Conductor*%
%ADD17C,0.300000*%
%TD*%
%TA.AperFunction,Conductor*%
%ADD18C,0.254000*%
%TD*%
%TA.AperFunction,Conductor*%
%ADD19C,0.100000*%
%TD*%
G04 APERTURE END LIST*
D10*
%TO.P,SW1,1*%
%TO.N,GND*%
X58370000Y-28540000D03*
%TO.P,SW1,2*%
%TO.N,/RESET*%
X62870000Y-28540000D03*
%TO.P,SW1,1*%
%TO.N,GND*%
X58370000Y-35040000D03*
%TO.P,SW1,2*%
%TO.N,/RESET*%
X62870000Y-35040000D03*
%TD*%
D11*
%TO.P,J6,6*%
%TO.N,+3V3*%
X89980000Y-34090000D03*
%TO.P,J6,5*%
%TO.N,RX*%
X87440000Y-34090000D03*
%TO.P,J6,4*%
%TO.N,GPIO0*%
X89980000Y-31550000D03*
%TO.P,J6,3*%
%TO.N,TX*%
X87440000Y-31550000D03*
%TO.P,J6,2*%
%TO.N,Net-(J6-Pad2)*%
X89980000Y-29010000D03*
D12*
%TO.P,J6,1*%
%TO.N,GND*%
X87440000Y-29010000D03*
%TD*%
D13*
%TO.P,J5,2*%
%TO.N,VBUS*%
X75220000Y-55600000D03*
%TO.P,J5,1*%
%TO.N,GND*%
%TA.AperFunction,ComponentPad*%
G36*
G01*
X71870000Y-56350000D02*
X71870000Y-54850000D01*
G75*
G02*
X72120000Y-54600000I250000J0D01*
G01*
X73320000Y-54600000D01*
G75*
G02*
X73570000Y-54850000I0J-250000D01*
G01*
X73570000Y-56350000D01*
G75*
G02*
X73320000Y-56600000I-250000J0D01*
G01*
X72120000Y-56600000D01*
G75*
G02*
X71870000Y-56350000I0J250000D01*
G01*
G37*
%TD.AperFunction*%
%TD*%
D11*
%TO.P,J4,2*%
%TO.N,VBUS*%
X58730000Y-38410000D03*
D12*
%TO.P,J4,1*%
%TO.N,/RELAY_V*%
X61270000Y-38410000D03*
%TD*%
D14*
%TO.P,J3,4*%
%TO.N,/RELAY_V*%
X59750000Y-43240000D03*
%TO.P,J3,3*%
%TO.N,CH2*%
X59750000Y-45740000D03*
%TO.P,J3,2*%
%TO.N,CH1*%
X59750000Y-48240000D03*
%TO.P,J3,1*%
%TO.N,GND*%
%TA.AperFunction,ComponentPad*%
G36*
G01*
X60475000Y-51590000D02*
X59025000Y-51590000D01*
G75*
G02*
X58775000Y-51340000I0J250000D01*
G01*
X58775000Y-50140000D01*
G75*
G02*
X59025000Y-49890000I250000J0D01*
G01*
X60475000Y-49890000D01*
G75*
G02*
X60725000Y-50140000I0J-250000D01*
G01*
X60725000Y-51340000D01*
G75*
G02*
X60475000Y-51590000I-250000J0D01*
G01*
G37*
%TD.AperFunction*%
%TD*%
%TO.P,J2,4*%
%TO.N,SDA*%
X90340000Y-46850000D03*
%TO.P,J2,3*%
%TO.N,SCL*%
X90340000Y-44350000D03*
%TO.P,J2,2*%
%TO.N,+3V3*%
X90340000Y-41850000D03*
%TO.P,J2,1*%
%TO.N,GND*%
%TA.AperFunction,ComponentPad*%
G36*
G01*
X89615000Y-38500000D02*
X91065000Y-38500000D01*
G75*
G02*
X91315000Y-38750000I0J-250000D01*
G01*
X91315000Y-39950000D01*
G75*
G02*
X91065000Y-40200000I-250000J0D01*
G01*
X89615000Y-40200000D01*
G75*
G02*
X89365000Y-39950000I0J250000D01*
G01*
X89365000Y-38750000D01*
G75*
G02*
X89615000Y-38500000I250000J0D01*
G01*
G37*
%TD.AperFunction*%
%TD*%
D15*
%TO.P,J1,3*%
%TO.N,GND*%
X68260000Y-51170000D03*
%TO.P,J1,2*%
%TO.N,+3V3*%
X70760000Y-51170000D03*
%TO.P,J1,1*%
%TO.N,GPIO14*%
%TA.AperFunction,ComponentPad*%
G36*
G01*
X74110000Y-50445000D02*
X74110000Y-51895000D01*
G75*
G02*
X73860000Y-52145000I-250000J0D01*
G01*
X72660000Y-52145000D01*
G75*
G02*
X72410000Y-51895000I0J250000D01*
G01*
X72410000Y-50445000D01*
G75*
G02*
X72660000Y-50195000I250000J0D01*
G01*
X73860000Y-50195000D01*
G75*
G02*
X74110000Y-50445000I0J-250000D01*
G01*
G37*
%TD.AperFunction*%
%TD*%
D16*
%TO.N,GND*%
X64720000Y-45510000D03*
X87570000Y-42860000D03*
X81390000Y-42930000D03*
X76820000Y-51400000D03*
X80950000Y-48370000D03*
%TO.N,+3V3*%
X69390000Y-38090000D03*
X86500000Y-50200000D03*
X90600000Y-50200000D03*
%TO.N,SCL*%
X85250000Y-31400000D03*
X86890000Y-37980000D03*
%TO.N,SDA*%
X85870000Y-39110000D03*
X85280000Y-35620000D03*
%TO.N,CH2*%
X62280000Y-43670000D03*
X68240000Y-40780000D03*
X81730000Y-37330000D03*
X75690000Y-39840000D03*
%TO.N,CH1*%
X62325000Y-46535000D03*
X68210000Y-42650000D03*
X81760000Y-38590000D03*
X75950000Y-42660000D03*
%TO.N,VBUS*%
X80620000Y-53560000D03*
X75220000Y-53570000D03*
%TO.N,/RESET*%
X64870000Y-30970000D03*
X78490000Y-35830000D03*
%TO.N,SLED1*%
X66520000Y-47230000D03*
X66520000Y-52595000D03*
%TD*%
D17*
%TO.N,+3V3*%
X70790000Y-39490000D02*
X69390000Y-38090000D01*
X70790000Y-51290000D02*
X70790000Y-39490000D01*
X90600000Y-50200000D02*
X86500000Y-50200000D01*
D18*
%TO.N,SCL*%
X85250000Y-34080000D02*
X85250000Y-31400000D01*
X86890000Y-35720000D02*
X85250000Y-34080000D01*
X86890000Y-37980000D02*
X86890000Y-35720000D01*
%TO.N,SDA*%
X85280000Y-35620000D02*
X85870000Y-36210000D01*
X85870000Y-36210000D02*
X85870000Y-39110000D01*
%TO.N,CH2*%
X65170000Y-40780000D02*
X62280000Y-43670000D01*
X68240000Y-40780000D02*
X65170000Y-40780000D01*
X78200000Y-37330000D02*
X75690000Y-39840000D01*
X81730000Y-37330000D02*
X78200000Y-37330000D01*
%TO.N,CH1*%
X66210000Y-42650000D02*
X62325000Y-46535000D01*
X68210000Y-42650000D02*
X66210000Y-42650000D01*
X80020000Y-38590000D02*
X75950000Y-42660000D01*
X81760000Y-38590000D02*
X80020000Y-38590000D01*
D17*
%TO.N,VBUS*%
X56950000Y-40260000D02*
X58950000Y-38260000D01*
X56950000Y-51910000D02*
X56950000Y-40260000D01*
X76968546Y-53560000D02*
X77390000Y-53560000D01*
X77390000Y-53560000D02*
X80620000Y-53560000D01*
X58610000Y-53570000D02*
X75220000Y-53570000D01*
X56950000Y-51910000D02*
X58610000Y-53570000D01*
X75220000Y-53570000D02*
X76970000Y-53570000D01*
X75220000Y-53570000D02*
X75220000Y-55600000D01*
D18*
%TO.N,/RESET*%
X69730000Y-35830000D02*
X64870000Y-30970000D01*
X78490000Y-35830000D02*
X69730000Y-35830000D01*
X62870000Y-28970000D02*
X62870000Y-28540000D01*
X64870000Y-30970000D02*
X62870000Y-28970000D01*
%TO.N,SLED1*%
X66520000Y-47230000D02*
X66520000Y-52595000D01*
%TD*%
%TO.N,GND*%
X63029659Y-21458625D02*
X63279429Y-21534035D01*
X63509792Y-21656522D01*
X63711980Y-21821422D01*
X63878286Y-22022450D01*
X64002378Y-22251954D01*
X64079531Y-22501195D01*
X64112938Y-22819040D01*
X64112765Y-22843781D01*
X64113665Y-22852952D01*
X64154466Y-23241145D01*
X64166487Y-23299708D01*
X64177702Y-23358501D01*
X64180366Y-23367323D01*
X64295790Y-23740198D01*
X64318975Y-23795353D01*
X64341379Y-23850806D01*
X64345706Y-23858943D01*
X64531357Y-24202298D01*
X64564780Y-24251849D01*
X64597562Y-24301946D01*
X64603387Y-24309087D01*
X64852194Y-24609841D01*
X64894629Y-24651981D01*
X64936492Y-24694730D01*
X64943592Y-24700604D01*
X65246077Y-24947305D01*
X65295904Y-24980409D01*
X65345259Y-25014204D01*
X65353365Y-25018587D01*
X65698007Y-25201837D01*
X65753311Y-25224631D01*
X65808295Y-25248198D01*
X65817098Y-25250923D01*
X66190770Y-25363741D01*
X66249458Y-25375361D01*
X66307961Y-25387797D01*
X66317126Y-25388760D01*
X66705595Y-25426850D01*
X66705598Y-25426850D01*
X66737581Y-25430000D01*
X83332419Y-25430000D01*
X83361373Y-25427148D01*
X83373781Y-25427235D01*
X83382952Y-25426335D01*
X83771145Y-25385534D01*
X83829708Y-25373513D01*
X83888501Y-25362298D01*
X83897323Y-25359634D01*
X84270198Y-25244210D01*
X84325353Y-25221025D01*
X84380806Y-25198621D01*
X84388943Y-25194294D01*
X84732298Y-25008643D01*
X84781849Y-24975220D01*
X84831946Y-24942438D01*
X84839087Y-24936613D01*
X85139841Y-24687806D01*
X85181981Y-24645371D01*
X85224730Y-24603508D01*
X85230604Y-24596408D01*
X85477305Y-24293923D01*
X85510409Y-24244096D01*
X85544204Y-24194741D01*
X85548587Y-24186635D01*
X85731837Y-23841993D01*
X85754631Y-23786689D01*
X85778198Y-23731705D01*
X85780923Y-23722902D01*
X85834787Y-23544495D01*
X90345000Y-23544495D01*
X90345000Y-23935505D01*
X90421282Y-24319003D01*
X90570915Y-24680250D01*
X90788149Y-25005364D01*
X91064636Y-25281851D01*
X91389750Y-25499085D01*
X91750997Y-25648718D01*
X92134495Y-25725000D01*
X92525505Y-25725000D01*
X92909003Y-25648718D01*
X93270250Y-25499085D01*
X93595364Y-25281851D01*
X93871851Y-25005364D01*
X94089085Y-24680250D01*
X94238718Y-24319003D01*
X94315000Y-23935505D01*
X94315000Y-23544495D01*
X94238718Y-23160997D01*
X94089085Y-22799750D01*
X93871851Y-22474636D01*
X93595364Y-22198149D01*
X93270250Y-21980915D01*
X92909003Y-21831282D01*
X92525505Y-21755000D01*
X92134495Y-21755000D01*
X91750997Y-21831282D01*
X91389750Y-21980915D01*
X91064636Y-22198149D01*
X90788149Y-22474636D01*
X90570915Y-22799750D01*
X90421282Y-23160997D01*
X90345000Y-23544495D01*
X85834787Y-23544495D01*
X85893741Y-23349230D01*
X85905361Y-23290542D01*
X85917797Y-23232039D01*
X85918760Y-23222874D01*
X85956850Y-22834405D01*
X85988625Y-22510341D01*
X86064035Y-22260571D01*
X86186522Y-22030208D01*
X86351422Y-21828020D01*
X86552450Y-21661714D01*
X86781954Y-21537622D01*
X87031195Y-21460469D01*
X87321088Y-21430000D01*
X92267721Y-21430000D01*
X92753893Y-21477670D01*
X93190498Y-21609489D01*
X93593185Y-21823600D01*
X93946612Y-22111848D01*
X94237327Y-22463261D01*
X94454242Y-22864439D01*
X94589106Y-23300113D01*
X94640001Y-23784353D01*
X94640000Y-58467721D01*
X94592330Y-58953894D01*
X94460512Y-59390497D01*
X94246399Y-59793186D01*
X93958150Y-60146613D01*
X93606739Y-60437327D01*
X93205564Y-60654240D01*
X92769886Y-60789106D01*
X92285664Y-60840000D01*
X57772279Y-60840000D01*
X57286106Y-60792330D01*
X56849503Y-60660512D01*
X56446814Y-60446399D01*
X56093387Y-60158150D01*
X55802673Y-59806739D01*
X55585760Y-59405564D01*
X55450894Y-58969886D01*
X55400012Y-58485777D01*
X55400142Y-58334495D01*
X55725000Y-58334495D01*
X55725000Y-58725505D01*
X55801282Y-59109003D01*
X55950915Y-59470250D01*
X56168149Y-59795364D01*
X56444636Y-60071851D01*
X56769750Y-60289085D01*
X57130997Y-60438718D01*
X57514495Y-60515000D01*
X57905505Y-60515000D01*
X58289003Y-60438718D01*
X58650250Y-60289085D01*
X58975364Y-60071851D01*
X59251851Y-59795364D01*
X59469085Y-59470250D01*
X59618718Y-59109003D01*
X59695000Y-58725505D01*
X59695000Y-58334495D01*
X59693011Y-58324495D01*
X90355000Y-58324495D01*
X90355000Y-58715505D01*
X90431282Y-59099003D01*
X90580915Y-59460250D01*
X90798149Y-59785364D01*
X91074636Y-60061851D01*
X91399750Y-60279085D01*
X91760997Y-60428718D01*
X92144495Y-60505000D01*
X92535505Y-60505000D01*
X92919003Y-60428718D01*
X93280250Y-60279085D01*
X93605364Y-60061851D01*
X93881851Y-59785364D01*
X94099085Y-59460250D01*
X94248718Y-59099003D01*
X94325000Y-58715505D01*
X94325000Y-58324495D01*
X94248718Y-57940997D01*
X94099085Y-57579750D01*
X93881851Y-57254636D01*
X93605364Y-56978149D01*
X93280250Y-56760915D01*
X92919003Y-56611282D01*
X92535505Y-56535000D01*
X92144495Y-56535000D01*
X91760997Y-56611282D01*
X91399750Y-56760915D01*
X91074636Y-56978149D01*
X90798149Y-57254636D01*
X90580915Y-57579750D01*
X90431282Y-57940997D01*
X90355000Y-58324495D01*
X59693011Y-58324495D01*
X59618718Y-57950997D01*
X59469085Y-57589750D01*
X59251851Y-57264636D01*
X58975364Y-56988149D01*
X58650250Y-56770915D01*
X58289003Y-56621282D01*
X58182011Y-56600000D01*
X71231928Y-56600000D01*
X71244188Y-56724482D01*
X71280498Y-56844180D01*
X71339463Y-56954494D01*
X71418815Y-57051185D01*
X71515506Y-57130537D01*
X71625820Y-57189502D01*
X71745518Y-57225812D01*
X71870000Y-57238072D01*
X72434250Y-57235000D01*
X72593000Y-57076250D01*
X72593000Y-55727000D01*
X71393750Y-55727000D01*
X71235000Y-55885750D01*
X71231928Y-56600000D01*
X58182011Y-56600000D01*
X57905505Y-56545000D01*
X57514495Y-56545000D01*
X57130997Y-56621282D01*
X56769750Y-56770915D01*
X56444636Y-56988149D01*
X56168149Y-57264636D01*
X55950915Y-57589750D01*
X55801282Y-57950997D01*
X55725000Y-58334495D01*
X55400142Y-58334495D01*
X55415754Y-40260000D01*
X56161203Y-40260000D01*
X56165001Y-40298563D01*
X56165000Y-51871447D01*
X56161203Y-51910000D01*
X56165000Y-51948553D01*
X56165000Y-51948560D01*
X56176359Y-52063886D01*
X56221246Y-52211859D01*
X56294138Y-52348232D01*
X56392236Y-52467764D01*
X56422190Y-52492347D01*
X58027653Y-54097810D01*
X58052236Y-54127764D01*
X58171767Y-54225862D01*
X58289431Y-54288754D01*
X58308140Y-54298754D01*
X58456113Y-54343642D01*
X58531026Y-54351020D01*
X58571439Y-54355000D01*
X58571444Y-54355000D01*
X58610000Y-54358797D01*
X58648556Y-54355000D01*
X71280936Y-54355000D01*
X71280498Y-54355820D01*
X71244188Y-54475518D01*
X71231928Y-54600000D01*
X71235000Y-55314250D01*
X71393750Y-55473000D01*
X72593000Y-55473000D01*
X72593000Y-55453000D01*
X72847000Y-55453000D01*
X72847000Y-55473000D01*
X72867000Y-55473000D01*
X72867000Y-55727000D01*
X72847000Y-55727000D01*
X72847000Y-57076250D01*
X73005750Y-57235000D01*
X73570000Y-57238072D01*
X73694482Y-57225812D01*
X73814180Y-57189502D01*
X73924494Y-57130537D01*
X74021185Y-57051185D01*
X74100537Y-56954494D01*
X74159502Y-56844180D01*
X74170055Y-56809392D01*
X74390987Y-56990706D01*
X74648967Y-57128599D01*
X74928890Y-57213513D01*
X75220000Y-57242185D01*
X75511111Y-57213513D01*
X75791034Y-57128599D01*
X76049014Y-56990706D01*
X76275134Y-56805134D01*
X76460706Y-56579014D01*
X76598599Y-56321033D01*
X76683513Y-56041110D01*
X76705000Y-55822949D01*
X76705000Y-55377050D01*
X76683513Y-55158889D01*
X76598599Y-54878966D01*
X76460706Y-54620986D01*
X76275134Y-54394866D01*
X76226557Y-54355000D01*
X77008561Y-54355000D01*
X77110089Y-54345000D01*
X79941289Y-54345000D01*
X79960226Y-54363937D01*
X80129744Y-54477205D01*
X80318102Y-54555226D01*
X80518061Y-54595000D01*
X80721939Y-54595000D01*
X80921898Y-54555226D01*
X81110256Y-54477205D01*
X81279774Y-54363937D01*
X81423937Y-54219774D01*
X81537205Y-54050256D01*
X81615226Y-53861898D01*
X81655000Y-53661939D01*
X81655000Y-53458061D01*
X81615226Y-53258102D01*
X81537205Y-53069744D01*
X81423937Y-52900226D01*
X81279774Y-52756063D01*
X81110256Y-52642795D01*
X80921898Y-52564774D01*
X80721939Y-52525000D01*
X80518061Y-52525000D01*
X80318102Y-52564774D01*
X80129744Y-52642795D01*
X79960226Y-52756063D01*
X79941289Y-52775000D01*
X76929985Y-52775000D01*
X76828457Y-52785000D01*
X75898711Y-52785000D01*
X75879774Y-52766063D01*
X75710256Y-52652795D01*
X75521898Y-52574774D01*
X75321939Y-52535000D01*
X75118061Y-52535000D01*
X74918102Y-52574774D01*
X74729744Y-52652795D01*
X74560226Y-52766063D01*
X74541289Y-52785000D01*
X70782185Y-52785000D01*
X71051110Y-52758513D01*
X71331033Y-52673599D01*
X71589013Y-52535706D01*
X71815134Y-52350134D01*
X71867223Y-52286663D01*
X71921595Y-52388386D01*
X72032038Y-52522962D01*
X72166614Y-52633405D01*
X72320150Y-52715472D01*
X72486746Y-52766008D01*
X72660000Y-52783072D01*
X73860000Y-52783072D01*
X74033254Y-52766008D01*
X74199850Y-52715472D01*
X74353386Y-52633405D01*
X74487962Y-52522962D01*
X74598405Y-52388386D01*
X74680472Y-52234850D01*
X74731008Y-52068254D01*
X74748072Y-51895000D01*
X74748072Y-50445000D01*
X74731008Y-50271746D01*
X74680472Y-50105150D01*
X74676683Y-50098061D01*
X85465000Y-50098061D01*
X85465000Y-50301939D01*
X85504774Y-50501898D01*
X85582795Y-50690256D01*
X85696063Y-50859774D01*
X85840226Y-51003937D01*
X86009744Y-51117205D01*
X86198102Y-51195226D01*
X86398061Y-51235000D01*
X86601939Y-51235000D01*
X86801898Y-51195226D01*
X86990256Y-51117205D01*
X87159774Y-51003937D01*
X87178711Y-50985000D01*
X89921289Y-50985000D01*
X89940226Y-51003937D01*
X90109744Y-51117205D01*
X90298102Y-51195226D01*
X90498061Y-51235000D01*
X90701939Y-51235000D01*
X90901898Y-51195226D01*
X91090256Y-51117205D01*
X91259774Y-51003937D01*
X91403937Y-50859774D01*
X91517205Y-50690256D01*
X91595226Y-50501898D01*
X91635000Y-50301939D01*
X91635000Y-50098061D01*
X91595226Y-49898102D01*
X91517205Y-49709744D01*
X91403937Y-49540226D01*
X91259774Y-49396063D01*
X91090256Y-49282795D01*
X90901898Y-49204774D01*
X90701939Y-49165000D01*
X90498061Y-49165000D01*
X90298102Y-49204774D01*
X90109744Y-49282795D01*
X89940226Y-49396063D01*
X89921289Y-49415000D01*
X87178711Y-49415000D01*
X87159774Y-49396063D01*
X86990256Y-49282795D01*
X86801898Y-49204774D01*
X86601939Y-49165000D01*
X86398061Y-49165000D01*
X86198102Y-49204774D01*
X86009744Y-49282795D01*
X85840226Y-49396063D01*
X85696063Y-49540226D01*
X85582795Y-49709744D01*
X85504774Y-49898102D01*
X85465000Y-50098061D01*
X74676683Y-50098061D01*
X74598405Y-49951614D01*
X74487962Y-49817038D01*
X74353386Y-49706595D01*
X74199850Y-49624528D01*
X74033254Y-49573992D01*
X73860000Y-49556928D01*
X72660000Y-49556928D01*
X72486746Y-49573992D01*
X72320150Y-49624528D01*
X72166614Y-49706595D01*
X72032038Y-49817038D01*
X71921595Y-49951614D01*
X71867223Y-50053337D01*
X71815134Y-49989866D01*
X71589014Y-49804294D01*
X71575000Y-49796803D01*
X71575000Y-39528555D01*
X71578797Y-39490000D01*
X71575000Y-39451444D01*
X71575000Y-39451439D01*
X71571020Y-39411026D01*
X71563642Y-39336113D01*
X71518754Y-39188140D01*
X71485005Y-39125000D01*
X71445862Y-39051767D01*
X71347764Y-38932236D01*
X71317816Y-38907658D01*
X70425000Y-38014843D01*
X70425000Y-37988061D01*
X70385226Y-37788102D01*
X70307205Y-37599744D01*
X70193937Y-37430226D01*
X70049774Y-37286063D01*
X69880256Y-37172795D01*
X69691898Y-37094774D01*
X69491939Y-37055000D01*
X69288061Y-37055000D01*
X69088102Y-37094774D01*
X68899744Y-37172795D01*
X68730226Y-37286063D01*
X68586063Y-37430226D01*
X68472795Y-37599744D01*
X68394774Y-37788102D01*
X68355000Y-37988061D01*
X68355000Y-38191939D01*
X68394774Y-38391898D01*
X68472795Y-38580256D01*
X68586063Y-38749774D01*
X68730226Y-38893937D01*
X68899744Y-39007205D01*
X69088102Y-39085226D01*
X69288061Y-39125000D01*
X69314843Y-39125000D01*
X70005001Y-39815159D01*
X70005000Y-49764733D01*
X69930987Y-49804294D01*
X69704866Y-49989866D01*
X69519294Y-50215986D01*
X69505538Y-50241722D01*
X69349049Y-50035571D01*
X69131193Y-49842504D01*
X68879858Y-49695648D01*
X68616890Y-49603524D01*
X68387000Y-49724845D01*
X68387000Y-51043000D01*
X68407000Y-51043000D01*
X68407000Y-51297000D01*
X68387000Y-51297000D01*
X68387000Y-52615155D01*
X68616890Y-52736476D01*
X68879858Y-52644352D01*
X69131193Y-52497496D01*
X69349049Y-52304429D01*
X69505538Y-52098278D01*
X69519294Y-52124013D01*
X69704866Y-52350134D01*
X69930986Y-52535706D01*
X70188966Y-52673599D01*
X70468889Y-52758513D01*
X70737815Y-52785000D01*
X67537484Y-52785000D01*
X67555000Y-52696939D01*
X67555000Y-52594603D01*
X67640142Y-52644352D01*
X67903110Y-52736476D01*
X68133000Y-52615155D01*
X68133000Y-51297000D01*
X68113000Y-51297000D01*
X68113000Y-51043000D01*
X68133000Y-51043000D01*
X68133000Y-49724845D01*
X67903110Y-49603524D01*
X67640142Y-49695648D01*
X67388807Y-49842504D01*
X67282000Y-49937158D01*
X67282000Y-47931711D01*
X67323937Y-47889774D01*
X67437205Y-47720256D01*
X67515226Y-47531898D01*
X67555000Y-47331939D01*
X67555000Y-47128061D01*
X67515226Y-46928102D01*
X67437205Y-46739744D01*
X67323937Y-46570226D01*
X67179774Y-46426063D01*
X67010256Y-46312795D01*
X66821898Y-46234774D01*
X66621939Y-46195000D01*
X66418061Y-46195000D01*
X66218102Y-46234774D01*
X66029744Y-46312795D01*
X65860226Y-46426063D01*
X65716063Y-46570226D01*
X65602795Y-46739744D01*
X65524774Y-46928102D01*
X65485000Y-47128061D01*
X65485000Y-47331939D01*
X65524774Y-47531898D01*
X65602795Y-47720256D01*
X65716063Y-47889774D01*
X65758000Y-47931711D01*
X65758001Y-51893288D01*
X65716063Y-51935226D01*
X65602795Y-52104744D01*
X65524774Y-52293102D01*
X65485000Y-52493061D01*
X65485000Y-52696939D01*
X65502516Y-52785000D01*
X58935157Y-52785000D01*
X57740157Y-51590000D01*
X58136928Y-51590000D01*
X58149188Y-51714482D01*
X58185498Y-51834180D01*
X58244463Y-51944494D01*
X58323815Y-52041185D01*
X58420506Y-52120537D01*
X58530820Y-52179502D01*
X58650518Y-52215812D01*
X58775000Y-52228072D01*
X59464250Y-52225000D01*
X59623000Y-52066250D01*
X59623000Y-50867000D01*
X59877000Y-50867000D01*
X59877000Y-52066250D01*
X60035750Y-52225000D01*
X60725000Y-52228072D01*
X60849482Y-52215812D01*
X60969180Y-52179502D01*
X61079494Y-52120537D01*
X61176185Y-52041185D01*
X61255537Y-51944494D01*
X61314502Y-51834180D01*
X61350812Y-51714482D01*
X61363072Y-51590000D01*
X61360000Y-51025750D01*
X61201250Y-50867000D01*
X59877000Y-50867000D01*
X59623000Y-50867000D01*
X58298750Y-50867000D01*
X58140000Y-51025750D01*
X58136928Y-51590000D01*
X57740157Y-51590000D01*
X57735000Y-51584843D01*
X57735000Y-43240000D01*
X58132815Y-43240000D01*
X58161487Y-43531111D01*
X58246401Y-43811034D01*
X58384294Y-44069014D01*
X58569866Y-44295134D01*
X58795986Y-44480706D01*
X58813374Y-44490000D01*
X58795986Y-44499294D01*
X58569866Y-44684866D01*
X58384294Y-44910986D01*
X58246401Y-45168966D01*
X58161487Y-45448889D01*
X58132815Y-45740000D01*
X58161487Y-46031111D01*
X58246401Y-46311034D01*
X58384294Y-46569014D01*
X58569866Y-46795134D01*
X58795986Y-46980706D01*
X58813374Y-46990000D01*
X58795986Y-46999294D01*
X58569866Y-47184866D01*
X58384294Y-47410986D01*
X58246401Y-47668966D01*
X58161487Y-47948889D01*
X58132815Y-48240000D01*
X58161487Y-48531111D01*
X58246401Y-48811034D01*
X58384294Y-49069014D01*
X58565608Y-49289945D01*
X58530820Y-49300498D01*
X58420506Y-49359463D01*
X58323815Y-49438815D01*
X58244463Y-49535506D01*
X58185498Y-49645820D01*
X58149188Y-49765518D01*
X58136928Y-49890000D01*
X58140000Y-50454250D01*
X58298750Y-50613000D01*
X59623000Y-50613000D01*
X59623000Y-50593000D01*
X59877000Y-50593000D01*
X59877000Y-50613000D01*
X61201250Y-50613000D01*
X61360000Y-50454250D01*
X61363072Y-49890000D01*
X61350812Y-49765518D01*
X61314502Y-49645820D01*
X61255537Y-49535506D01*
X61176185Y-49438815D01*
X61079494Y-49359463D01*
X60969180Y-49300498D01*
X60934392Y-49289945D01*
X61115706Y-49069014D01*
X61253599Y-48811034D01*
X61338513Y-48531111D01*
X61367185Y-48240000D01*
X61338513Y-47948889D01*
X61253599Y-47668966D01*
X61115706Y-47410986D01*
X60930134Y-47184866D01*
X60704014Y-46999294D01*
X60686626Y-46990000D01*
X60704014Y-46980706D01*
X60930134Y-46795134D01*
X61115706Y-46569014D01*
X61253599Y-46311034D01*
X61338513Y-46031111D01*
X61367185Y-45740000D01*
X61338513Y-45448889D01*
X61253599Y-45168966D01*
X61115706Y-44910986D01*
X60930134Y-44684866D01*
X60704014Y-44499294D01*
X60686626Y-44490000D01*
X60704014Y-44480706D01*
X60930134Y-44295134D01*
X61115706Y-44069014D01*
X61253000Y-43812156D01*
X61284774Y-43971898D01*
X61362795Y-44160256D01*
X61476063Y-44329774D01*
X61620226Y-44473937D01*
X61789744Y-44587205D01*
X61978102Y-44665226D01*
X62178061Y-44705000D01*
X62381939Y-44705000D01*
X62581898Y-44665226D01*
X62770256Y-44587205D01*
X62939774Y-44473937D01*
X63083937Y-44329774D01*
X63197205Y-44160256D01*
X63275226Y-43971898D01*
X63315000Y-43771939D01*
X63315000Y-43712630D01*
X65485631Y-41542000D01*
X67538289Y-41542000D01*
X67580226Y-41583937D01*
X67749744Y-41697205D01*
X67777705Y-41708787D01*
X67719744Y-41732795D01*
X67550226Y-41846063D01*
X67508289Y-41888000D01*
X66247423Y-41888000D01*
X66210000Y-41884314D01*
X66172577Y-41888000D01*
X66172574Y-41888000D01*
X66060622Y-41899026D01*
X65916985Y-41942598D01*
X65855364Y-41975535D01*
X65784607Y-42013355D01*
X65742219Y-42048143D01*
X65668578Y-42108578D01*
X65644716Y-42137654D01*
X62282370Y-45500000D01*
X62223061Y-45500000D01*
X62023102Y-45539774D01*
X61834744Y-45617795D01*
X61665226Y-45731063D01*
X61521063Y-45875226D01*
X61407795Y-46044744D01*
X61329774Y-46233102D01*
X61290000Y-46433061D01*
X61290000Y-46636939D01*
X61329774Y-46836898D01*
X61407795Y-47025256D01*
X61521063Y-47194774D01*
X61665226Y-47338937D01*
X61834744Y-47452205D01*
X62023102Y-47530226D01*
X62223061Y-47570000D01*
X62426939Y-47570000D01*
X62626898Y-47530226D01*
X62815256Y-47452205D01*
X62984774Y-47338937D01*
X63128937Y-47194774D01*
X63242205Y-47025256D01*
X63320226Y-46836898D01*
X63360000Y-46636939D01*
X63360000Y-46577630D01*
X66525630Y-43412000D01*
X67508289Y-43412000D01*
X67550226Y-43453937D01*
X67719744Y-43567205D01*
X67908102Y-43645226D01*
X68108061Y-43685000D01*
X68311939Y-43685000D01*
X68511898Y-43645226D01*
X68700256Y-43567205D01*
X68869774Y-43453937D01*
X69013937Y-43309774D01*
X69127205Y-43140256D01*
X69205226Y-42951898D01*
X69245000Y-42751939D01*
X69245000Y-42548061D01*
X69205226Y-42348102D01*
X69127205Y-42159744D01*
X69013937Y-41990226D01*
X68869774Y-41846063D01*
X68700256Y-41732795D01*
X68672295Y-41721213D01*
X68730256Y-41697205D01*
X68899774Y-41583937D01*
X69043937Y-41439774D01*
X69157205Y-41270256D01*
X69235226Y-41081898D01*
X69275000Y-40881939D01*
X69275000Y-40678061D01*
X69235226Y-40478102D01*
X69157205Y-40289744D01*
X69043937Y-40120226D01*
X68899774Y-39976063D01*
X68730256Y-39862795D01*
X68541898Y-39784774D01*
X68341939Y-39745000D01*
X68138061Y-39745000D01*
X67938102Y-39784774D01*
X67749744Y-39862795D01*
X67580226Y-39976063D01*
X67538289Y-40018000D01*
X65207422Y-40018000D01*
X65169999Y-40014314D01*
X65132576Y-40018000D01*
X65132574Y-40018000D01*
X65020622Y-40029026D01*
X64876985Y-40072598D01*
X64744608Y-40143355D01*
X64628578Y-40238578D01*
X64604721Y-40267648D01*
X62237370Y-42635000D01*
X62178061Y-42635000D01*
X61978102Y-42674774D01*
X61789744Y-42752795D01*
X61620226Y-42866063D01*
X61476063Y-43010226D01*
X61362795Y-43179744D01*
X61361547Y-43182757D01*
X61338513Y-42948889D01*
X61253599Y-42668966D01*
X61115706Y-42410986D01*
X60930134Y-42184866D01*
X60704014Y-41999294D01*
X60446034Y-41861401D01*
X60166111Y-41776487D01*
X59947950Y-41755000D01*
X59552050Y-41755000D01*
X59333889Y-41776487D01*
X59053966Y-41861401D01*
X58795986Y-41999294D01*
X58569866Y-42184866D01*
X58384294Y-42410986D01*
X58246401Y-42668966D01*
X58161487Y-42948889D01*
X58132815Y-43240000D01*
X57735000Y-43240000D01*
X57735000Y-40585157D01*
X58451468Y-39868689D01*
X58583740Y-39895000D01*
X58876260Y-39895000D01*
X59163158Y-39837932D01*
X59433411Y-39725990D01*
X59676632Y-39563475D01*
X59808487Y-39431620D01*
X59830498Y-39504180D01*
X59889463Y-39614494D01*
X59968815Y-39711185D01*
X60065506Y-39790537D01*
X60175820Y-39849502D01*
X60295518Y-39885812D01*
X60420000Y-39898072D01*
X62120000Y-39898072D01*
X62244482Y-39885812D01*
X62364180Y-39849502D01*
X62474494Y-39790537D01*
X62571185Y-39711185D01*
X62650537Y-39614494D01*
X62709502Y-39504180D01*
X62745812Y-39384482D01*
X62758072Y-39260000D01*
X62758072Y-37560000D01*
X62745812Y-37435518D01*
X62709502Y-37315820D01*
X62650537Y-37205506D01*
X62571185Y-37108815D01*
X62474494Y-37029463D01*
X62364180Y-36970498D01*
X62244482Y-36934188D01*
X62120000Y-36921928D01*
X60420000Y-36921928D01*
X60295518Y-36934188D01*
X60175820Y-36970498D01*
X60065506Y-37029463D01*
X59968815Y-37108815D01*
X59889463Y-37205506D01*
X59830498Y-37315820D01*
X59808487Y-37388380D01*
X59676632Y-37256525D01*
X59433411Y-37094010D01*
X59163158Y-36982068D01*
X58876260Y-36925000D01*
X58583740Y-36925000D01*
X58296842Y-36982068D01*
X58026589Y-37094010D01*
X57783368Y-37256525D01*
X57576525Y-37463368D01*
X57414010Y-37706589D01*
X57302068Y-37976842D01*
X57245000Y-38263740D01*
X57245000Y-38556260D01*
X57294538Y-38805304D01*
X56422185Y-39677658D01*
X56392237Y-39702236D01*
X56367659Y-39732184D01*
X56367655Y-39732188D01*
X56357141Y-39745000D01*
X56294139Y-39821767D01*
X56265319Y-39875686D01*
X56221246Y-39958141D01*
X56176359Y-40106114D01*
X56161203Y-40260000D01*
X55415754Y-40260000D01*
X55419282Y-36175413D01*
X57414192Y-36175413D01*
X57509956Y-36439814D01*
X57799571Y-36580704D01*
X58111108Y-36662384D01*
X58432595Y-36681718D01*
X58751675Y-36637961D01*
X59056088Y-36532795D01*
X59230044Y-36439814D01*
X59325808Y-36175413D01*
X58370000Y-35219605D01*
X57414192Y-36175413D01*
X55419282Y-36175413D01*
X55420209Y-35102595D01*
X56728282Y-35102595D01*
X56772039Y-35421675D01*
X56877205Y-35726088D01*
X56970186Y-35900044D01*
X57234587Y-35995808D01*
X58190395Y-35040000D01*
X58549605Y-35040000D01*
X59505413Y-35995808D01*
X59769814Y-35900044D01*
X59910704Y-35610429D01*
X59992384Y-35298892D01*
X60011718Y-34977405D01*
X59998219Y-34878967D01*
X61235000Y-34878967D01*
X61235000Y-35201033D01*
X61297832Y-35516912D01*
X61421082Y-35814463D01*
X61600013Y-36082252D01*
X61827748Y-36309987D01*
X62095537Y-36488918D01*
X62393088Y-36612168D01*
X62708967Y-36675000D01*
X63031033Y-36675000D01*
X63346912Y-36612168D01*
X63644463Y-36488918D01*
X63912252Y-36309987D01*
X64139987Y-36082252D01*
X64318918Y-35814463D01*
X64442168Y-35516912D01*
X64505000Y-35201033D01*
X64505000Y-34878967D01*
X64442168Y-34563088D01*
X64318918Y-34265537D01*
X64139987Y-33997748D01*
X63912252Y-33770013D01*
X63644463Y-33591082D01*
X63346912Y-33467832D01*
X63031033Y-33405000D01*
X62708967Y-33405000D01*
X62393088Y-33467832D01*
X62095537Y-33591082D01*
X61827748Y-33770013D01*
X61600013Y-33997748D01*
X61421082Y-34265537D01*
X61297832Y-34563088D01*
X61235000Y-34878967D01*
X59998219Y-34878967D01*
X59967961Y-34658325D01*
X59862795Y-34353912D01*
X59769814Y-34179956D01*
X59505413Y-34084192D01*
X58549605Y-35040000D01*
X58190395Y-35040000D01*
X57234587Y-34084192D01*
X56970186Y-34179956D01*
X56829296Y-34469571D01*
X56747616Y-34781108D01*
X56728282Y-35102595D01*
X55420209Y-35102595D01*
X55421243Y-33904587D01*
X57414192Y-33904587D01*
X58370000Y-34860395D01*
X59325808Y-33904587D01*
X59230044Y-33640186D01*
X58940429Y-33499296D01*
X58628892Y-33417616D01*
X58307405Y-33398282D01*
X57988325Y-33442039D01*
X57683912Y-33547205D01*
X57509956Y-33640186D01*
X57414192Y-33904587D01*
X55421243Y-33904587D01*
X55424897Y-29675413D01*
X57414192Y-29675413D01*
X57509956Y-29939814D01*
X57799571Y-30080704D01*
X58111108Y-30162384D01*
X58432595Y-30181718D01*
X58751675Y-30137961D01*
X59056088Y-30032795D01*
X59230044Y-29939814D01*
X59325808Y-29675413D01*
X58370000Y-28719605D01*
X57414192Y-29675413D01*
X55424897Y-29675413D01*
X55425824Y-28602595D01*
X56728282Y-28602595D01*
X56772039Y-28921675D01*
X56877205Y-29226088D01*
X56970186Y-29400044D01*
X57234587Y-29495808D01*
X58190395Y-28540000D01*
X58549605Y-28540000D01*
X59505413Y-29495808D01*
X59769814Y-29400044D01*
X59910704Y-29110429D01*
X59992384Y-28798892D01*
X60011718Y-28477405D01*
X59998219Y-28378967D01*
X61235000Y-28378967D01*
X61235000Y-28701033D01*
X61297832Y-29016912D01*
X61421082Y-29314463D01*
X61600013Y-29582252D01*
X61827748Y-29809987D01*
X62095537Y-29988918D01*
X62393088Y-30112168D01*
X62708967Y-30175000D01*
X62997370Y-30175000D01*
X63835000Y-31012631D01*
X63835000Y-31071939D01*
X63874774Y-31271898D01*
X63952795Y-31460256D01*
X64066063Y-31629774D01*
X64210226Y-31773937D01*
X64379744Y-31887205D01*
X64568102Y-31965226D01*
X64768061Y-32005000D01*
X64827370Y-32005000D01*
X69164721Y-36342352D01*
X69188578Y-36371422D01*
X69217648Y-36395279D01*
X69304607Y-36466645D01*
X69347879Y-36489774D01*
X69436985Y-36537402D01*
X69580622Y-36580974D01*
X69692574Y-36592000D01*
X69692577Y-36592000D01*
X69730000Y-36595686D01*
X69767423Y-36592000D01*
X77788289Y-36592000D01*
X77830226Y-36633937D01*
X77854912Y-36650432D01*
X77774608Y-36693355D01*
X77658578Y-36788578D01*
X77634721Y-36817648D01*
X75647370Y-38805000D01*
X75588061Y-38805000D01*
X75388102Y-38844774D01*
X75199744Y-38922795D01*
X75030226Y-39036063D01*
X74886063Y-39180226D01*
X74772795Y-39349744D01*
X74694774Y-39538102D01*
X74655000Y-39738061D01*
X74655000Y-39941939D01*
X74694774Y-40141898D01*
X74772795Y-40330256D01*
X74886063Y-40499774D01*
X75030226Y-40643937D01*
X75199744Y-40757205D01*
X75388102Y-40835226D01*
X75588061Y-40875000D01*
X75791939Y-40875000D01*
X75991898Y-40835226D01*
X76180256Y-40757205D01*
X76349774Y-40643937D01*
X76493937Y-40499774D01*
X76607205Y-40330256D01*
X76685226Y-40141898D01*
X76725000Y-39941939D01*
X76725000Y-39882630D01*
X78515631Y-38092000D01*
X79440369Y-38092000D01*
X75907370Y-41625000D01*
X75848061Y-41625000D01*
X75648102Y-41664774D01*
X75459744Y-41742795D01*
X75290226Y-41856063D01*
X75146063Y-42000226D01*
X75032795Y-42169744D01*
X74954774Y-42358102D01*
X74915000Y-42558061D01*
X74915000Y-42761939D01*
X74954774Y-42961898D01*
X75032795Y-43150256D01*
X75146063Y-43319774D01*
X75290226Y-43463937D01*
X75459744Y-43577205D01*
X75648102Y-43655226D01*
X75848061Y-43695000D01*
X76051939Y-43695000D01*
X76251898Y-43655226D01*
X76440256Y-43577205D01*
X76609774Y-43463937D01*
X76753937Y-43319774D01*
X76867205Y-43150256D01*
X76945226Y-42961898D01*
X76985000Y-42761939D01*
X76985000Y-42702630D01*
X77837630Y-41850000D01*
X88722815Y-41850000D01*
X88751487Y-42141111D01*
X88836401Y-42421034D01*
X88974294Y-42679014D01*
X89159866Y-42905134D01*
X89385986Y-43090706D01*
X89403374Y-43100000D01*
X89385986Y-43109294D01*
X89159866Y-43294866D01*
X88974294Y-43520986D01*
X88836401Y-43778966D01*
X88751487Y-44058889D01*
X88722815Y-44350000D01*
X88751487Y-44641111D01*
X88836401Y-44921034D01*
X88974294Y-45179014D01*
X89159866Y-45405134D01*
X89385986Y-45590706D01*
X89403374Y-45600000D01*
X89385986Y-45609294D01*
X89159866Y-45794866D01*
X88974294Y-46020986D01*
X88836401Y-46278966D01*
X88751487Y-46558889D01*
X88722815Y-46850000D01*
X88751487Y-47141111D01*
X88836401Y-47421034D01*
X88974294Y-47679014D01*
X89159866Y-47905134D01*
X89385986Y-48090706D01*
X89643966Y-48228599D01*
X89923889Y-48313513D01*
X90142050Y-48335000D01*
X90537950Y-48335000D01*
X90756111Y-48313513D01*
X91036034Y-48228599D01*
X91294014Y-48090706D01*
X91520134Y-47905134D01*
X91705706Y-47679014D01*
X91843599Y-47421034D01*
X91928513Y-47141111D01*
X91957185Y-46850000D01*
X91928513Y-46558889D01*
X91843599Y-46278966D01*
X91705706Y-46020986D01*
X91520134Y-45794866D01*
X91294014Y-45609294D01*
X91276626Y-45600000D01*
X91294014Y-45590706D01*
X91520134Y-45405134D01*
X91705706Y-45179014D01*
X91843599Y-44921034D01*
X91928513Y-44641111D01*
X91957185Y-44350000D01*
X91928513Y-44058889D01*
X91843599Y-43778966D01*
X91705706Y-43520986D01*
X91520134Y-43294866D01*
X91294014Y-43109294D01*
X91276626Y-43100000D01*
X91294014Y-43090706D01*
X91520134Y-42905134D01*
X91705706Y-42679014D01*
X91843599Y-42421034D01*
X91928513Y-42141111D01*
X91957185Y-41850000D01*
X91928513Y-41558889D01*
X91843599Y-41278966D01*
X91705706Y-41020986D01*
X91524392Y-40800055D01*
X91559180Y-40789502D01*
X91669494Y-40730537D01*
X91766185Y-40651185D01*
X91845537Y-40554494D01*
X91904502Y-40444180D01*
X91940812Y-40324482D01*
X91953072Y-40200000D01*
X91950000Y-39635750D01*
X91791250Y-39477000D01*
X90467000Y-39477000D01*
X90467000Y-39497000D01*
X90213000Y-39497000D01*
X90213000Y-39477000D01*
X88888750Y-39477000D01*
X88730000Y-39635750D01*
X88726928Y-40200000D01*
X88739188Y-40324482D01*
X88775498Y-40444180D01*
X88834463Y-40554494D01*
X88913815Y-40651185D01*
X89010506Y-40730537D01*
X89120820Y-40789502D01*
X89155608Y-40800055D01*
X88974294Y-41020986D01*
X88836401Y-41278966D01*
X88751487Y-41558889D01*
X88722815Y-41850000D01*
X77837630Y-41850000D01*
X80335631Y-39352000D01*
X81058289Y-39352000D01*
X81100226Y-39393937D01*
X81269744Y-39507205D01*
X81458102Y-39585226D01*
X81658061Y-39625000D01*
X81861939Y-39625000D01*
X82061898Y-39585226D01*
X82250256Y-39507205D01*
X82419774Y-39393937D01*
X82563937Y-39249774D01*
X82677205Y-39080256D01*
X82755226Y-38891898D01*
X82795000Y-38691939D01*
X82795000Y-38488061D01*
X82755226Y-38288102D01*
X82677205Y-38099744D01*
X82568831Y-37937551D01*
X82647205Y-37820256D01*
X82725226Y-37631898D01*
X82765000Y-37431939D01*
X82765000Y-37228061D01*
X82725226Y-37028102D01*
X82647205Y-36839744D01*
X82533937Y-36670226D01*
X82389774Y-36526063D01*
X82220256Y-36412795D01*
X82031898Y-36334774D01*
X81831939Y-36295000D01*
X81628061Y-36295000D01*
X81428102Y-36334774D01*
X81239744Y-36412795D01*
X81070226Y-36526063D01*
X81028289Y-36568000D01*
X79215711Y-36568000D01*
X79293937Y-36489774D01*
X79407205Y-36320256D01*
X79485226Y-36131898D01*
X79525000Y-35931939D01*
X79525000Y-35728061D01*
X79485226Y-35528102D01*
X79407205Y-35339744D01*
X79293937Y-35170226D01*
X79149774Y-35026063D01*
X78980256Y-34912795D01*
X78791898Y-34834774D01*
X78591939Y-34795000D01*
X78388061Y-34795000D01*
X78188102Y-34834774D01*
X77999744Y-34912795D01*
X77830226Y-35026063D01*
X77788289Y-35068000D01*
X70045631Y-35068000D01*
X66275692Y-31298061D01*
X84215000Y-31298061D01*
X84215000Y-31501939D01*
X84254774Y-31701898D01*
X84332795Y-31890256D01*
X84446063Y-32059774D01*
X84488001Y-32101712D01*
X84488000Y-34042577D01*
X84484314Y-34080000D01*
X84488000Y-34117423D01*
X84488000Y-34117425D01*
X84499026Y-34229377D01*
X84542598Y-34373014D01*
X84542599Y-34373015D01*
X84613355Y-34505392D01*
X84652983Y-34553678D01*
X84708578Y-34621422D01*
X84737654Y-34645284D01*
X84793577Y-34701207D01*
X84789744Y-34702795D01*
X84620226Y-34816063D01*
X84476063Y-34960226D01*
X84362795Y-35129744D01*
X84284774Y-35318102D01*
X84245000Y-35518061D01*
X84245000Y-35721939D01*
X84284774Y-35921898D01*
X84362795Y-36110256D01*
X84476063Y-36279774D01*
X84620226Y-36423937D01*
X84789744Y-36537205D01*
X84978102Y-36615226D01*
X85108000Y-36641064D01*
X85108001Y-38408288D01*
X85066063Y-38450226D01*
X84952795Y-38619744D01*
X84874774Y-38808102D01*
X84835000Y-39008061D01*
X84835000Y-39211939D01*
X84874774Y-39411898D01*
X84952795Y-39600256D01*
X85066063Y-39769774D01*
X85210226Y-39913937D01*
X85379744Y-40027205D01*
X85568102Y-40105226D01*
X85768061Y-40145000D01*
X85971939Y-40145000D01*
X86171898Y-40105226D01*
X86360256Y-40027205D01*
X86529774Y-39913937D01*
X86673937Y-39769774D01*
X86787205Y-39600256D01*
X86865226Y-39411898D01*
X86905000Y-39211939D01*
X86905000Y-39015000D01*
X86991939Y-39015000D01*
X87191898Y-38975226D01*
X87380256Y-38897205D01*
X87549774Y-38783937D01*
X87693937Y-38639774D01*
X87787330Y-38500000D01*
X88726928Y-38500000D01*
X88730000Y-39064250D01*
X88888750Y-39223000D01*
X90213000Y-39223000D01*
X90213000Y-38023750D01*
X90467000Y-38023750D01*
X90467000Y-39223000D01*
X91791250Y-39223000D01*
X91950000Y-39064250D01*
X91953072Y-38500000D01*
X91940812Y-38375518D01*
X91904502Y-38255820D01*
X91845537Y-38145506D01*
X91766185Y-38048815D01*
X91669494Y-37969463D01*
X91559180Y-37910498D01*
X91439482Y-37874188D01*
X91315000Y-37861928D01*
X90625750Y-37865000D01*
X90467000Y-38023750D01*
X90213000Y-38023750D01*
X90054250Y-37865000D01*
X89365000Y-37861928D01*
X89240518Y-37874188D01*
X89120820Y-37910498D01*
X89010506Y-37969463D01*
X88913815Y-38048815D01*
X88834463Y-38145506D01*
X88775498Y-38255820D01*
X88739188Y-38375518D01*
X88726928Y-38500000D01*
X87787330Y-38500000D01*
X87807205Y-38470256D01*
X87885226Y-38281898D01*
X87925000Y-38081939D01*
X87925000Y-37878061D01*
X87885226Y-37678102D01*
X87807205Y-37489744D01*
X87693937Y-37320226D01*
X87652000Y-37278289D01*
X87652000Y-35757422D01*
X87655686Y-35719999D01*
X87651808Y-35680622D01*
X87640974Y-35570622D01*
X87639113Y-35564487D01*
X87873158Y-35517932D01*
X88143411Y-35405990D01*
X88386632Y-35243475D01*
X88593475Y-35036632D01*
X88710000Y-34862240D01*
X88826525Y-35036632D01*
X89033368Y-35243475D01*
X89276589Y-35405990D01*
X89546842Y-35517932D01*
X89833740Y-35575000D01*
X90126260Y-35575000D01*
X90413158Y-35517932D01*
X90683411Y-35405990D01*
X90926632Y-35243475D01*
X91133475Y-35036632D01*
X91295990Y-34793411D01*
X91407932Y-34523158D01*
X91465000Y-34236260D01*
X91465000Y-33943740D01*
X91407932Y-33656842D01*
X91295990Y-33386589D01*
X91133475Y-33143368D01*
X90926632Y-32936525D01*
X90752240Y-32820000D01*
X90926632Y-32703475D01*
X91133475Y-32496632D01*
X91295990Y-32253411D01*
X91407932Y-31983158D01*
X91465000Y-31696260D01*
X91465000Y-31403740D01*
X91407932Y-31116842D01*
X91295990Y-30846589D01*
X91133475Y-30603368D01*
X90926632Y-30396525D01*
X90752240Y-30280000D01*
X90926632Y-30163475D01*
X91133475Y-29956632D01*
X91295990Y-29713411D01*
X91407932Y-29443158D01*
X91465000Y-29156260D01*
X91465000Y-28863740D01*
X91407932Y-28576842D01*
X91295990Y-28306589D01*
X91133475Y-28063368D01*
X90926632Y-27856525D01*
X90683411Y-27694010D01*
X90413158Y-27582068D01*
X90126260Y-27525000D01*
X89833740Y-27525000D01*
X89546842Y-27582068D01*
X89276589Y-27694010D01*
X89033368Y-27856525D01*
X88901513Y-27988380D01*
X88879502Y-27915820D01*
X88820537Y-27805506D01*
X88741185Y-27708815D01*
X88644494Y-27629463D01*
X88534180Y-27570498D01*
X88414482Y-27534188D01*
X88290000Y-27521928D01*
X87725750Y-27525000D01*
X87567000Y-27683750D01*
X87567000Y-28883000D01*
X87587000Y-28883000D01*
X87587000Y-29137000D01*
X87567000Y-29137000D01*
X87567000Y-29157000D01*
X87313000Y-29157000D01*
X87313000Y-29137000D01*
X86113750Y-29137000D01*
X85955000Y-29295750D01*
X85951928Y-29860000D01*
X85964188Y-29984482D01*
X86000498Y-30104180D01*
X86059463Y-30214494D01*
X86138815Y-30311185D01*
X86235506Y-30390537D01*
X86345820Y-30449502D01*
X86418380Y-30471513D01*
X86286525Y-30603368D01*
X86124508Y-30845843D01*
X86053937Y-30740226D01*
X85909774Y-30596063D01*
X85740256Y-30482795D01*
X85551898Y-30404774D01*
X85351939Y-30365000D01*
X85148061Y-30365000D01*
X84948102Y-30404774D01*
X84759744Y-30482795D01*
X84590226Y-30596063D01*
X84446063Y-30740226D01*
X84332795Y-30909744D01*
X84254774Y-31098102D01*
X84215000Y-31298061D01*
X66275692Y-31298061D01*
X65905000Y-30927370D01*
X65905000Y-30868061D01*
X65865226Y-30668102D01*
X65787205Y-30479744D01*
X65673937Y-30310226D01*
X65529774Y-30166063D01*
X65360256Y-30052795D01*
X65171898Y-29974774D01*
X64971939Y-29935000D01*
X64912631Y-29935000D01*
X64308174Y-29330543D01*
X64318918Y-29314463D01*
X64442168Y-29016912D01*
X64505000Y-28701033D01*
X64505000Y-28378967D01*
X64461445Y-28160000D01*
X85951928Y-28160000D01*
X85955000Y-28724250D01*
X86113750Y-28883000D01*
X87313000Y-28883000D01*
X87313000Y-27683750D01*
X87154250Y-27525000D01*
X86590000Y-27521928D01*
X86465518Y-27534188D01*
X86345820Y-27570498D01*
X86235506Y-27629463D01*
X86138815Y-27708815D01*
X86059463Y-27805506D01*
X86000498Y-27915820D01*
X85964188Y-28035518D01*
X85951928Y-28160000D01*
X64461445Y-28160000D01*
X64442168Y-28063088D01*
X64318918Y-27765537D01*
X64139987Y-27497748D01*
X63912252Y-27270013D01*
X63644463Y-27091082D01*
X63346912Y-26967832D01*
X63031033Y-26905000D01*
X62708967Y-26905000D01*
X62393088Y-26967832D01*
X62095537Y-27091082D01*
X61827748Y-27270013D01*
X61600013Y-27497748D01*
X61421082Y-27765537D01*
X61297832Y-28063088D01*
X61235000Y-28378967D01*
X59998219Y-28378967D01*
X59967961Y-28158325D01*
X59862795Y-27853912D01*
X59769814Y-27679956D01*
X59505413Y-27584192D01*
X58549605Y-28540000D01*
X58190395Y-28540000D01*
X57234587Y-27584192D01*
X56970186Y-27679956D01*
X56829296Y-27969571D01*
X56747616Y-28281108D01*
X56728282Y-28602595D01*
X55425824Y-28602595D01*
X55426859Y-27404587D01*
X57414192Y-27404587D01*
X58370000Y-28360395D01*
X59325808Y-27404587D01*
X59230044Y-27140186D01*
X58940429Y-26999296D01*
X58628892Y-26917616D01*
X58307405Y-26898282D01*
X57988325Y-26942039D01*
X57683912Y-27047205D01*
X57509956Y-27140186D01*
X57414192Y-27404587D01*
X55426859Y-27404587D01*
X55429971Y-23802571D01*
X55456256Y-23534495D01*
X55765000Y-23534495D01*
X55765000Y-23925505D01*
X55841282Y-24309003D01*
X55990915Y-24670250D01*
X56208149Y-24995364D01*
X56484636Y-25271851D01*
X56809750Y-25489085D01*
X57170997Y-25638718D01*
X57554495Y-25715000D01*
X57945505Y-25715000D01*
X58329003Y-25638718D01*
X58690250Y-25489085D01*
X59015364Y-25271851D01*
X59291851Y-24995364D01*
X59509085Y-24670250D01*
X59658718Y-24309003D01*
X59735000Y-23925505D01*
X59735000Y-23534495D01*
X59658718Y-23150997D01*
X59509085Y-22789750D01*
X59291851Y-22464636D01*
X59015364Y-22188149D01*
X58690250Y-21970915D01*
X58329003Y-21821282D01*
X57945505Y-21745000D01*
X57554495Y-21745000D01*
X57170997Y-21821282D01*
X56809750Y-21970915D01*
X56484636Y-22188149D01*
X56208149Y-22464636D01*
X55990915Y-22789750D01*
X55841282Y-23150997D01*
X55765000Y-23534495D01*
X55456256Y-23534495D01*
X55477670Y-23316107D01*
X55609489Y-22879502D01*
X55823600Y-22476815D01*
X56111848Y-22123388D01*
X56463261Y-21832673D01*
X56864439Y-21615758D01*
X57300113Y-21480894D01*
X57784344Y-21430000D01*
X62737721Y-21430000D01*
X63029659Y-21458625D01*
%TA.AperFunction,Conductor*%
D19*
G36*
X63029659Y-21458625D02*
G01*
X63279429Y-21534035D01*
X63509792Y-21656522D01*
X63711980Y-21821422D01*
X63878286Y-22022450D01*
X64002378Y-22251954D01*
X64079531Y-22501195D01*
X64112938Y-22819040D01*
X64112765Y-22843781D01*
X64113665Y-22852952D01*
X64154466Y-23241145D01*
X64166487Y-23299708D01*
X64177702Y-23358501D01*
X64180366Y-23367323D01*
X64295790Y-23740198D01*
X64318975Y-23795353D01*
X64341379Y-23850806D01*
X64345706Y-23858943D01*
X64531357Y-24202298D01*
X64564780Y-24251849D01*
X64597562Y-24301946D01*
X64603387Y-24309087D01*
X64852194Y-24609841D01*
X64894629Y-24651981D01*
X64936492Y-24694730D01*
X64943592Y-24700604D01*
X65246077Y-24947305D01*
X65295904Y-24980409D01*
X65345259Y-25014204D01*
X65353365Y-25018587D01*
X65698007Y-25201837D01*
X65753311Y-25224631D01*
X65808295Y-25248198D01*
X65817098Y-25250923D01*
X66190770Y-25363741D01*
X66249458Y-25375361D01*
X66307961Y-25387797D01*
X66317126Y-25388760D01*
X66705595Y-25426850D01*
X66705598Y-25426850D01*
X66737581Y-25430000D01*
X83332419Y-25430000D01*
X83361373Y-25427148D01*
X83373781Y-25427235D01*
X83382952Y-25426335D01*
X83771145Y-25385534D01*
X83829708Y-25373513D01*
X83888501Y-25362298D01*
X83897323Y-25359634D01*
X84270198Y-25244210D01*
X84325353Y-25221025D01*
X84380806Y-25198621D01*
X84388943Y-25194294D01*
X84732298Y-25008643D01*
X84781849Y-24975220D01*
X84831946Y-24942438D01*
X84839087Y-24936613D01*
X85139841Y-24687806D01*
X85181981Y-24645371D01*
X85224730Y-24603508D01*
X85230604Y-24596408D01*
X85477305Y-24293923D01*
X85510409Y-24244096D01*
X85544204Y-24194741D01*
X85548587Y-24186635D01*
X85731837Y-23841993D01*
X85754631Y-23786689D01*
X85778198Y-23731705D01*
X85780923Y-23722902D01*
X85834787Y-23544495D01*
X90345000Y-23544495D01*
X90345000Y-23935505D01*
X90421282Y-24319003D01*
X90570915Y-24680250D01*
X90788149Y-25005364D01*
X91064636Y-25281851D01*
X91389750Y-25499085D01*
X91750997Y-25648718D01*
X92134495Y-25725000D01*
X92525505Y-25725000D01*
X92909003Y-25648718D01*
X93270250Y-25499085D01*
X93595364Y-25281851D01*
X93871851Y-25005364D01*
X94089085Y-24680250D01*
X94238718Y-24319003D01*
X94315000Y-23935505D01*
X94315000Y-23544495D01*
X94238718Y-23160997D01*
X94089085Y-22799750D01*
X93871851Y-22474636D01*
X93595364Y-22198149D01*
X93270250Y-21980915D01*
X92909003Y-21831282D01*
X92525505Y-21755000D01*
X92134495Y-21755000D01*
X91750997Y-21831282D01*
X91389750Y-21980915D01*
X91064636Y-22198149D01*
X90788149Y-22474636D01*
X90570915Y-22799750D01*
X90421282Y-23160997D01*
X90345000Y-23544495D01*
X85834787Y-23544495D01*
X85893741Y-23349230D01*
X85905361Y-23290542D01*
X85917797Y-23232039D01*
X85918760Y-23222874D01*
X85956850Y-22834405D01*
X85988625Y-22510341D01*
X86064035Y-22260571D01*
X86186522Y-22030208D01*
X86351422Y-21828020D01*
X86552450Y-21661714D01*
X86781954Y-21537622D01*
X87031195Y-21460469D01*
X87321088Y-21430000D01*
X92267721Y-21430000D01*
X92753893Y-21477670D01*
X93190498Y-21609489D01*
X93593185Y-21823600D01*
X93946612Y-22111848D01*
X94237327Y-22463261D01*
X94454242Y-22864439D01*
X94589106Y-23300113D01*
X94640001Y-23784353D01*
X94640000Y-58467721D01*
X94592330Y-58953894D01*
X94460512Y-59390497D01*
X94246399Y-59793186D01*
X93958150Y-60146613D01*
X93606739Y-60437327D01*
X93205564Y-60654240D01*
X92769886Y-60789106D01*
X92285664Y-60840000D01*
X57772279Y-60840000D01*
X57286106Y-60792330D01*
X56849503Y-60660512D01*
X56446814Y-60446399D01*
X56093387Y-60158150D01*
X55802673Y-59806739D01*
X55585760Y-59405564D01*
X55450894Y-58969886D01*
X55400012Y-58485777D01*
X55400142Y-58334495D01*
X55725000Y-58334495D01*
X55725000Y-58725505D01*
X55801282Y-59109003D01*
X55950915Y-59470250D01*
X56168149Y-59795364D01*
X56444636Y-60071851D01*
X56769750Y-60289085D01*
X57130997Y-60438718D01*
X57514495Y-60515000D01*
X57905505Y-60515000D01*
X58289003Y-60438718D01*
X58650250Y-60289085D01*
X58975364Y-60071851D01*
X59251851Y-59795364D01*
X59469085Y-59470250D01*
X59618718Y-59109003D01*
X59695000Y-58725505D01*
X59695000Y-58334495D01*
X59693011Y-58324495D01*
X90355000Y-58324495D01*
X90355000Y-58715505D01*
X90431282Y-59099003D01*
X90580915Y-59460250D01*
X90798149Y-59785364D01*
X91074636Y-60061851D01*
X91399750Y-60279085D01*
X91760997Y-60428718D01*
X92144495Y-60505000D01*
X92535505Y-60505000D01*
X92919003Y-60428718D01*
X93280250Y-60279085D01*
X93605364Y-60061851D01*
X93881851Y-59785364D01*
X94099085Y-59460250D01*
X94248718Y-59099003D01*
X94325000Y-58715505D01*
X94325000Y-58324495D01*
X94248718Y-57940997D01*
X94099085Y-57579750D01*
X93881851Y-57254636D01*
X93605364Y-56978149D01*
X93280250Y-56760915D01*
X92919003Y-56611282D01*
X92535505Y-56535000D01*
X92144495Y-56535000D01*
X91760997Y-56611282D01*
X91399750Y-56760915D01*
X91074636Y-56978149D01*
X90798149Y-57254636D01*
X90580915Y-57579750D01*
X90431282Y-57940997D01*
X90355000Y-58324495D01*
X59693011Y-58324495D01*
X59618718Y-57950997D01*
X59469085Y-57589750D01*
X59251851Y-57264636D01*
X58975364Y-56988149D01*
X58650250Y-56770915D01*
X58289003Y-56621282D01*
X58182011Y-56600000D01*
X71231928Y-56600000D01*
X71244188Y-56724482D01*
X71280498Y-56844180D01*
X71339463Y-56954494D01*
X71418815Y-57051185D01*
X71515506Y-57130537D01*
X71625820Y-57189502D01*
X71745518Y-57225812D01*
X71870000Y-57238072D01*
X72434250Y-57235000D01*
X72593000Y-57076250D01*
X72593000Y-55727000D01*
X71393750Y-55727000D01*
X71235000Y-55885750D01*
X71231928Y-56600000D01*
X58182011Y-56600000D01*
X57905505Y-56545000D01*
X57514495Y-56545000D01*
X57130997Y-56621282D01*
X56769750Y-56770915D01*
X56444636Y-56988149D01*
X56168149Y-57264636D01*
X55950915Y-57589750D01*
X55801282Y-57950997D01*
X55725000Y-58334495D01*
X55400142Y-58334495D01*
X55415754Y-40260000D01*
X56161203Y-40260000D01*
X56165001Y-40298563D01*
X56165000Y-51871447D01*
X56161203Y-51910000D01*
X56165000Y-51948553D01*
X56165000Y-51948560D01*
X56176359Y-52063886D01*
X56221246Y-52211859D01*
X56294138Y-52348232D01*
X56392236Y-52467764D01*
X56422190Y-52492347D01*
X58027653Y-54097810D01*
X58052236Y-54127764D01*
X58171767Y-54225862D01*
X58289431Y-54288754D01*
X58308140Y-54298754D01*
X58456113Y-54343642D01*
X58531026Y-54351020D01*
X58571439Y-54355000D01*
X58571444Y-54355000D01*
X58610000Y-54358797D01*
X58648556Y-54355000D01*
X71280936Y-54355000D01*
X71280498Y-54355820D01*
X71244188Y-54475518D01*
X71231928Y-54600000D01*
X71235000Y-55314250D01*
X71393750Y-55473000D01*
X72593000Y-55473000D01*
X72593000Y-55453000D01*
X72847000Y-55453000D01*
X72847000Y-55473000D01*
X72867000Y-55473000D01*
X72867000Y-55727000D01*
X72847000Y-55727000D01*
X72847000Y-57076250D01*
X73005750Y-57235000D01*
X73570000Y-57238072D01*
X73694482Y-57225812D01*
X73814180Y-57189502D01*
X73924494Y-57130537D01*
X74021185Y-57051185D01*
X74100537Y-56954494D01*
X74159502Y-56844180D01*
X74170055Y-56809392D01*
X74390987Y-56990706D01*
X74648967Y-57128599D01*
X74928890Y-57213513D01*
X75220000Y-57242185D01*
X75511111Y-57213513D01*
X75791034Y-57128599D01*
X76049014Y-56990706D01*
X76275134Y-56805134D01*
X76460706Y-56579014D01*
X76598599Y-56321033D01*
X76683513Y-56041110D01*
X76705000Y-55822949D01*
X76705000Y-55377050D01*
X76683513Y-55158889D01*
X76598599Y-54878966D01*
X76460706Y-54620986D01*
X76275134Y-54394866D01*
X76226557Y-54355000D01*
X77008561Y-54355000D01*
X77110089Y-54345000D01*
X79941289Y-54345000D01*
X79960226Y-54363937D01*
X80129744Y-54477205D01*
X80318102Y-54555226D01*
X80518061Y-54595000D01*
X80721939Y-54595000D01*
X80921898Y-54555226D01*
X81110256Y-54477205D01*
X81279774Y-54363937D01*
X81423937Y-54219774D01*
X81537205Y-54050256D01*
X81615226Y-53861898D01*
X81655000Y-53661939D01*
X81655000Y-53458061D01*
X81615226Y-53258102D01*
X81537205Y-53069744D01*
X81423937Y-52900226D01*
X81279774Y-52756063D01*
X81110256Y-52642795D01*
X80921898Y-52564774D01*
X80721939Y-52525000D01*
X80518061Y-52525000D01*
X80318102Y-52564774D01*
X80129744Y-52642795D01*
X79960226Y-52756063D01*
X79941289Y-52775000D01*
X76929985Y-52775000D01*
X76828457Y-52785000D01*
X75898711Y-52785000D01*
X75879774Y-52766063D01*
X75710256Y-52652795D01*
X75521898Y-52574774D01*
X75321939Y-52535000D01*
X75118061Y-52535000D01*
X74918102Y-52574774D01*
X74729744Y-52652795D01*
X74560226Y-52766063D01*
X74541289Y-52785000D01*
X70782185Y-52785000D01*
X71051110Y-52758513D01*
X71331033Y-52673599D01*
X71589013Y-52535706D01*
X71815134Y-52350134D01*
X71867223Y-52286663D01*
X71921595Y-52388386D01*
X72032038Y-52522962D01*
X72166614Y-52633405D01*
X72320150Y-52715472D01*
X72486746Y-52766008D01*
X72660000Y-52783072D01*
X73860000Y-52783072D01*
X74033254Y-52766008D01*
X74199850Y-52715472D01*
X74353386Y-52633405D01*
X74487962Y-52522962D01*
X74598405Y-52388386D01*
X74680472Y-52234850D01*
X74731008Y-52068254D01*
X74748072Y-51895000D01*
X74748072Y-50445000D01*
X74731008Y-50271746D01*
X74680472Y-50105150D01*
X74676683Y-50098061D01*
X85465000Y-50098061D01*
X85465000Y-50301939D01*
X85504774Y-50501898D01*
X85582795Y-50690256D01*
X85696063Y-50859774D01*
X85840226Y-51003937D01*
X86009744Y-51117205D01*
X86198102Y-51195226D01*
X86398061Y-51235000D01*
X86601939Y-51235000D01*
X86801898Y-51195226D01*
X86990256Y-51117205D01*
X87159774Y-51003937D01*
X87178711Y-50985000D01*
X89921289Y-50985000D01*
X89940226Y-51003937D01*
X90109744Y-51117205D01*
X90298102Y-51195226D01*
X90498061Y-51235000D01*
X90701939Y-51235000D01*
X90901898Y-51195226D01*
X91090256Y-51117205D01*
X91259774Y-51003937D01*
X91403937Y-50859774D01*
X91517205Y-50690256D01*
X91595226Y-50501898D01*
X91635000Y-50301939D01*
X91635000Y-50098061D01*
X91595226Y-49898102D01*
X91517205Y-49709744D01*
X91403937Y-49540226D01*
X91259774Y-49396063D01*
X91090256Y-49282795D01*
X90901898Y-49204774D01*
X90701939Y-49165000D01*
X90498061Y-49165000D01*
X90298102Y-49204774D01*
X90109744Y-49282795D01*
X89940226Y-49396063D01*
X89921289Y-49415000D01*
X87178711Y-49415000D01*
X87159774Y-49396063D01*
X86990256Y-49282795D01*
X86801898Y-49204774D01*
X86601939Y-49165000D01*
X86398061Y-49165000D01*
X86198102Y-49204774D01*
X86009744Y-49282795D01*
X85840226Y-49396063D01*
X85696063Y-49540226D01*
X85582795Y-49709744D01*
X85504774Y-49898102D01*
X85465000Y-50098061D01*
X74676683Y-50098061D01*
X74598405Y-49951614D01*
X74487962Y-49817038D01*
X74353386Y-49706595D01*
X74199850Y-49624528D01*
X74033254Y-49573992D01*
X73860000Y-49556928D01*
X72660000Y-49556928D01*
X72486746Y-49573992D01*
X72320150Y-49624528D01*
X72166614Y-49706595D01*
X72032038Y-49817038D01*
X71921595Y-49951614D01*
X71867223Y-50053337D01*
X71815134Y-49989866D01*
X71589014Y-49804294D01*
X71575000Y-49796803D01*
X71575000Y-39528555D01*
X71578797Y-39490000D01*
X71575000Y-39451444D01*
X71575000Y-39451439D01*
X71571020Y-39411026D01*
X71563642Y-39336113D01*
X71518754Y-39188140D01*
X71485005Y-39125000D01*
X71445862Y-39051767D01*
X71347764Y-38932236D01*
X71317816Y-38907658D01*
X70425000Y-38014843D01*
X70425000Y-37988061D01*
X70385226Y-37788102D01*
X70307205Y-37599744D01*
X70193937Y-37430226D01*
X70049774Y-37286063D01*
X69880256Y-37172795D01*
X69691898Y-37094774D01*
X69491939Y-37055000D01*
X69288061Y-37055000D01*
X69088102Y-37094774D01*
X68899744Y-37172795D01*
X68730226Y-37286063D01*
X68586063Y-37430226D01*
X68472795Y-37599744D01*
X68394774Y-37788102D01*
X68355000Y-37988061D01*
X68355000Y-38191939D01*
X68394774Y-38391898D01*
X68472795Y-38580256D01*
X68586063Y-38749774D01*
X68730226Y-38893937D01*
X68899744Y-39007205D01*
X69088102Y-39085226D01*
X69288061Y-39125000D01*
X69314843Y-39125000D01*
X70005001Y-39815159D01*
X70005000Y-49764733D01*
X69930987Y-49804294D01*
X69704866Y-49989866D01*
X69519294Y-50215986D01*
X69505538Y-50241722D01*
X69349049Y-50035571D01*
X69131193Y-49842504D01*
X68879858Y-49695648D01*
X68616890Y-49603524D01*
X68387000Y-49724845D01*
X68387000Y-51043000D01*
X68407000Y-51043000D01*
X68407000Y-51297000D01*
X68387000Y-51297000D01*
X68387000Y-52615155D01*
X68616890Y-52736476D01*
X68879858Y-52644352D01*
X69131193Y-52497496D01*
X69349049Y-52304429D01*
X69505538Y-52098278D01*
X69519294Y-52124013D01*
X69704866Y-52350134D01*
X69930986Y-52535706D01*
X70188966Y-52673599D01*
X70468889Y-52758513D01*
X70737815Y-52785000D01*
X67537484Y-52785000D01*
X67555000Y-52696939D01*
X67555000Y-52594603D01*
X67640142Y-52644352D01*
X67903110Y-52736476D01*
X68133000Y-52615155D01*
X68133000Y-51297000D01*
X68113000Y-51297000D01*
X68113000Y-51043000D01*
X68133000Y-51043000D01*
X68133000Y-49724845D01*
X67903110Y-49603524D01*
X67640142Y-49695648D01*
X67388807Y-49842504D01*
X67282000Y-49937158D01*
X67282000Y-47931711D01*
X67323937Y-47889774D01*
X67437205Y-47720256D01*
X67515226Y-47531898D01*
X67555000Y-47331939D01*
X67555000Y-47128061D01*
X67515226Y-46928102D01*
X67437205Y-46739744D01*
X67323937Y-46570226D01*
X67179774Y-46426063D01*
X67010256Y-46312795D01*
X66821898Y-46234774D01*
X66621939Y-46195000D01*
X66418061Y-46195000D01*
X66218102Y-46234774D01*
X66029744Y-46312795D01*
X65860226Y-46426063D01*
X65716063Y-46570226D01*
X65602795Y-46739744D01*
X65524774Y-46928102D01*
X65485000Y-47128061D01*
X65485000Y-47331939D01*
X65524774Y-47531898D01*
X65602795Y-47720256D01*
X65716063Y-47889774D01*
X65758000Y-47931711D01*
X65758001Y-51893288D01*
X65716063Y-51935226D01*
X65602795Y-52104744D01*
X65524774Y-52293102D01*
X65485000Y-52493061D01*
X65485000Y-52696939D01*
X65502516Y-52785000D01*
X58935157Y-52785000D01*
X57740157Y-51590000D01*
X58136928Y-51590000D01*
X58149188Y-51714482D01*
X58185498Y-51834180D01*
X58244463Y-51944494D01*
X58323815Y-52041185D01*
X58420506Y-52120537D01*
X58530820Y-52179502D01*
X58650518Y-52215812D01*
X58775000Y-52228072D01*
X59464250Y-52225000D01*
X59623000Y-52066250D01*
X59623000Y-50867000D01*
X59877000Y-50867000D01*
X59877000Y-52066250D01*
X60035750Y-52225000D01*
X60725000Y-52228072D01*
X60849482Y-52215812D01*
X60969180Y-52179502D01*
X61079494Y-52120537D01*
X61176185Y-52041185D01*
X61255537Y-51944494D01*
X61314502Y-51834180D01*
X61350812Y-51714482D01*
X61363072Y-51590000D01*
X61360000Y-51025750D01*
X61201250Y-50867000D01*
X59877000Y-50867000D01*
X59623000Y-50867000D01*
X58298750Y-50867000D01*
X58140000Y-51025750D01*
X58136928Y-51590000D01*
X57740157Y-51590000D01*
X57735000Y-51584843D01*
X57735000Y-43240000D01*
X58132815Y-43240000D01*
X58161487Y-43531111D01*
X58246401Y-43811034D01*
X58384294Y-44069014D01*
X58569866Y-44295134D01*
X58795986Y-44480706D01*
X58813374Y-44490000D01*
X58795986Y-44499294D01*
X58569866Y-44684866D01*
X58384294Y-44910986D01*
X58246401Y-45168966D01*
X58161487Y-45448889D01*
X58132815Y-45740000D01*
X58161487Y-46031111D01*
X58246401Y-46311034D01*
X58384294Y-46569014D01*
X58569866Y-46795134D01*
X58795986Y-46980706D01*
X58813374Y-46990000D01*
X58795986Y-46999294D01*
X58569866Y-47184866D01*
X58384294Y-47410986D01*
X58246401Y-47668966D01*
X58161487Y-47948889D01*
X58132815Y-48240000D01*
X58161487Y-48531111D01*
X58246401Y-48811034D01*
X58384294Y-49069014D01*
X58565608Y-49289945D01*
X58530820Y-49300498D01*
X58420506Y-49359463D01*
X58323815Y-49438815D01*
X58244463Y-49535506D01*
X58185498Y-49645820D01*
X58149188Y-49765518D01*
X58136928Y-49890000D01*
X58140000Y-50454250D01*
X58298750Y-50613000D01*
X59623000Y-50613000D01*
X59623000Y-50593000D01*
X59877000Y-50593000D01*
X59877000Y-50613000D01*
X61201250Y-50613000D01*
X61360000Y-50454250D01*
X61363072Y-49890000D01*
X61350812Y-49765518D01*
X61314502Y-49645820D01*
X61255537Y-49535506D01*
X61176185Y-49438815D01*
X61079494Y-49359463D01*
X60969180Y-49300498D01*
X60934392Y-49289945D01*
X61115706Y-49069014D01*
X61253599Y-48811034D01*
X61338513Y-48531111D01*
X61367185Y-48240000D01*
X61338513Y-47948889D01*
X61253599Y-47668966D01*
X61115706Y-47410986D01*
X60930134Y-47184866D01*
X60704014Y-46999294D01*
X60686626Y-46990000D01*
X60704014Y-46980706D01*
X60930134Y-46795134D01*
X61115706Y-46569014D01*
X61253599Y-46311034D01*
X61338513Y-46031111D01*
X61367185Y-45740000D01*
X61338513Y-45448889D01*
X61253599Y-45168966D01*
X61115706Y-44910986D01*
X60930134Y-44684866D01*
X60704014Y-44499294D01*
X60686626Y-44490000D01*
X60704014Y-44480706D01*
X60930134Y-44295134D01*
X61115706Y-44069014D01*
X61253000Y-43812156D01*
X61284774Y-43971898D01*
X61362795Y-44160256D01*
X61476063Y-44329774D01*
X61620226Y-44473937D01*
X61789744Y-44587205D01*
X61978102Y-44665226D01*
X62178061Y-44705000D01*
X62381939Y-44705000D01*
X62581898Y-44665226D01*
X62770256Y-44587205D01*
X62939774Y-44473937D01*
X63083937Y-44329774D01*
X63197205Y-44160256D01*
X63275226Y-43971898D01*
X63315000Y-43771939D01*
X63315000Y-43712630D01*
X65485631Y-41542000D01*
X67538289Y-41542000D01*
X67580226Y-41583937D01*
X67749744Y-41697205D01*
X67777705Y-41708787D01*
X67719744Y-41732795D01*
X67550226Y-41846063D01*
X67508289Y-41888000D01*
X66247423Y-41888000D01*
X66210000Y-41884314D01*
X66172577Y-41888000D01*
X66172574Y-41888000D01*
X66060622Y-41899026D01*
X65916985Y-41942598D01*
X65855364Y-41975535D01*
X65784607Y-42013355D01*
X65742219Y-42048143D01*
X65668578Y-42108578D01*
X65644716Y-42137654D01*
X62282370Y-45500000D01*
X62223061Y-45500000D01*
X62023102Y-45539774D01*
X61834744Y-45617795D01*
X61665226Y-45731063D01*
X61521063Y-45875226D01*
X61407795Y-46044744D01*
X61329774Y-46233102D01*
X61290000Y-46433061D01*
X61290000Y-46636939D01*
X61329774Y-46836898D01*
X61407795Y-47025256D01*
X61521063Y-47194774D01*
X61665226Y-47338937D01*
X61834744Y-47452205D01*
X62023102Y-47530226D01*
X62223061Y-47570000D01*
X62426939Y-47570000D01*
X62626898Y-47530226D01*
X62815256Y-47452205D01*
X62984774Y-47338937D01*
X63128937Y-47194774D01*
X63242205Y-47025256D01*
X63320226Y-46836898D01*
X63360000Y-46636939D01*
X63360000Y-46577630D01*
X66525630Y-43412000D01*
X67508289Y-43412000D01*
X67550226Y-43453937D01*
X67719744Y-43567205D01*
X67908102Y-43645226D01*
X68108061Y-43685000D01*
X68311939Y-43685000D01*
X68511898Y-43645226D01*
X68700256Y-43567205D01*
X68869774Y-43453937D01*
X69013937Y-43309774D01*
X69127205Y-43140256D01*
X69205226Y-42951898D01*
X69245000Y-42751939D01*
X69245000Y-42548061D01*
X69205226Y-42348102D01*
X69127205Y-42159744D01*
X69013937Y-41990226D01*
X68869774Y-41846063D01*
X68700256Y-41732795D01*
X68672295Y-41721213D01*
X68730256Y-41697205D01*
X68899774Y-41583937D01*
X69043937Y-41439774D01*
X69157205Y-41270256D01*
X69235226Y-41081898D01*
X69275000Y-40881939D01*
X69275000Y-40678061D01*
X69235226Y-40478102D01*
X69157205Y-40289744D01*
X69043937Y-40120226D01*
X68899774Y-39976063D01*
X68730256Y-39862795D01*
X68541898Y-39784774D01*
X68341939Y-39745000D01*
X68138061Y-39745000D01*
X67938102Y-39784774D01*
X67749744Y-39862795D01*
X67580226Y-39976063D01*
X67538289Y-40018000D01*
X65207422Y-40018000D01*
X65169999Y-40014314D01*
X65132576Y-40018000D01*
X65132574Y-40018000D01*
X65020622Y-40029026D01*
X64876985Y-40072598D01*
X64744608Y-40143355D01*
X64628578Y-40238578D01*
X64604721Y-40267648D01*
X62237370Y-42635000D01*
X62178061Y-42635000D01*
X61978102Y-42674774D01*
X61789744Y-42752795D01*
X61620226Y-42866063D01*
X61476063Y-43010226D01*
X61362795Y-43179744D01*
X61361547Y-43182757D01*
X61338513Y-42948889D01*
X61253599Y-42668966D01*
X61115706Y-42410986D01*
X60930134Y-42184866D01*
X60704014Y-41999294D01*
X60446034Y-41861401D01*
X60166111Y-41776487D01*
X59947950Y-41755000D01*
X59552050Y-41755000D01*
X59333889Y-41776487D01*
X59053966Y-41861401D01*
X58795986Y-41999294D01*
X58569866Y-42184866D01*
X58384294Y-42410986D01*
X58246401Y-42668966D01*
X58161487Y-42948889D01*
X58132815Y-43240000D01*
X57735000Y-43240000D01*
X57735000Y-40585157D01*
X58451468Y-39868689D01*
X58583740Y-39895000D01*
X58876260Y-39895000D01*
X59163158Y-39837932D01*
X59433411Y-39725990D01*
X59676632Y-39563475D01*
X59808487Y-39431620D01*
X59830498Y-39504180D01*
X59889463Y-39614494D01*
X59968815Y-39711185D01*
X60065506Y-39790537D01*
X60175820Y-39849502D01*
X60295518Y-39885812D01*
X60420000Y-39898072D01*
X62120000Y-39898072D01*
X62244482Y-39885812D01*
X62364180Y-39849502D01*
X62474494Y-39790537D01*
X62571185Y-39711185D01*
X62650537Y-39614494D01*
X62709502Y-39504180D01*
X62745812Y-39384482D01*
X62758072Y-39260000D01*
X62758072Y-37560000D01*
X62745812Y-37435518D01*
X62709502Y-37315820D01*
X62650537Y-37205506D01*
X62571185Y-37108815D01*
X62474494Y-37029463D01*
X62364180Y-36970498D01*
X62244482Y-36934188D01*
X62120000Y-36921928D01*
X60420000Y-36921928D01*
X60295518Y-36934188D01*
X60175820Y-36970498D01*
X60065506Y-37029463D01*
X59968815Y-37108815D01*
X59889463Y-37205506D01*
X59830498Y-37315820D01*
X59808487Y-37388380D01*
X59676632Y-37256525D01*
X59433411Y-37094010D01*
X59163158Y-36982068D01*
X58876260Y-36925000D01*
X58583740Y-36925000D01*
X58296842Y-36982068D01*
X58026589Y-37094010D01*
X57783368Y-37256525D01*
X57576525Y-37463368D01*
X57414010Y-37706589D01*
X57302068Y-37976842D01*
X57245000Y-38263740D01*
X57245000Y-38556260D01*
X57294538Y-38805304D01*
X56422185Y-39677658D01*
X56392237Y-39702236D01*
X56367659Y-39732184D01*
X56367655Y-39732188D01*
X56357141Y-39745000D01*
X56294139Y-39821767D01*
X56265319Y-39875686D01*
X56221246Y-39958141D01*
X56176359Y-40106114D01*
X56161203Y-40260000D01*
X55415754Y-40260000D01*
X55419282Y-36175413D01*
X57414192Y-36175413D01*
X57509956Y-36439814D01*
X57799571Y-36580704D01*
X58111108Y-36662384D01*
X58432595Y-36681718D01*
X58751675Y-36637961D01*
X59056088Y-36532795D01*
X59230044Y-36439814D01*
X59325808Y-36175413D01*
X58370000Y-35219605D01*
X57414192Y-36175413D01*
X55419282Y-36175413D01*
X55420209Y-35102595D01*
X56728282Y-35102595D01*
X56772039Y-35421675D01*
X56877205Y-35726088D01*
X56970186Y-35900044D01*
X57234587Y-35995808D01*
X58190395Y-35040000D01*
X58549605Y-35040000D01*
X59505413Y-35995808D01*
X59769814Y-35900044D01*
X59910704Y-35610429D01*
X59992384Y-35298892D01*
X60011718Y-34977405D01*
X59998219Y-34878967D01*
X61235000Y-34878967D01*
X61235000Y-35201033D01*
X61297832Y-35516912D01*
X61421082Y-35814463D01*
X61600013Y-36082252D01*
X61827748Y-36309987D01*
X62095537Y-36488918D01*
X62393088Y-36612168D01*
X62708967Y-36675000D01*
X63031033Y-36675000D01*
X63346912Y-36612168D01*
X63644463Y-36488918D01*
X63912252Y-36309987D01*
X64139987Y-36082252D01*
X64318918Y-35814463D01*
X64442168Y-35516912D01*
X64505000Y-35201033D01*
X64505000Y-34878967D01*
X64442168Y-34563088D01*
X64318918Y-34265537D01*
X64139987Y-33997748D01*
X63912252Y-33770013D01*
X63644463Y-33591082D01*
X63346912Y-33467832D01*
X63031033Y-33405000D01*
X62708967Y-33405000D01*
X62393088Y-33467832D01*
X62095537Y-33591082D01*
X61827748Y-33770013D01*
X61600013Y-33997748D01*
X61421082Y-34265537D01*
X61297832Y-34563088D01*
X61235000Y-34878967D01*
X59998219Y-34878967D01*
X59967961Y-34658325D01*
X59862795Y-34353912D01*
X59769814Y-34179956D01*
X59505413Y-34084192D01*
X58549605Y-35040000D01*
X58190395Y-35040000D01*
X57234587Y-34084192D01*
X56970186Y-34179956D01*
X56829296Y-34469571D01*
X56747616Y-34781108D01*
X56728282Y-35102595D01*
X55420209Y-35102595D01*
X55421243Y-33904587D01*
X57414192Y-33904587D01*
X58370000Y-34860395D01*
X59325808Y-33904587D01*
X59230044Y-33640186D01*
X58940429Y-33499296D01*
X58628892Y-33417616D01*
X58307405Y-33398282D01*
X57988325Y-33442039D01*
X57683912Y-33547205D01*
X57509956Y-33640186D01*
X57414192Y-33904587D01*
X55421243Y-33904587D01*
X55424897Y-29675413D01*
X57414192Y-29675413D01*
X57509956Y-29939814D01*
X57799571Y-30080704D01*
X58111108Y-30162384D01*
X58432595Y-30181718D01*
X58751675Y-30137961D01*
X59056088Y-30032795D01*
X59230044Y-29939814D01*
X59325808Y-29675413D01*
X58370000Y-28719605D01*
X57414192Y-29675413D01*
X55424897Y-29675413D01*
X55425824Y-28602595D01*
X56728282Y-28602595D01*
X56772039Y-28921675D01*
X56877205Y-29226088D01*
X56970186Y-29400044D01*
X57234587Y-29495808D01*
X58190395Y-28540000D01*
X58549605Y-28540000D01*
X59505413Y-29495808D01*
X59769814Y-29400044D01*
X59910704Y-29110429D01*
X59992384Y-28798892D01*
X60011718Y-28477405D01*
X59998219Y-28378967D01*
X61235000Y-28378967D01*
X61235000Y-28701033D01*
X61297832Y-29016912D01*
X61421082Y-29314463D01*
X61600013Y-29582252D01*
X61827748Y-29809987D01*
X62095537Y-29988918D01*
X62393088Y-30112168D01*
X62708967Y-30175000D01*
X62997370Y-30175000D01*
X63835000Y-31012631D01*
X63835000Y-31071939D01*
X63874774Y-31271898D01*
X63952795Y-31460256D01*
X64066063Y-31629774D01*
X64210226Y-31773937D01*
X64379744Y-31887205D01*
X64568102Y-31965226D01*
X64768061Y-32005000D01*
X64827370Y-32005000D01*
X69164721Y-36342352D01*
X69188578Y-36371422D01*
X69217648Y-36395279D01*
X69304607Y-36466645D01*
X69347879Y-36489774D01*
X69436985Y-36537402D01*
X69580622Y-36580974D01*
X69692574Y-36592000D01*
X69692577Y-36592000D01*
X69730000Y-36595686D01*
X69767423Y-36592000D01*
X77788289Y-36592000D01*
X77830226Y-36633937D01*
X77854912Y-36650432D01*
X77774608Y-36693355D01*
X77658578Y-36788578D01*
X77634721Y-36817648D01*
X75647370Y-38805000D01*
X75588061Y-38805000D01*
X75388102Y-38844774D01*
X75199744Y-38922795D01*
X75030226Y-39036063D01*
X74886063Y-39180226D01*
X74772795Y-39349744D01*
X74694774Y-39538102D01*
X74655000Y-39738061D01*
X74655000Y-39941939D01*
X74694774Y-40141898D01*
X74772795Y-40330256D01*
X74886063Y-40499774D01*
X75030226Y-40643937D01*
X75199744Y-40757205D01*
X75388102Y-40835226D01*
X75588061Y-40875000D01*
X75791939Y-40875000D01*
X75991898Y-40835226D01*
X76180256Y-40757205D01*
X76349774Y-40643937D01*
X76493937Y-40499774D01*
X76607205Y-40330256D01*
X76685226Y-40141898D01*
X76725000Y-39941939D01*
X76725000Y-39882630D01*
X78515631Y-38092000D01*
X79440369Y-38092000D01*
X75907370Y-41625000D01*
X75848061Y-41625000D01*
X75648102Y-41664774D01*
X75459744Y-41742795D01*
X75290226Y-41856063D01*
X75146063Y-42000226D01*
X75032795Y-42169744D01*
X74954774Y-42358102D01*
X74915000Y-42558061D01*
X74915000Y-42761939D01*
X74954774Y-42961898D01*
X75032795Y-43150256D01*
X75146063Y-43319774D01*
X75290226Y-43463937D01*
X75459744Y-43577205D01*
X75648102Y-43655226D01*
X75848061Y-43695000D01*
X76051939Y-43695000D01*
X76251898Y-43655226D01*
X76440256Y-43577205D01*
X76609774Y-43463937D01*
X76753937Y-43319774D01*
X76867205Y-43150256D01*
X76945226Y-42961898D01*
X76985000Y-42761939D01*
X76985000Y-42702630D01*
X77837630Y-41850000D01*
X88722815Y-41850000D01*
X88751487Y-42141111D01*
X88836401Y-42421034D01*
X88974294Y-42679014D01*
X89159866Y-42905134D01*
X89385986Y-43090706D01*
X89403374Y-43100000D01*
X89385986Y-43109294D01*
X89159866Y-43294866D01*
X88974294Y-43520986D01*
X88836401Y-43778966D01*
X88751487Y-44058889D01*
X88722815Y-44350000D01*
X88751487Y-44641111D01*
X88836401Y-44921034D01*
X88974294Y-45179014D01*
X89159866Y-45405134D01*
X89385986Y-45590706D01*
X89403374Y-45600000D01*
X89385986Y-45609294D01*
X89159866Y-45794866D01*
X88974294Y-46020986D01*
X88836401Y-46278966D01*
X88751487Y-46558889D01*
X88722815Y-46850000D01*
X88751487Y-47141111D01*
X88836401Y-47421034D01*
X88974294Y-47679014D01*
X89159866Y-47905134D01*
X89385986Y-48090706D01*
X89643966Y-48228599D01*
X89923889Y-48313513D01*
X90142050Y-48335000D01*
X90537950Y-48335000D01*
X90756111Y-48313513D01*
X91036034Y-48228599D01*
X91294014Y-48090706D01*
X91520134Y-47905134D01*
X91705706Y-47679014D01*
X91843599Y-47421034D01*
X91928513Y-47141111D01*
X91957185Y-46850000D01*
X91928513Y-46558889D01*
X91843599Y-46278966D01*
X91705706Y-46020986D01*
X91520134Y-45794866D01*
X91294014Y-45609294D01*
X91276626Y-45600000D01*
X91294014Y-45590706D01*
X91520134Y-45405134D01*
X91705706Y-45179014D01*
X91843599Y-44921034D01*
X91928513Y-44641111D01*
X91957185Y-44350000D01*
X91928513Y-44058889D01*
X91843599Y-43778966D01*
X91705706Y-43520986D01*
X91520134Y-43294866D01*
X91294014Y-43109294D01*
X91276626Y-43100000D01*
X91294014Y-43090706D01*
X91520134Y-42905134D01*
X91705706Y-42679014D01*
X91843599Y-42421034D01*
X91928513Y-42141111D01*
X91957185Y-41850000D01*
X91928513Y-41558889D01*
X91843599Y-41278966D01*
X91705706Y-41020986D01*
X91524392Y-40800055D01*
X91559180Y-40789502D01*
X91669494Y-40730537D01*
X91766185Y-40651185D01*
X91845537Y-40554494D01*
X91904502Y-40444180D01*
X91940812Y-40324482D01*
X91953072Y-40200000D01*
X91950000Y-39635750D01*
X91791250Y-39477000D01*
X90467000Y-39477000D01*
X90467000Y-39497000D01*
X90213000Y-39497000D01*
X90213000Y-39477000D01*
X88888750Y-39477000D01*
X88730000Y-39635750D01*
X88726928Y-40200000D01*
X88739188Y-40324482D01*
X88775498Y-40444180D01*
X88834463Y-40554494D01*
X88913815Y-40651185D01*
X89010506Y-40730537D01*
X89120820Y-40789502D01*
X89155608Y-40800055D01*
X88974294Y-41020986D01*
X88836401Y-41278966D01*
X88751487Y-41558889D01*
X88722815Y-41850000D01*
X77837630Y-41850000D01*
X80335631Y-39352000D01*
X81058289Y-39352000D01*
X81100226Y-39393937D01*
X81269744Y-39507205D01*
X81458102Y-39585226D01*
X81658061Y-39625000D01*
X81861939Y-39625000D01*
X82061898Y-39585226D01*
X82250256Y-39507205D01*
X82419774Y-39393937D01*
X82563937Y-39249774D01*
X82677205Y-39080256D01*
X82755226Y-38891898D01*
X82795000Y-38691939D01*
X82795000Y-38488061D01*
X82755226Y-38288102D01*
X82677205Y-38099744D01*
X82568831Y-37937551D01*
X82647205Y-37820256D01*
X82725226Y-37631898D01*
X82765000Y-37431939D01*
X82765000Y-37228061D01*
X82725226Y-37028102D01*
X82647205Y-36839744D01*
X82533937Y-36670226D01*
X82389774Y-36526063D01*
X82220256Y-36412795D01*
X82031898Y-36334774D01*
X81831939Y-36295000D01*
X81628061Y-36295000D01*
X81428102Y-36334774D01*
X81239744Y-36412795D01*
X81070226Y-36526063D01*
X81028289Y-36568000D01*
X79215711Y-36568000D01*
X79293937Y-36489774D01*
X79407205Y-36320256D01*
X79485226Y-36131898D01*
X79525000Y-35931939D01*
X79525000Y-35728061D01*
X79485226Y-35528102D01*
X79407205Y-35339744D01*
X79293937Y-35170226D01*
X79149774Y-35026063D01*
X78980256Y-34912795D01*
X78791898Y-34834774D01*
X78591939Y-34795000D01*
X78388061Y-34795000D01*
X78188102Y-34834774D01*
X77999744Y-34912795D01*
X77830226Y-35026063D01*
X77788289Y-35068000D01*
X70045631Y-35068000D01*
X66275692Y-31298061D01*
X84215000Y-31298061D01*
X84215000Y-31501939D01*
X84254774Y-31701898D01*
X84332795Y-31890256D01*
X84446063Y-32059774D01*
X84488001Y-32101712D01*
X84488000Y-34042577D01*
X84484314Y-34080000D01*
X84488000Y-34117423D01*
X84488000Y-34117425D01*
X84499026Y-34229377D01*
X84542598Y-34373014D01*
X84542599Y-34373015D01*
X84613355Y-34505392D01*
X84652983Y-34553678D01*
X84708578Y-34621422D01*
X84737654Y-34645284D01*
X84793577Y-34701207D01*
X84789744Y-34702795D01*
X84620226Y-34816063D01*
X84476063Y-34960226D01*
X84362795Y-35129744D01*
X84284774Y-35318102D01*
X84245000Y-35518061D01*
X84245000Y-35721939D01*
X84284774Y-35921898D01*
X84362795Y-36110256D01*
X84476063Y-36279774D01*
X84620226Y-36423937D01*
X84789744Y-36537205D01*
X84978102Y-36615226D01*
X85108000Y-36641064D01*
X85108001Y-38408288D01*
X85066063Y-38450226D01*
X84952795Y-38619744D01*
X84874774Y-38808102D01*
X84835000Y-39008061D01*
X84835000Y-39211939D01*
X84874774Y-39411898D01*
X84952795Y-39600256D01*
X85066063Y-39769774D01*
X85210226Y-39913937D01*
X85379744Y-40027205D01*
X85568102Y-40105226D01*
X85768061Y-40145000D01*
X85971939Y-40145000D01*
X86171898Y-40105226D01*
X86360256Y-40027205D01*
X86529774Y-39913937D01*
X86673937Y-39769774D01*
X86787205Y-39600256D01*
X86865226Y-39411898D01*
X86905000Y-39211939D01*
X86905000Y-39015000D01*
X86991939Y-39015000D01*
X87191898Y-38975226D01*
X87380256Y-38897205D01*
X87549774Y-38783937D01*
X87693937Y-38639774D01*
X87787330Y-38500000D01*
X88726928Y-38500000D01*
X88730000Y-39064250D01*
X88888750Y-39223000D01*
X90213000Y-39223000D01*
X90213000Y-38023750D01*
X90467000Y-38023750D01*
X90467000Y-39223000D01*
X91791250Y-39223000D01*
X91950000Y-39064250D01*
X91953072Y-38500000D01*
X91940812Y-38375518D01*
X91904502Y-38255820D01*
X91845537Y-38145506D01*
X91766185Y-38048815D01*
X91669494Y-37969463D01*
X91559180Y-37910498D01*
X91439482Y-37874188D01*
X91315000Y-37861928D01*
X90625750Y-37865000D01*
X90467000Y-38023750D01*
X90213000Y-38023750D01*
X90054250Y-37865000D01*
X89365000Y-37861928D01*
X89240518Y-37874188D01*
X89120820Y-37910498D01*
X89010506Y-37969463D01*
X88913815Y-38048815D01*
X88834463Y-38145506D01*
X88775498Y-38255820D01*
X88739188Y-38375518D01*
X88726928Y-38500000D01*
X87787330Y-38500000D01*
X87807205Y-38470256D01*
X87885226Y-38281898D01*
X87925000Y-38081939D01*
X87925000Y-37878061D01*
X87885226Y-37678102D01*
X87807205Y-37489744D01*
X87693937Y-37320226D01*
X87652000Y-37278289D01*
X87652000Y-35757422D01*
X87655686Y-35719999D01*
X87651808Y-35680622D01*
X87640974Y-35570622D01*
X87639113Y-35564487D01*
X87873158Y-35517932D01*
X88143411Y-35405990D01*
X88386632Y-35243475D01*
X88593475Y-35036632D01*
X88710000Y-34862240D01*
X88826525Y-35036632D01*
X89033368Y-35243475D01*
X89276589Y-35405990D01*
X89546842Y-35517932D01*
X89833740Y-35575000D01*
X90126260Y-35575000D01*
X90413158Y-35517932D01*
X90683411Y-35405990D01*
X90926632Y-35243475D01*
X91133475Y-35036632D01*
X91295990Y-34793411D01*
X91407932Y-34523158D01*
X91465000Y-34236260D01*
X91465000Y-33943740D01*
X91407932Y-33656842D01*
X91295990Y-33386589D01*
X91133475Y-33143368D01*
X90926632Y-32936525D01*
X90752240Y-32820000D01*
X90926632Y-32703475D01*
X91133475Y-32496632D01*
X91295990Y-32253411D01*
X91407932Y-31983158D01*
X91465000Y-31696260D01*
X91465000Y-31403740D01*
X91407932Y-31116842D01*
X91295990Y-30846589D01*
X91133475Y-30603368D01*
X90926632Y-30396525D01*
X90752240Y-30280000D01*
X90926632Y-30163475D01*
X91133475Y-29956632D01*
X91295990Y-29713411D01*
X91407932Y-29443158D01*
X91465000Y-29156260D01*
X91465000Y-28863740D01*
X91407932Y-28576842D01*
X91295990Y-28306589D01*
X91133475Y-28063368D01*
X90926632Y-27856525D01*
X90683411Y-27694010D01*
X90413158Y-27582068D01*
X90126260Y-27525000D01*
X89833740Y-27525000D01*
X89546842Y-27582068D01*
X89276589Y-27694010D01*
X89033368Y-27856525D01*
X88901513Y-27988380D01*
X88879502Y-27915820D01*
X88820537Y-27805506D01*
X88741185Y-27708815D01*
X88644494Y-27629463D01*
X88534180Y-27570498D01*
X88414482Y-27534188D01*
X88290000Y-27521928D01*
X87725750Y-27525000D01*
X87567000Y-27683750D01*
X87567000Y-28883000D01*
X87587000Y-28883000D01*
X87587000Y-29137000D01*
X87567000Y-29137000D01*
X87567000Y-29157000D01*
X87313000Y-29157000D01*
X87313000Y-29137000D01*
X86113750Y-29137000D01*
X85955000Y-29295750D01*
X85951928Y-29860000D01*
X85964188Y-29984482D01*
X86000498Y-30104180D01*
X86059463Y-30214494D01*
X86138815Y-30311185D01*
X86235506Y-30390537D01*
X86345820Y-30449502D01*
X86418380Y-30471513D01*
X86286525Y-30603368D01*
X86124508Y-30845843D01*
X86053937Y-30740226D01*
X85909774Y-30596063D01*
X85740256Y-30482795D01*
X85551898Y-30404774D01*
X85351939Y-30365000D01*
X85148061Y-30365000D01*
X84948102Y-30404774D01*
X84759744Y-30482795D01*
X84590226Y-30596063D01*
X84446063Y-30740226D01*
X84332795Y-30909744D01*
X84254774Y-31098102D01*
X84215000Y-31298061D01*
X66275692Y-31298061D01*
X65905000Y-30927370D01*
X65905000Y-30868061D01*
X65865226Y-30668102D01*
X65787205Y-30479744D01*
X65673937Y-30310226D01*
X65529774Y-30166063D01*
X65360256Y-30052795D01*
X65171898Y-29974774D01*
X64971939Y-29935000D01*
X64912631Y-29935000D01*
X64308174Y-29330543D01*
X64318918Y-29314463D01*
X64442168Y-29016912D01*
X64505000Y-28701033D01*
X64505000Y-28378967D01*
X64461445Y-28160000D01*
X85951928Y-28160000D01*
X85955000Y-28724250D01*
X86113750Y-28883000D01*
X87313000Y-28883000D01*
X87313000Y-27683750D01*
X87154250Y-27525000D01*
X86590000Y-27521928D01*
X86465518Y-27534188D01*
X86345820Y-27570498D01*
X86235506Y-27629463D01*
X86138815Y-27708815D01*
X86059463Y-27805506D01*
X86000498Y-27915820D01*
X85964188Y-28035518D01*
X85951928Y-28160000D01*
X64461445Y-28160000D01*
X64442168Y-28063088D01*
X64318918Y-27765537D01*
X64139987Y-27497748D01*
X63912252Y-27270013D01*
X63644463Y-27091082D01*
X63346912Y-26967832D01*
X63031033Y-26905000D01*
X62708967Y-26905000D01*
X62393088Y-26967832D01*
X62095537Y-27091082D01*
X61827748Y-27270013D01*
X61600013Y-27497748D01*
X61421082Y-27765537D01*
X61297832Y-28063088D01*
X61235000Y-28378967D01*
X59998219Y-28378967D01*
X59967961Y-28158325D01*
X59862795Y-27853912D01*
X59769814Y-27679956D01*
X59505413Y-27584192D01*
X58549605Y-28540000D01*
X58190395Y-28540000D01*
X57234587Y-27584192D01*
X56970186Y-27679956D01*
X56829296Y-27969571D01*
X56747616Y-28281108D01*
X56728282Y-28602595D01*
X55425824Y-28602595D01*
X55426859Y-27404587D01*
X57414192Y-27404587D01*
X58370000Y-28360395D01*
X59325808Y-27404587D01*
X59230044Y-27140186D01*
X58940429Y-26999296D01*
X58628892Y-26917616D01*
X58307405Y-26898282D01*
X57988325Y-26942039D01*
X57683912Y-27047205D01*
X57509956Y-27140186D01*
X57414192Y-27404587D01*
X55426859Y-27404587D01*
X55429971Y-23802571D01*
X55456256Y-23534495D01*
X55765000Y-23534495D01*
X55765000Y-23925505D01*
X55841282Y-24309003D01*
X55990915Y-24670250D01*
X56208149Y-24995364D01*
X56484636Y-25271851D01*
X56809750Y-25489085D01*
X57170997Y-25638718D01*
X57554495Y-25715000D01*
X57945505Y-25715000D01*
X58329003Y-25638718D01*
X58690250Y-25489085D01*
X59015364Y-25271851D01*
X59291851Y-24995364D01*
X59509085Y-24670250D01*
X59658718Y-24309003D01*
X59735000Y-23925505D01*
X59735000Y-23534495D01*
X59658718Y-23150997D01*
X59509085Y-22789750D01*
X59291851Y-22464636D01*
X59015364Y-22188149D01*
X58690250Y-21970915D01*
X58329003Y-21821282D01*
X57945505Y-21745000D01*
X57554495Y-21745000D01*
X57170997Y-21821282D01*
X56809750Y-21970915D01*
X56484636Y-22188149D01*
X56208149Y-22464636D01*
X55990915Y-22789750D01*
X55841282Y-23150997D01*
X55765000Y-23534495D01*
X55456256Y-23534495D01*
X55477670Y-23316107D01*
X55609489Y-22879502D01*
X55823600Y-22476815D01*
X56111848Y-22123388D01*
X56463261Y-21832673D01*
X56864439Y-21615758D01*
X57300113Y-21480894D01*
X57784344Y-21430000D01*
X62737721Y-21430000D01*
X63029659Y-21458625D01*
G37*
%TD.AperFunction*%
%TD*%
M02*
