%TF.GenerationSoftware,KiCad,Pcbnew,(5.1.10)-1*%
%TF.CreationDate,2021-08-06T22:26:06+02:00*%
%TF.ProjectId,board,626f6172-642e-46b6-9963-61645f706362,0.2*%
%TF.SameCoordinates,Original*%
%TF.FileFunction,Other,Fab,Top*%
%FSLAX46Y46*%
G04 Gerber Fmt 4.6, Leading zero omitted, Abs format (unit mm)*
G04 Created by KiCad (PCBNEW (5.1.10)-1) date 2021-08-06 22:26:06*
%MOMM*%
%LPD*%
G01*
G04 APERTURE LIST*
%ADD10C,0.150000*%
%ADD11C,0.100000*%
%ADD12C,0.080000*%
%ADD13C,0.060000*%
%ADD14C,0.120000*%
G04 APERTURE END LIST*
D10*
X56770000Y-22770000D02*
X93300000Y-22770000D01*
X56770000Y-59510000D02*
X56770000Y-22770000D01*
X93300000Y-59510000D02*
X56770000Y-59510000D01*
X93300000Y-22770000D02*
X93300000Y-59510000D01*
D11*
%TO.C,SW1*%
X62635564Y-31790000D02*
G75*
G03*
X62635564Y-31790000I-2015564J0D01*
G01*
X57620000Y-34790000D02*
X57620000Y-31790000D01*
X63620000Y-34790000D02*
X57620000Y-34790000D01*
X63620000Y-28790000D02*
X63620000Y-34790000D01*
X57620000Y-28790000D02*
X63620000Y-28790000D01*
X57620000Y-31790000D02*
X57620000Y-28790000D01*
%TO.C,J6*%
X86170000Y-29010000D02*
X87440000Y-27740000D01*
X86170000Y-35360000D02*
X86170000Y-29010000D01*
X91250000Y-35360000D02*
X86170000Y-35360000D01*
X91250000Y-27740000D02*
X91250000Y-35360000D01*
X87440000Y-27740000D02*
X91250000Y-27740000D01*
%TO.C,J5*%
X72720000Y-55200000D02*
X73345000Y-56200000D01*
X72095000Y-56200000D02*
X72720000Y-55200000D01*
X76470000Y-56200000D02*
X73970000Y-56200000D01*
X76470000Y-54530000D02*
X76470000Y-56200000D01*
X77670000Y-54530000D02*
X76470000Y-54530000D01*
X77670000Y-63200000D02*
X77670000Y-54530000D01*
X73970000Y-63200000D02*
X77670000Y-63200000D01*
X71470000Y-56200000D02*
X73970000Y-56200000D01*
X71470000Y-54530000D02*
X71470000Y-56200000D01*
X70270000Y-54530000D02*
X71470000Y-54530000D01*
X70270000Y-63200000D02*
X70270000Y-54530000D01*
X73970000Y-63200000D02*
X70270000Y-63200000D01*
%TO.C,C1*%
X78615000Y-58530000D02*
X78615000Y-56530000D01*
X79865000Y-58530000D02*
X78615000Y-58530000D01*
X79865000Y-56530000D02*
X79865000Y-58530000D01*
X78615000Y-56530000D02*
X79865000Y-56530000D01*
%TO.C,R5*%
X64097500Y-54385000D02*
X64097500Y-55635000D01*
X64097500Y-55635000D02*
X62097500Y-55635000D01*
X62097500Y-55635000D02*
X62097500Y-54385000D01*
X62097500Y-54385000D02*
X64097500Y-54385000D01*
%TO.C,D3*%
X62187500Y-58290000D02*
X62187500Y-59090000D01*
X63787500Y-58290000D02*
X62187500Y-58290000D01*
X63787500Y-58790000D02*
X63787500Y-58290000D01*
X63487500Y-59090000D02*
X63787500Y-58790000D01*
X62187500Y-59090000D02*
X63487500Y-59090000D01*
%TO.C,D1*%
X67087500Y-58290000D02*
X67087500Y-59090000D01*
X68687500Y-58290000D02*
X67087500Y-58290000D01*
X68687500Y-58790000D02*
X68687500Y-58290000D01*
X68387500Y-59090000D02*
X68687500Y-58790000D01*
X67087500Y-59090000D02*
X68387500Y-59090000D01*
%TO.C,D2*%
X92500000Y-52987500D02*
X91700000Y-52987500D01*
X92500000Y-54587500D02*
X92500000Y-52987500D01*
X92000000Y-54587500D02*
X92500000Y-54587500D01*
X91700000Y-54287500D02*
X92000000Y-54587500D01*
X91700000Y-52987500D02*
X91700000Y-54287500D01*
%TO.C,R4*%
X67012500Y-54375000D02*
X69012500Y-54375000D01*
X67012500Y-55625000D02*
X67012500Y-54375000D01*
X69012500Y-55625000D02*
X67012500Y-55625000D01*
X69012500Y-54375000D02*
X69012500Y-55625000D01*
%TO.C,U2*%
X88700000Y-56900000D02*
X82000000Y-56900000D01*
X82000000Y-53200000D02*
X82000000Y-56900000D01*
X88700000Y-54200000D02*
X88700000Y-56900000D01*
X87700000Y-53200000D02*
X82000000Y-53200000D01*
X87700000Y-53200000D02*
X88700000Y-54200000D01*
%TO.C,U1*%
X66020000Y-27670000D02*
X66520000Y-27170000D01*
X66520000Y-27170000D02*
X66020000Y-26670000D01*
X66020000Y-27670000D02*
X66020000Y-46450000D01*
X66020000Y-20945000D02*
X84020000Y-20945000D01*
X66020000Y-20945000D02*
X66020000Y-26670000D01*
X66020000Y-46450000D02*
X84020000Y-46450000D01*
X84020000Y-46450000D02*
X84020000Y-20945000D01*
%TO.C,R3*%
X85685000Y-47947500D02*
X85685000Y-49947500D01*
X84435000Y-47947500D02*
X85685000Y-47947500D01*
X84435000Y-49947500D02*
X84435000Y-47947500D01*
X85685000Y-49947500D02*
X84435000Y-49947500D01*
%TO.C,R2*%
X89345000Y-54997500D02*
X89345000Y-52997500D01*
X90595000Y-54997500D02*
X89345000Y-54997500D01*
X90595000Y-52997500D02*
X90595000Y-54997500D01*
X89345000Y-52997500D02*
X90595000Y-52997500D01*
%TO.C,R1*%
X79785000Y-47897500D02*
X79785000Y-49897500D01*
X78535000Y-47897500D02*
X79785000Y-47897500D01*
X78535000Y-49897500D02*
X78535000Y-47897500D01*
X79785000Y-49897500D02*
X78535000Y-49897500D01*
%TO.C,J4*%
X61905000Y-37140000D02*
X62540000Y-37775000D01*
X57460000Y-37140000D02*
X61905000Y-37140000D01*
X57460000Y-39680000D02*
X57460000Y-37140000D01*
X62540000Y-39680000D02*
X57460000Y-39680000D01*
X62540000Y-37775000D02*
X62540000Y-39680000D01*
%TO.C,J3*%
X58400000Y-50740000D02*
X57400000Y-50115000D01*
X57400000Y-51365000D02*
X58400000Y-50740000D01*
X57400000Y-40790000D02*
X57400000Y-53190000D01*
X63150000Y-40790000D02*
X57400000Y-40790000D01*
X63150000Y-53190000D02*
X63150000Y-40790000D01*
X57400000Y-53190000D02*
X63150000Y-53190000D01*
%TO.C,J2*%
X91690000Y-39350000D02*
X92690000Y-39975000D01*
X92690000Y-38725000D02*
X91690000Y-39350000D01*
X92690000Y-49300000D02*
X92690000Y-36900000D01*
X86940000Y-49300000D02*
X92690000Y-49300000D01*
X86940000Y-36900000D02*
X86940000Y-49300000D01*
X92690000Y-36900000D02*
X86940000Y-36900000D01*
%TO.C,J1*%
X73260000Y-52520000D02*
X72635000Y-53520000D01*
X73885000Y-53520000D02*
X73260000Y-52520000D01*
X65810000Y-53520000D02*
X75710000Y-53520000D01*
X65810000Y-47770000D02*
X65810000Y-53520000D01*
X75710000Y-47770000D02*
X65810000Y-47770000D01*
X75710000Y-53520000D02*
X75710000Y-47770000D01*
%TO.C,C5*%
X83425000Y-47920000D02*
X83425000Y-49920000D01*
X82175000Y-47920000D02*
X83425000Y-47920000D01*
X82175000Y-49920000D02*
X82175000Y-47920000D01*
X83425000Y-49920000D02*
X82175000Y-49920000D01*
%TO.C,C4*%
X79855000Y-52640000D02*
X79855000Y-54640000D01*
X78605000Y-52640000D02*
X79855000Y-52640000D01*
X78605000Y-54640000D02*
X78605000Y-52640000D01*
X79855000Y-54640000D02*
X78605000Y-54640000D01*
%TO.C,C2*%
X64815000Y-37440000D02*
X64815000Y-39440000D01*
X63565000Y-37440000D02*
X64815000Y-37440000D01*
X63565000Y-39440000D02*
X63565000Y-37440000D01*
X64815000Y-39440000D02*
X63565000Y-39440000D01*
%TD*%
%TO.C,SW1*%
D10*
X65474761Y-34790000D02*
X65522380Y-34647142D01*
X65522380Y-34409047D01*
X65474761Y-34313809D01*
X65427142Y-34266190D01*
X65331904Y-34218571D01*
X65236666Y-34218571D01*
X65141428Y-34266190D01*
X65093809Y-34313809D01*
X65046190Y-34409047D01*
X64998571Y-34599523D01*
X64950952Y-34694761D01*
X64903333Y-34742380D01*
X64808095Y-34790000D01*
X64712857Y-34790000D01*
X64617619Y-34742380D01*
X64570000Y-34694761D01*
X64522380Y-34599523D01*
X64522380Y-34361428D01*
X64570000Y-34218571D01*
X64522380Y-33885238D02*
X65522380Y-33647142D01*
X64808095Y-33456666D01*
X65522380Y-33266190D01*
X64522380Y-33028095D01*
X65617619Y-32885238D02*
X65617619Y-32123333D01*
X65522380Y-31313809D02*
X65046190Y-31647142D01*
X65522380Y-31885238D02*
X64522380Y-31885238D01*
X64522380Y-31504285D01*
X64570000Y-31409047D01*
X64617619Y-31361428D01*
X64712857Y-31313809D01*
X64855714Y-31313809D01*
X64950952Y-31361428D01*
X64998571Y-31409047D01*
X65046190Y-31504285D01*
X65046190Y-31885238D01*
X64998571Y-30885238D02*
X64998571Y-30551904D01*
X65522380Y-30409047D02*
X65522380Y-30885238D01*
X64522380Y-30885238D01*
X64522380Y-30409047D01*
X65474761Y-30028095D02*
X65522380Y-29885238D01*
X65522380Y-29647142D01*
X65474761Y-29551904D01*
X65427142Y-29504285D01*
X65331904Y-29456666D01*
X65236666Y-29456666D01*
X65141428Y-29504285D01*
X65093809Y-29551904D01*
X65046190Y-29647142D01*
X64998571Y-29837619D01*
X64950952Y-29932857D01*
X64903333Y-29980476D01*
X64808095Y-30028095D01*
X64712857Y-30028095D01*
X64617619Y-29980476D01*
X64570000Y-29932857D01*
X64522380Y-29837619D01*
X64522380Y-29599523D01*
X64570000Y-29456666D01*
X64998571Y-29028095D02*
X64998571Y-28694761D01*
X65522380Y-28551904D02*
X65522380Y-29028095D01*
X64522380Y-29028095D01*
X64522380Y-28551904D01*
X64522380Y-28266190D02*
X64522380Y-27694761D01*
X65522380Y-27980476D02*
X64522380Y-27980476D01*
X61024761Y-33123333D02*
X61072380Y-32980476D01*
X61072380Y-32742380D01*
X61024761Y-32647142D01*
X60977142Y-32599523D01*
X60881904Y-32551904D01*
X60786666Y-32551904D01*
X60691428Y-32599523D01*
X60643809Y-32647142D01*
X60596190Y-32742380D01*
X60548571Y-32932857D01*
X60500952Y-33028095D01*
X60453333Y-33075714D01*
X60358095Y-33123333D01*
X60262857Y-33123333D01*
X60167619Y-33075714D01*
X60120000Y-33028095D01*
X60072380Y-32932857D01*
X60072380Y-32694761D01*
X60120000Y-32551904D01*
X60072380Y-32218571D02*
X61072380Y-31980476D01*
X60358095Y-31790000D01*
X61072380Y-31599523D01*
X60072380Y-31361428D01*
X61072380Y-30456666D02*
X61072380Y-31028095D01*
X61072380Y-30742380D02*
X60072380Y-30742380D01*
X60215238Y-30837619D01*
X60310476Y-30932857D01*
X60358095Y-31028095D01*
%TO.C,J6*%
X85043333Y-36777142D02*
X84995714Y-36824761D01*
X84852857Y-36872380D01*
X84757619Y-36872380D01*
X84614761Y-36824761D01*
X84519523Y-36729523D01*
X84471904Y-36634285D01*
X84424285Y-36443809D01*
X84424285Y-36300952D01*
X84471904Y-36110476D01*
X84519523Y-36015238D01*
X84614761Y-35920000D01*
X84757619Y-35872380D01*
X84852857Y-35872380D01*
X84995714Y-35920000D01*
X85043333Y-35967619D01*
X85662380Y-35872380D02*
X85852857Y-35872380D01*
X85948095Y-35920000D01*
X86043333Y-36015238D01*
X86090952Y-36205714D01*
X86090952Y-36539047D01*
X86043333Y-36729523D01*
X85948095Y-36824761D01*
X85852857Y-36872380D01*
X85662380Y-36872380D01*
X85567142Y-36824761D01*
X85471904Y-36729523D01*
X85424285Y-36539047D01*
X85424285Y-36205714D01*
X85471904Y-36015238D01*
X85567142Y-35920000D01*
X85662380Y-35872380D01*
X86519523Y-36872380D02*
X86519523Y-35872380D01*
X87090952Y-36872380D01*
X87090952Y-35872380D01*
X87567142Y-36872380D02*
X87567142Y-35872380D01*
X88138571Y-36872380D01*
X88138571Y-35872380D01*
X88376666Y-36967619D02*
X89138571Y-36967619D01*
X89376666Y-36872380D02*
X89376666Y-35872380D01*
X89757619Y-35872380D01*
X89852857Y-35920000D01*
X89900476Y-35967619D01*
X89948095Y-36062857D01*
X89948095Y-36205714D01*
X89900476Y-36300952D01*
X89852857Y-36348571D01*
X89757619Y-36396190D01*
X89376666Y-36396190D01*
X90948095Y-36872380D02*
X90614761Y-36396190D01*
X90376666Y-36872380D02*
X90376666Y-35872380D01*
X90757619Y-35872380D01*
X90852857Y-35920000D01*
X90900476Y-35967619D01*
X90948095Y-36062857D01*
X90948095Y-36205714D01*
X90900476Y-36300952D01*
X90852857Y-36348571D01*
X90757619Y-36396190D01*
X90376666Y-36396190D01*
X91567142Y-35872380D02*
X91757619Y-35872380D01*
X91852857Y-35920000D01*
X91948095Y-36015238D01*
X91995714Y-36205714D01*
X91995714Y-36539047D01*
X91948095Y-36729523D01*
X91852857Y-36824761D01*
X91757619Y-36872380D01*
X91567142Y-36872380D01*
X91471904Y-36824761D01*
X91376666Y-36729523D01*
X91329047Y-36539047D01*
X91329047Y-36205714D01*
X91376666Y-36015238D01*
X91471904Y-35920000D01*
X91567142Y-35872380D01*
X92948095Y-35920000D02*
X92852857Y-35872380D01*
X92710000Y-35872380D01*
X92567142Y-35920000D01*
X92471904Y-36015238D01*
X92424285Y-36110476D01*
X92376666Y-36300952D01*
X92376666Y-36443809D01*
X92424285Y-36634285D01*
X92471904Y-36729523D01*
X92567142Y-36824761D01*
X92710000Y-36872380D01*
X92805238Y-36872380D01*
X92948095Y-36824761D01*
X92995714Y-36777142D01*
X92995714Y-36443809D01*
X92805238Y-36443809D01*
X88162380Y-31883333D02*
X88876666Y-31883333D01*
X89019523Y-31930952D01*
X89114761Y-32026190D01*
X89162380Y-32169047D01*
X89162380Y-32264285D01*
X88162380Y-30978571D02*
X88162380Y-31169047D01*
X88210000Y-31264285D01*
X88257619Y-31311904D01*
X88400476Y-31407142D01*
X88590952Y-31454761D01*
X88971904Y-31454761D01*
X89067142Y-31407142D01*
X89114761Y-31359523D01*
X89162380Y-31264285D01*
X89162380Y-31073809D01*
X89114761Y-30978571D01*
X89067142Y-30930952D01*
X88971904Y-30883333D01*
X88733809Y-30883333D01*
X88638571Y-30930952D01*
X88590952Y-30978571D01*
X88543333Y-31073809D01*
X88543333Y-31264285D01*
X88590952Y-31359523D01*
X88638571Y-31407142D01*
X88733809Y-31454761D01*
%TO.C,J5*%
X71623809Y-60912380D02*
X71623809Y-59912380D01*
X72004761Y-59912380D01*
X72100000Y-59960000D01*
X72147619Y-60007619D01*
X72195238Y-60102857D01*
X72195238Y-60245714D01*
X72147619Y-60340952D01*
X72100000Y-60388571D01*
X72004761Y-60436190D01*
X71623809Y-60436190D01*
X72528571Y-59912380D02*
X72766666Y-60912380D01*
X72957142Y-60198095D01*
X73147619Y-60912380D01*
X73385714Y-59912380D01*
X74338095Y-60912380D02*
X74004761Y-60436190D01*
X73766666Y-60912380D02*
X73766666Y-59912380D01*
X74147619Y-59912380D01*
X74242857Y-59960000D01*
X74290476Y-60007619D01*
X74338095Y-60102857D01*
X74338095Y-60245714D01*
X74290476Y-60340952D01*
X74242857Y-60388571D01*
X74147619Y-60436190D01*
X73766666Y-60436190D01*
X74528571Y-61007619D02*
X75290476Y-61007619D01*
X75528571Y-60912380D02*
X75528571Y-59912380D01*
X76004761Y-60912380D02*
X76004761Y-59912380D01*
X76576190Y-60912380D01*
X76576190Y-59912380D01*
X73636666Y-56902380D02*
X73636666Y-57616666D01*
X73589047Y-57759523D01*
X73493809Y-57854761D01*
X73350952Y-57902380D01*
X73255714Y-57902380D01*
X74589047Y-56902380D02*
X74112857Y-56902380D01*
X74065238Y-57378571D01*
X74112857Y-57330952D01*
X74208095Y-57283333D01*
X74446190Y-57283333D01*
X74541428Y-57330952D01*
X74589047Y-57378571D01*
X74636666Y-57473809D01*
X74636666Y-57711904D01*
X74589047Y-57807142D01*
X74541428Y-57854761D01*
X74446190Y-57902380D01*
X74208095Y-57902380D01*
X74112857Y-57854761D01*
X74065238Y-57807142D01*
%TO.C,C1*%
X78012380Y-58601428D02*
X78012380Y-59172857D01*
X78012380Y-58887142D02*
X77012380Y-58887142D01*
X77155238Y-58982380D01*
X77250476Y-59077619D01*
X77298095Y-59172857D01*
X77012380Y-57982380D02*
X77012380Y-57887142D01*
X77060000Y-57791904D01*
X77107619Y-57744285D01*
X77202857Y-57696666D01*
X77393333Y-57649047D01*
X77631428Y-57649047D01*
X77821904Y-57696666D01*
X77917142Y-57744285D01*
X77964761Y-57791904D01*
X78012380Y-57887142D01*
X78012380Y-57982380D01*
X77964761Y-58077619D01*
X77917142Y-58125238D01*
X77821904Y-58172857D01*
X77631428Y-58220476D01*
X77393333Y-58220476D01*
X77202857Y-58172857D01*
X77107619Y-58125238D01*
X77060000Y-58077619D01*
X77012380Y-57982380D01*
X77345714Y-56791904D02*
X78012380Y-56791904D01*
X77345714Y-57220476D02*
X77869523Y-57220476D01*
X77964761Y-57172857D01*
X78012380Y-57077619D01*
X78012380Y-56934761D01*
X77964761Y-56839523D01*
X77917142Y-56791904D01*
X77488571Y-55982380D02*
X77488571Y-56315714D01*
X78012380Y-56315714D02*
X77012380Y-56315714D01*
X77012380Y-55839523D01*
D12*
X79418571Y-57613333D02*
X79442380Y-57637142D01*
X79466190Y-57708571D01*
X79466190Y-57756190D01*
X79442380Y-57827619D01*
X79394761Y-57875238D01*
X79347142Y-57899047D01*
X79251904Y-57922857D01*
X79180476Y-57922857D01*
X79085238Y-57899047D01*
X79037619Y-57875238D01*
X78990000Y-57827619D01*
X78966190Y-57756190D01*
X78966190Y-57708571D01*
X78990000Y-57637142D01*
X79013809Y-57613333D01*
X79466190Y-57137142D02*
X79466190Y-57422857D01*
X79466190Y-57280000D02*
X78966190Y-57280000D01*
X79037619Y-57327619D01*
X79085238Y-57375238D01*
X79109047Y-57422857D01*
%TO.C,R5*%
D10*
X61944285Y-53542380D02*
X62563333Y-53542380D01*
X62230000Y-53923333D01*
X62372857Y-53923333D01*
X62468095Y-53970952D01*
X62515714Y-54018571D01*
X62563333Y-54113809D01*
X62563333Y-54351904D01*
X62515714Y-54447142D01*
X62468095Y-54494761D01*
X62372857Y-54542380D01*
X62087142Y-54542380D01*
X61991904Y-54494761D01*
X61944285Y-54447142D01*
X62896666Y-53542380D02*
X63515714Y-53542380D01*
X63182380Y-53923333D01*
X63325238Y-53923333D01*
X63420476Y-53970952D01*
X63468095Y-54018571D01*
X63515714Y-54113809D01*
X63515714Y-54351904D01*
X63468095Y-54447142D01*
X63420476Y-54494761D01*
X63325238Y-54542380D01*
X63039523Y-54542380D01*
X62944285Y-54494761D01*
X62896666Y-54447142D01*
X64134761Y-53542380D02*
X64230000Y-53542380D01*
X64325238Y-53590000D01*
X64372857Y-53637619D01*
X64420476Y-53732857D01*
X64468095Y-53923333D01*
X64468095Y-54161428D01*
X64420476Y-54351904D01*
X64372857Y-54447142D01*
X64325238Y-54494761D01*
X64230000Y-54542380D01*
X64134761Y-54542380D01*
X64039523Y-54494761D01*
X63991904Y-54447142D01*
X63944285Y-54351904D01*
X63896666Y-54161428D01*
X63896666Y-53923333D01*
X63944285Y-53732857D01*
X63991904Y-53637619D01*
X64039523Y-53590000D01*
X64134761Y-53542380D01*
D12*
X63014166Y-55236190D02*
X62847500Y-54998095D01*
X62728452Y-55236190D02*
X62728452Y-54736190D01*
X62918928Y-54736190D01*
X62966547Y-54760000D01*
X62990357Y-54783809D01*
X63014166Y-54831428D01*
X63014166Y-54902857D01*
X62990357Y-54950476D01*
X62966547Y-54974285D01*
X62918928Y-54998095D01*
X62728452Y-54998095D01*
X63466547Y-54736190D02*
X63228452Y-54736190D01*
X63204642Y-54974285D01*
X63228452Y-54950476D01*
X63276071Y-54926666D01*
X63395119Y-54926666D01*
X63442738Y-54950476D01*
X63466547Y-54974285D01*
X63490357Y-55021904D01*
X63490357Y-55140952D01*
X63466547Y-55188571D01*
X63442738Y-55212380D01*
X63395119Y-55236190D01*
X63276071Y-55236190D01*
X63228452Y-55212380D01*
X63204642Y-55188571D01*
%TO.C,D3*%
D10*
X62250952Y-59944761D02*
X62393809Y-59992380D01*
X62631904Y-59992380D01*
X62727142Y-59944761D01*
X62774761Y-59897142D01*
X62822380Y-59801904D01*
X62822380Y-59706666D01*
X62774761Y-59611428D01*
X62727142Y-59563809D01*
X62631904Y-59516190D01*
X62441428Y-59468571D01*
X62346190Y-59420952D01*
X62298571Y-59373333D01*
X62250952Y-59278095D01*
X62250952Y-59182857D01*
X62298571Y-59087619D01*
X62346190Y-59040000D01*
X62441428Y-58992380D01*
X62679523Y-58992380D01*
X62822380Y-59040000D01*
X63727142Y-59992380D02*
X63250952Y-59992380D01*
X63250952Y-58992380D01*
X64060476Y-59468571D02*
X64393809Y-59468571D01*
X64536666Y-59992380D02*
X64060476Y-59992380D01*
X64060476Y-58992380D01*
X64536666Y-58992380D01*
X64965238Y-59992380D02*
X64965238Y-58992380D01*
X65203333Y-58992380D01*
X65346190Y-59040000D01*
X65441428Y-59135238D01*
X65489047Y-59230476D01*
X65536666Y-59420952D01*
X65536666Y-59563809D01*
X65489047Y-59754285D01*
X65441428Y-59849523D01*
X65346190Y-59944761D01*
X65203333Y-59992380D01*
X64965238Y-59992380D01*
X65917619Y-59087619D02*
X65965238Y-59040000D01*
X66060476Y-58992380D01*
X66298571Y-58992380D01*
X66393809Y-59040000D01*
X66441428Y-59087619D01*
X66489047Y-59182857D01*
X66489047Y-59278095D01*
X66441428Y-59420952D01*
X65870000Y-59992380D01*
X66489047Y-59992380D01*
D13*
X62692261Y-58870952D02*
X62692261Y-58470952D01*
X62787500Y-58470952D01*
X62844642Y-58490000D01*
X62882738Y-58528095D01*
X62901785Y-58566190D01*
X62920833Y-58642380D01*
X62920833Y-58699523D01*
X62901785Y-58775714D01*
X62882738Y-58813809D01*
X62844642Y-58851904D01*
X62787500Y-58870952D01*
X62692261Y-58870952D01*
X63054166Y-58470952D02*
X63301785Y-58470952D01*
X63168452Y-58623333D01*
X63225595Y-58623333D01*
X63263690Y-58642380D01*
X63282738Y-58661428D01*
X63301785Y-58699523D01*
X63301785Y-58794761D01*
X63282738Y-58832857D01*
X63263690Y-58851904D01*
X63225595Y-58870952D01*
X63111309Y-58870952D01*
X63073214Y-58851904D01*
X63054166Y-58832857D01*
%TO.C,D1*%
D10*
X67600952Y-58194761D02*
X67743809Y-58242380D01*
X67981904Y-58242380D01*
X68077142Y-58194761D01*
X68124761Y-58147142D01*
X68172380Y-58051904D01*
X68172380Y-57956666D01*
X68124761Y-57861428D01*
X68077142Y-57813809D01*
X67981904Y-57766190D01*
X67791428Y-57718571D01*
X67696190Y-57670952D01*
X67648571Y-57623333D01*
X67600952Y-57528095D01*
X67600952Y-57432857D01*
X67648571Y-57337619D01*
X67696190Y-57290000D01*
X67791428Y-57242380D01*
X68029523Y-57242380D01*
X68172380Y-57290000D01*
X69077142Y-58242380D02*
X68600952Y-58242380D01*
X68600952Y-57242380D01*
X69410476Y-57718571D02*
X69743809Y-57718571D01*
X69886666Y-58242380D02*
X69410476Y-58242380D01*
X69410476Y-57242380D01*
X69886666Y-57242380D01*
X70315238Y-58242380D02*
X70315238Y-57242380D01*
X70553333Y-57242380D01*
X70696190Y-57290000D01*
X70791428Y-57385238D01*
X70839047Y-57480476D01*
X70886666Y-57670952D01*
X70886666Y-57813809D01*
X70839047Y-58004285D01*
X70791428Y-58099523D01*
X70696190Y-58194761D01*
X70553333Y-58242380D01*
X70315238Y-58242380D01*
X71839047Y-58242380D02*
X71267619Y-58242380D01*
X71553333Y-58242380D02*
X71553333Y-57242380D01*
X71458095Y-57385238D01*
X71362857Y-57480476D01*
X71267619Y-57528095D01*
D13*
X67592261Y-58870952D02*
X67592261Y-58470952D01*
X67687500Y-58470952D01*
X67744642Y-58490000D01*
X67782738Y-58528095D01*
X67801785Y-58566190D01*
X67820833Y-58642380D01*
X67820833Y-58699523D01*
X67801785Y-58775714D01*
X67782738Y-58813809D01*
X67744642Y-58851904D01*
X67687500Y-58870952D01*
X67592261Y-58870952D01*
X68201785Y-58870952D02*
X67973214Y-58870952D01*
X68087500Y-58870952D02*
X68087500Y-58470952D01*
X68049404Y-58528095D01*
X68011309Y-58566190D01*
X67973214Y-58585238D01*
%TO.C,D2*%
D10*
X93982380Y-55406547D02*
X92982380Y-55406547D01*
X92982380Y-55025595D01*
X93030000Y-54930357D01*
X93077619Y-54882738D01*
X93172857Y-54835119D01*
X93315714Y-54835119D01*
X93410952Y-54882738D01*
X93458571Y-54930357D01*
X93506190Y-55025595D01*
X93506190Y-55406547D01*
X93982380Y-53930357D02*
X93982380Y-54406547D01*
X92982380Y-54406547D01*
X93458571Y-53597023D02*
X93458571Y-53263690D01*
X93982380Y-53120833D02*
X93982380Y-53597023D01*
X92982380Y-53597023D01*
X92982380Y-53120833D01*
X93982380Y-52692261D02*
X92982380Y-52692261D01*
X92982380Y-52454166D01*
X93030000Y-52311309D01*
X93125238Y-52216071D01*
X93220476Y-52168452D01*
X93410952Y-52120833D01*
X93553809Y-52120833D01*
X93744285Y-52168452D01*
X93839523Y-52216071D01*
X93934761Y-52311309D01*
X93982380Y-52454166D01*
X93982380Y-52692261D01*
D13*
X92280952Y-54082738D02*
X91880952Y-54082738D01*
X91880952Y-53987500D01*
X91900000Y-53930357D01*
X91938095Y-53892261D01*
X91976190Y-53873214D01*
X92052380Y-53854166D01*
X92109523Y-53854166D01*
X92185714Y-53873214D01*
X92223809Y-53892261D01*
X92261904Y-53930357D01*
X92280952Y-53987500D01*
X92280952Y-54082738D01*
X91919047Y-53701785D02*
X91900000Y-53682738D01*
X91880952Y-53644642D01*
X91880952Y-53549404D01*
X91900000Y-53511309D01*
X91919047Y-53492261D01*
X91957142Y-53473214D01*
X91995238Y-53473214D01*
X92052380Y-53492261D01*
X92280952Y-53720833D01*
X92280952Y-53473214D01*
%TO.C,R4*%
D10*
X66726785Y-52802380D02*
X67345833Y-52802380D01*
X67012500Y-53183333D01*
X67155357Y-53183333D01*
X67250595Y-53230952D01*
X67298214Y-53278571D01*
X67345833Y-53373809D01*
X67345833Y-53611904D01*
X67298214Y-53707142D01*
X67250595Y-53754761D01*
X67155357Y-53802380D01*
X66869642Y-53802380D01*
X66774404Y-53754761D01*
X66726785Y-53707142D01*
X67679166Y-52802380D02*
X68298214Y-52802380D01*
X67964880Y-53183333D01*
X68107738Y-53183333D01*
X68202976Y-53230952D01*
X68250595Y-53278571D01*
X68298214Y-53373809D01*
X68298214Y-53611904D01*
X68250595Y-53707142D01*
X68202976Y-53754761D01*
X68107738Y-53802380D01*
X67822023Y-53802380D01*
X67726785Y-53754761D01*
X67679166Y-53707142D01*
X68917261Y-52802380D02*
X69012500Y-52802380D01*
X69107738Y-52850000D01*
X69155357Y-52897619D01*
X69202976Y-52992857D01*
X69250595Y-53183333D01*
X69250595Y-53421428D01*
X69202976Y-53611904D01*
X69155357Y-53707142D01*
X69107738Y-53754761D01*
X69012500Y-53802380D01*
X68917261Y-53802380D01*
X68822023Y-53754761D01*
X68774404Y-53707142D01*
X68726785Y-53611904D01*
X68679166Y-53421428D01*
X68679166Y-53183333D01*
X68726785Y-52992857D01*
X68774404Y-52897619D01*
X68822023Y-52850000D01*
X68917261Y-52802380D01*
D12*
X67929166Y-55226190D02*
X67762500Y-54988095D01*
X67643452Y-55226190D02*
X67643452Y-54726190D01*
X67833928Y-54726190D01*
X67881547Y-54750000D01*
X67905357Y-54773809D01*
X67929166Y-54821428D01*
X67929166Y-54892857D01*
X67905357Y-54940476D01*
X67881547Y-54964285D01*
X67833928Y-54988095D01*
X67643452Y-54988095D01*
X68357738Y-54892857D02*
X68357738Y-55226190D01*
X68238690Y-54702380D02*
X68119642Y-55059523D01*
X68429166Y-55059523D01*
%TO.C,2*%
D10*
X91482857Y-59012380D02*
X91482857Y-58012380D01*
X91816190Y-58726666D01*
X92149523Y-58012380D01*
X92149523Y-59012380D01*
X92625714Y-59012380D02*
X92625714Y-58012380D01*
X92625714Y-58488571D02*
X93197142Y-58488571D01*
X93197142Y-59012380D02*
X93197142Y-58012380D01*
X92354285Y-58067619D02*
X92401904Y-58020000D01*
X92497142Y-57972380D01*
X92735238Y-57972380D01*
X92830476Y-58020000D01*
X92878095Y-58067619D01*
X92925714Y-58162857D01*
X92925714Y-58258095D01*
X92878095Y-58400952D01*
X92306666Y-58972380D01*
X92925714Y-58972380D01*
%TO.C,3*%
X56852857Y-59022380D02*
X56852857Y-58022380D01*
X57186190Y-58736666D01*
X57519523Y-58022380D01*
X57519523Y-59022380D01*
X57995714Y-59022380D02*
X57995714Y-58022380D01*
X57995714Y-58498571D02*
X58567142Y-58498571D01*
X58567142Y-59022380D02*
X58567142Y-58022380D01*
X57676666Y-57982380D02*
X58295714Y-57982380D01*
X57962380Y-58363333D01*
X58105238Y-58363333D01*
X58200476Y-58410952D01*
X58248095Y-58458571D01*
X58295714Y-58553809D01*
X58295714Y-58791904D01*
X58248095Y-58887142D01*
X58200476Y-58934761D01*
X58105238Y-58982380D01*
X57819523Y-58982380D01*
X57724285Y-58934761D01*
X57676666Y-58887142D01*
%TO.C,4*%
X56892857Y-24222380D02*
X56892857Y-23222380D01*
X57226190Y-23936666D01*
X57559523Y-23222380D01*
X57559523Y-24222380D01*
X58035714Y-24222380D02*
X58035714Y-23222380D01*
X58035714Y-23698571D02*
X58607142Y-23698571D01*
X58607142Y-24222380D02*
X58607142Y-23222380D01*
X58240476Y-23515714D02*
X58240476Y-24182380D01*
X58002380Y-23134761D02*
X57764285Y-23849047D01*
X58383333Y-23849047D01*
%TO.C,1*%
X91472857Y-24232380D02*
X91472857Y-23232380D01*
X91806190Y-23946666D01*
X92139523Y-23232380D01*
X92139523Y-24232380D01*
X92615714Y-24232380D02*
X92615714Y-23232380D01*
X92615714Y-23708571D02*
X93187142Y-23708571D01*
X93187142Y-24232380D02*
X93187142Y-23232380D01*
X92915714Y-24192380D02*
X92344285Y-24192380D01*
X92630000Y-24192380D02*
X92630000Y-23192380D01*
X92534761Y-23335238D01*
X92439523Y-23430476D01*
X92344285Y-23478095D01*
%TO.C,U2*%
X78450000Y-54016666D02*
X78926190Y-54016666D01*
X78354761Y-54302380D02*
X78688095Y-53302380D01*
X79021428Y-54302380D01*
X79354761Y-54302380D02*
X79354761Y-53302380D01*
X79688095Y-54016666D01*
X80021428Y-53302380D01*
X80021428Y-54302380D01*
X80450000Y-54254761D02*
X80592857Y-54302380D01*
X80830952Y-54302380D01*
X80926190Y-54254761D01*
X80973809Y-54207142D01*
X81021428Y-54111904D01*
X81021428Y-54016666D01*
X80973809Y-53921428D01*
X80926190Y-53873809D01*
X80830952Y-53826190D01*
X80640476Y-53778571D01*
X80545238Y-53730952D01*
X80497619Y-53683333D01*
X80450000Y-53588095D01*
X80450000Y-53492857D01*
X80497619Y-53397619D01*
X80545238Y-53350000D01*
X80640476Y-53302380D01*
X80878571Y-53302380D01*
X81021428Y-53350000D01*
X81973809Y-54302380D02*
X81402380Y-54302380D01*
X81688095Y-54302380D02*
X81688095Y-53302380D01*
X81592857Y-53445238D01*
X81497619Y-53540476D01*
X81402380Y-53588095D01*
X82926190Y-54302380D02*
X82354761Y-54302380D01*
X82640476Y-54302380D02*
X82640476Y-53302380D01*
X82545238Y-53445238D01*
X82450000Y-53540476D01*
X82354761Y-53588095D01*
X83878571Y-54302380D02*
X83307142Y-54302380D01*
X83592857Y-54302380D02*
X83592857Y-53302380D01*
X83497619Y-53445238D01*
X83402380Y-53540476D01*
X83307142Y-53588095D01*
X84211904Y-53302380D02*
X84878571Y-53302380D01*
X84450000Y-54302380D01*
X85259523Y-53921428D02*
X86021428Y-53921428D01*
X86402380Y-53302380D02*
X87021428Y-53302380D01*
X86688095Y-53683333D01*
X86830952Y-53683333D01*
X86926190Y-53730952D01*
X86973809Y-53778571D01*
X87021428Y-53873809D01*
X87021428Y-54111904D01*
X86973809Y-54207142D01*
X86926190Y-54254761D01*
X86830952Y-54302380D01*
X86545238Y-54302380D01*
X86450000Y-54254761D01*
X86402380Y-54207142D01*
X87450000Y-54207142D02*
X87497619Y-54254761D01*
X87450000Y-54302380D01*
X87402380Y-54254761D01*
X87450000Y-54207142D01*
X87450000Y-54302380D01*
X87830952Y-53302380D02*
X88450000Y-53302380D01*
X88116666Y-53683333D01*
X88259523Y-53683333D01*
X88354761Y-53730952D01*
X88402380Y-53778571D01*
X88450000Y-53873809D01*
X88450000Y-54111904D01*
X88402380Y-54207142D01*
X88354761Y-54254761D01*
X88259523Y-54302380D01*
X87973809Y-54302380D01*
X87878571Y-54254761D01*
X87830952Y-54207142D01*
D14*
X84740476Y-54611904D02*
X84740476Y-55259523D01*
X84778571Y-55335714D01*
X84816666Y-55373809D01*
X84892857Y-55411904D01*
X85045238Y-55411904D01*
X85121428Y-55373809D01*
X85159523Y-55335714D01*
X85197619Y-55259523D01*
X85197619Y-54611904D01*
X85540476Y-54688095D02*
X85578571Y-54650000D01*
X85654761Y-54611904D01*
X85845238Y-54611904D01*
X85921428Y-54650000D01*
X85959523Y-54688095D01*
X85997619Y-54764285D01*
X85997619Y-54840476D01*
X85959523Y-54954761D01*
X85502380Y-55411904D01*
X85997619Y-55411904D01*
%TO.C,U1*%
D10*
X67996190Y-39198571D02*
X68329523Y-39198571D01*
X68472380Y-39722380D02*
X67996190Y-39722380D01*
X67996190Y-38722380D01*
X68472380Y-38722380D01*
X68853333Y-39674761D02*
X68996190Y-39722380D01*
X69234285Y-39722380D01*
X69329523Y-39674761D01*
X69377142Y-39627142D01*
X69424761Y-39531904D01*
X69424761Y-39436666D01*
X69377142Y-39341428D01*
X69329523Y-39293809D01*
X69234285Y-39246190D01*
X69043809Y-39198571D01*
X68948571Y-39150952D01*
X68900952Y-39103333D01*
X68853333Y-39008095D01*
X68853333Y-38912857D01*
X68900952Y-38817619D01*
X68948571Y-38770000D01*
X69043809Y-38722380D01*
X69281904Y-38722380D01*
X69424761Y-38770000D01*
X69853333Y-39722380D02*
X69853333Y-38722380D01*
X70234285Y-38722380D01*
X70329523Y-38770000D01*
X70377142Y-38817619D01*
X70424761Y-38912857D01*
X70424761Y-39055714D01*
X70377142Y-39150952D01*
X70329523Y-39198571D01*
X70234285Y-39246190D01*
X69853333Y-39246190D01*
X70758095Y-38722380D02*
X71377142Y-38722380D01*
X71043809Y-39103333D01*
X71186666Y-39103333D01*
X71281904Y-39150952D01*
X71329523Y-39198571D01*
X71377142Y-39293809D01*
X71377142Y-39531904D01*
X71329523Y-39627142D01*
X71281904Y-39674761D01*
X71186666Y-39722380D01*
X70900952Y-39722380D01*
X70805714Y-39674761D01*
X70758095Y-39627142D01*
X71758095Y-38817619D02*
X71805714Y-38770000D01*
X71900952Y-38722380D01*
X72139047Y-38722380D01*
X72234285Y-38770000D01*
X72281904Y-38817619D01*
X72329523Y-38912857D01*
X72329523Y-39008095D01*
X72281904Y-39150952D01*
X71710476Y-39722380D01*
X72329523Y-39722380D01*
X72758095Y-39341428D02*
X73520000Y-39341428D01*
X73900952Y-38722380D02*
X74139047Y-39722380D01*
X74329523Y-39008095D01*
X74520000Y-39722380D01*
X74758095Y-38722380D01*
X75710476Y-39722380D02*
X75377142Y-39246190D01*
X75139047Y-39722380D02*
X75139047Y-38722380D01*
X75520000Y-38722380D01*
X75615238Y-38770000D01*
X75662857Y-38817619D01*
X75710476Y-38912857D01*
X75710476Y-39055714D01*
X75662857Y-39150952D01*
X75615238Y-39198571D01*
X75520000Y-39246190D01*
X75139047Y-39246190D01*
X76329523Y-38722380D02*
X76520000Y-38722380D01*
X76615238Y-38770000D01*
X76710476Y-38865238D01*
X76758095Y-39055714D01*
X76758095Y-39389047D01*
X76710476Y-39579523D01*
X76615238Y-39674761D01*
X76520000Y-39722380D01*
X76329523Y-39722380D01*
X76234285Y-39674761D01*
X76139047Y-39579523D01*
X76091428Y-39389047D01*
X76091428Y-39055714D01*
X76139047Y-38865238D01*
X76234285Y-38770000D01*
X76329523Y-38722380D01*
X77377142Y-38722380D02*
X77567619Y-38722380D01*
X77662857Y-38770000D01*
X77758095Y-38865238D01*
X77805714Y-39055714D01*
X77805714Y-39389047D01*
X77758095Y-39579523D01*
X77662857Y-39674761D01*
X77567619Y-39722380D01*
X77377142Y-39722380D01*
X77281904Y-39674761D01*
X77186666Y-39579523D01*
X77139047Y-39389047D01*
X77139047Y-39055714D01*
X77186666Y-38865238D01*
X77281904Y-38770000D01*
X77377142Y-38722380D01*
X78234285Y-39722380D02*
X78234285Y-38722380D01*
X78567619Y-39436666D01*
X78900952Y-38722380D01*
X78900952Y-39722380D01*
X79377142Y-39341428D02*
X80139047Y-39341428D01*
X80520000Y-38722380D02*
X81139047Y-38722380D01*
X80805714Y-39103333D01*
X80948571Y-39103333D01*
X81043809Y-39150952D01*
X81091428Y-39198571D01*
X81139047Y-39293809D01*
X81139047Y-39531904D01*
X81091428Y-39627142D01*
X81043809Y-39674761D01*
X80948571Y-39722380D01*
X80662857Y-39722380D01*
X80567619Y-39674761D01*
X80520000Y-39627142D01*
X81520000Y-38817619D02*
X81567619Y-38770000D01*
X81662857Y-38722380D01*
X81900952Y-38722380D01*
X81996190Y-38770000D01*
X82043809Y-38817619D01*
X82091428Y-38912857D01*
X82091428Y-39008095D01*
X82043809Y-39150952D01*
X81472380Y-39722380D01*
X82091428Y-39722380D01*
X74258095Y-36142380D02*
X74258095Y-36951904D01*
X74305714Y-37047142D01*
X74353333Y-37094761D01*
X74448571Y-37142380D01*
X74639047Y-37142380D01*
X74734285Y-37094761D01*
X74781904Y-37047142D01*
X74829523Y-36951904D01*
X74829523Y-36142380D01*
X75829523Y-37142380D02*
X75258095Y-37142380D01*
X75543809Y-37142380D02*
X75543809Y-36142380D01*
X75448571Y-36285238D01*
X75353333Y-36380476D01*
X75258095Y-36428095D01*
%TO.C,R3*%
X82042380Y-49665476D02*
X82042380Y-50236904D01*
X82042380Y-49951190D02*
X81042380Y-49951190D01*
X81185238Y-50046428D01*
X81280476Y-50141666D01*
X81328095Y-50236904D01*
X81042380Y-49046428D02*
X81042380Y-48951190D01*
X81090000Y-48855952D01*
X81137619Y-48808333D01*
X81232857Y-48760714D01*
X81423333Y-48713095D01*
X81661428Y-48713095D01*
X81851904Y-48760714D01*
X81947142Y-48808333D01*
X81994761Y-48855952D01*
X82042380Y-48951190D01*
X82042380Y-49046428D01*
X81994761Y-49141666D01*
X81947142Y-49189285D01*
X81851904Y-49236904D01*
X81661428Y-49284523D01*
X81423333Y-49284523D01*
X81232857Y-49236904D01*
X81137619Y-49189285D01*
X81090000Y-49141666D01*
X81042380Y-49046428D01*
X82042380Y-48284523D02*
X81042380Y-48284523D01*
X82042380Y-47713095D02*
X81470952Y-48141666D01*
X81042380Y-47713095D02*
X81613809Y-48284523D01*
D12*
X85286190Y-49030833D02*
X85048095Y-49197500D01*
X85286190Y-49316547D02*
X84786190Y-49316547D01*
X84786190Y-49126071D01*
X84810000Y-49078452D01*
X84833809Y-49054642D01*
X84881428Y-49030833D01*
X84952857Y-49030833D01*
X85000476Y-49054642D01*
X85024285Y-49078452D01*
X85048095Y-49126071D01*
X85048095Y-49316547D01*
X84786190Y-48864166D02*
X84786190Y-48554642D01*
X84976666Y-48721309D01*
X84976666Y-48649880D01*
X85000476Y-48602261D01*
X85024285Y-48578452D01*
X85071904Y-48554642D01*
X85190952Y-48554642D01*
X85238571Y-48578452D01*
X85262380Y-48602261D01*
X85286190Y-48649880D01*
X85286190Y-48792738D01*
X85262380Y-48840357D01*
X85238571Y-48864166D01*
%TO.C,R2*%
D10*
X89402380Y-55280714D02*
X89402380Y-54661666D01*
X89783333Y-54995000D01*
X89783333Y-54852142D01*
X89830952Y-54756904D01*
X89878571Y-54709285D01*
X89973809Y-54661666D01*
X90211904Y-54661666D01*
X90307142Y-54709285D01*
X90354761Y-54756904D01*
X90402380Y-54852142D01*
X90402380Y-55137857D01*
X90354761Y-55233095D01*
X90307142Y-55280714D01*
X89402380Y-54328333D02*
X89402380Y-53709285D01*
X89783333Y-54042619D01*
X89783333Y-53899761D01*
X89830952Y-53804523D01*
X89878571Y-53756904D01*
X89973809Y-53709285D01*
X90211904Y-53709285D01*
X90307142Y-53756904D01*
X90354761Y-53804523D01*
X90402380Y-53899761D01*
X90402380Y-54185476D01*
X90354761Y-54280714D01*
X90307142Y-54328333D01*
X89402380Y-53090238D02*
X89402380Y-52995000D01*
X89450000Y-52899761D01*
X89497619Y-52852142D01*
X89592857Y-52804523D01*
X89783333Y-52756904D01*
X90021428Y-52756904D01*
X90211904Y-52804523D01*
X90307142Y-52852142D01*
X90354761Y-52899761D01*
X90402380Y-52995000D01*
X90402380Y-53090238D01*
X90354761Y-53185476D01*
X90307142Y-53233095D01*
X90211904Y-53280714D01*
X90021428Y-53328333D01*
X89783333Y-53328333D01*
X89592857Y-53280714D01*
X89497619Y-53233095D01*
X89450000Y-53185476D01*
X89402380Y-53090238D01*
D12*
X90196190Y-54080833D02*
X89958095Y-54247500D01*
X90196190Y-54366547D02*
X89696190Y-54366547D01*
X89696190Y-54176071D01*
X89720000Y-54128452D01*
X89743809Y-54104642D01*
X89791428Y-54080833D01*
X89862857Y-54080833D01*
X89910476Y-54104642D01*
X89934285Y-54128452D01*
X89958095Y-54176071D01*
X89958095Y-54366547D01*
X89743809Y-53890357D02*
X89720000Y-53866547D01*
X89696190Y-53818928D01*
X89696190Y-53699880D01*
X89720000Y-53652261D01*
X89743809Y-53628452D01*
X89791428Y-53604642D01*
X89839047Y-53604642D01*
X89910476Y-53628452D01*
X90196190Y-53914166D01*
X90196190Y-53604642D01*
%TO.C,R1*%
D10*
X77465714Y-49555476D02*
X78132380Y-49555476D01*
X77084761Y-49793571D02*
X77799047Y-50031666D01*
X77799047Y-49412619D01*
X78132380Y-49031666D02*
X77132380Y-49031666D01*
X77751428Y-48936428D02*
X78132380Y-48650714D01*
X77465714Y-48650714D02*
X77846666Y-49031666D01*
X77132380Y-48317380D02*
X77132380Y-47650714D01*
X78132380Y-48079285D01*
D12*
X79386190Y-48980833D02*
X79148095Y-49147500D01*
X79386190Y-49266547D02*
X78886190Y-49266547D01*
X78886190Y-49076071D01*
X78910000Y-49028452D01*
X78933809Y-49004642D01*
X78981428Y-48980833D01*
X79052857Y-48980833D01*
X79100476Y-49004642D01*
X79124285Y-49028452D01*
X79148095Y-49076071D01*
X79148095Y-49266547D01*
X79386190Y-48504642D02*
X79386190Y-48790357D01*
X79386190Y-48647500D02*
X78886190Y-48647500D01*
X78957619Y-48695119D01*
X79005238Y-48742738D01*
X79029047Y-48790357D01*
%TO.C,J4*%
D10*
X56938095Y-40132380D02*
X56604761Y-39656190D01*
X56366666Y-40132380D02*
X56366666Y-39132380D01*
X56747619Y-39132380D01*
X56842857Y-39180000D01*
X56890476Y-39227619D01*
X56938095Y-39322857D01*
X56938095Y-39465714D01*
X56890476Y-39560952D01*
X56842857Y-39608571D01*
X56747619Y-39656190D01*
X56366666Y-39656190D01*
X57366666Y-39608571D02*
X57700000Y-39608571D01*
X57842857Y-40132380D02*
X57366666Y-40132380D01*
X57366666Y-39132380D01*
X57842857Y-39132380D01*
X58747619Y-40132380D02*
X58271428Y-40132380D01*
X58271428Y-39132380D01*
X59033333Y-39846666D02*
X59509523Y-39846666D01*
X58938095Y-40132380D02*
X59271428Y-39132380D01*
X59604761Y-40132380D01*
X60128571Y-39656190D02*
X60128571Y-40132380D01*
X59795238Y-39132380D02*
X60128571Y-39656190D01*
X60461904Y-39132380D01*
X60557142Y-40227619D02*
X61319047Y-40227619D01*
X61557142Y-39608571D02*
X61890476Y-39608571D01*
X62033333Y-40132380D02*
X61557142Y-40132380D01*
X61557142Y-39132380D01*
X62033333Y-39132380D01*
X62461904Y-40132380D02*
X62461904Y-39132380D01*
X63033333Y-40132380D01*
X63033333Y-39132380D01*
X63156666Y-37912380D02*
X63156666Y-38626666D01*
X63109047Y-38769523D01*
X63013809Y-38864761D01*
X62870952Y-38912380D01*
X62775714Y-38912380D01*
X64061428Y-38245714D02*
X64061428Y-38912380D01*
X63823333Y-37864761D02*
X63585238Y-38579047D01*
X64204285Y-38579047D01*
%TO.C,J3*%
X64802380Y-48394761D02*
X64326190Y-48728095D01*
X64802380Y-48966190D02*
X63802380Y-48966190D01*
X63802380Y-48585238D01*
X63850000Y-48490000D01*
X63897619Y-48442380D01*
X63992857Y-48394761D01*
X64135714Y-48394761D01*
X64230952Y-48442380D01*
X64278571Y-48490000D01*
X64326190Y-48585238D01*
X64326190Y-48966190D01*
X64278571Y-47966190D02*
X64278571Y-47632857D01*
X64802380Y-47490000D02*
X64802380Y-47966190D01*
X63802380Y-47966190D01*
X63802380Y-47490000D01*
X64802380Y-46585238D02*
X64802380Y-47061428D01*
X63802380Y-47061428D01*
X64516666Y-46299523D02*
X64516666Y-45823333D01*
X64802380Y-46394761D02*
X63802380Y-46061428D01*
X64802380Y-45728095D01*
X64326190Y-45204285D02*
X64802380Y-45204285D01*
X63802380Y-45537619D02*
X64326190Y-45204285D01*
X63802380Y-44870952D01*
X61902380Y-47323333D02*
X62616666Y-47323333D01*
X62759523Y-47370952D01*
X62854761Y-47466190D01*
X62902380Y-47609047D01*
X62902380Y-47704285D01*
X61902380Y-46942380D02*
X61902380Y-46323333D01*
X62283333Y-46656666D01*
X62283333Y-46513809D01*
X62330952Y-46418571D01*
X62378571Y-46370952D01*
X62473809Y-46323333D01*
X62711904Y-46323333D01*
X62807142Y-46370952D01*
X62854761Y-46418571D01*
X62902380Y-46513809D01*
X62902380Y-46799523D01*
X62854761Y-46894761D01*
X62807142Y-46942380D01*
%TO.C,J2*%
X91872380Y-39832380D02*
X91872380Y-39641904D01*
X91920000Y-39546666D01*
X92015238Y-39451428D01*
X92205714Y-39403809D01*
X92539047Y-39403809D01*
X92729523Y-39451428D01*
X92824761Y-39546666D01*
X92872380Y-39641904D01*
X92872380Y-39832380D01*
X92824761Y-39927619D01*
X92729523Y-40022857D01*
X92539047Y-40070476D01*
X92205714Y-40070476D01*
X92015238Y-40022857D01*
X91920000Y-39927619D01*
X91872380Y-39832380D01*
X92872380Y-38499047D02*
X92872380Y-38975238D01*
X91872380Y-38975238D01*
X92348571Y-38165714D02*
X92348571Y-37832380D01*
X92872380Y-37689523D02*
X92872380Y-38165714D01*
X91872380Y-38165714D01*
X91872380Y-37689523D01*
X92872380Y-37260952D02*
X91872380Y-37260952D01*
X91872380Y-37022857D01*
X91920000Y-36880000D01*
X92015238Y-36784761D01*
X92110476Y-36737142D01*
X92300952Y-36689523D01*
X92443809Y-36689523D01*
X92634285Y-36737142D01*
X92729523Y-36784761D01*
X92824761Y-36880000D01*
X92872380Y-37022857D01*
X92872380Y-37260952D01*
X87092380Y-43433333D02*
X87806666Y-43433333D01*
X87949523Y-43480952D01*
X88044761Y-43576190D01*
X88092380Y-43719047D01*
X88092380Y-43814285D01*
X87187619Y-43004761D02*
X87140000Y-42957142D01*
X87092380Y-42861904D01*
X87092380Y-42623809D01*
X87140000Y-42528571D01*
X87187619Y-42480952D01*
X87282857Y-42433333D01*
X87378095Y-42433333D01*
X87520952Y-42480952D01*
X88092380Y-43052380D01*
X88092380Y-42433333D01*
%TO.C,J1*%
X68474285Y-46022380D02*
X69045714Y-46022380D01*
X68760000Y-47022380D02*
X68760000Y-46022380D01*
X69379047Y-46498571D02*
X69712380Y-46498571D01*
X69855238Y-47022380D02*
X69379047Y-47022380D01*
X69379047Y-46022380D01*
X69855238Y-46022380D01*
X70283809Y-47022380D02*
X70283809Y-46022380D01*
X70617142Y-46736666D01*
X70950476Y-46022380D01*
X70950476Y-47022380D01*
X71426666Y-47022380D02*
X71426666Y-46022380D01*
X71807619Y-46022380D01*
X71902857Y-46070000D01*
X71950476Y-46117619D01*
X71998095Y-46212857D01*
X71998095Y-46355714D01*
X71950476Y-46450952D01*
X71902857Y-46498571D01*
X71807619Y-46546190D01*
X71426666Y-46546190D01*
X72379047Y-46974761D02*
X72521904Y-47022380D01*
X72760000Y-47022380D01*
X72855238Y-46974761D01*
X72902857Y-46927142D01*
X72950476Y-46831904D01*
X72950476Y-46736666D01*
X72902857Y-46641428D01*
X72855238Y-46593809D01*
X72760000Y-46546190D01*
X72569523Y-46498571D01*
X72474285Y-46450952D01*
X72426666Y-46403333D01*
X72379047Y-46308095D01*
X72379047Y-46212857D01*
X72426666Y-46117619D01*
X72474285Y-46070000D01*
X72569523Y-46022380D01*
X72807619Y-46022380D01*
X72950476Y-46070000D01*
X70426666Y-47922380D02*
X70426666Y-48636666D01*
X70379047Y-48779523D01*
X70283809Y-48874761D01*
X70140952Y-48922380D01*
X70045714Y-48922380D01*
X71426666Y-48922380D02*
X70855238Y-48922380D01*
X71140952Y-48922380D02*
X71140952Y-47922380D01*
X71045714Y-48065238D01*
X70950476Y-48160476D01*
X70855238Y-48208095D01*
%TO.C,C5*%
X84292380Y-49931428D02*
X84292380Y-50502857D01*
X84292380Y-50217142D02*
X83292380Y-50217142D01*
X83435238Y-50312380D01*
X83530476Y-50407619D01*
X83578095Y-50502857D01*
X83292380Y-49312380D02*
X83292380Y-49217142D01*
X83340000Y-49121904D01*
X83387619Y-49074285D01*
X83482857Y-49026666D01*
X83673333Y-48979047D01*
X83911428Y-48979047D01*
X84101904Y-49026666D01*
X84197142Y-49074285D01*
X84244761Y-49121904D01*
X84292380Y-49217142D01*
X84292380Y-49312380D01*
X84244761Y-49407619D01*
X84197142Y-49455238D01*
X84101904Y-49502857D01*
X83911428Y-49550476D01*
X83673333Y-49550476D01*
X83482857Y-49502857D01*
X83387619Y-49455238D01*
X83340000Y-49407619D01*
X83292380Y-49312380D01*
X83625714Y-48121904D02*
X84292380Y-48121904D01*
X83625714Y-48550476D02*
X84149523Y-48550476D01*
X84244761Y-48502857D01*
X84292380Y-48407619D01*
X84292380Y-48264761D01*
X84244761Y-48169523D01*
X84197142Y-48121904D01*
X83768571Y-47312380D02*
X83768571Y-47645714D01*
X84292380Y-47645714D02*
X83292380Y-47645714D01*
X83292380Y-47169523D01*
D12*
X82978571Y-49003333D02*
X83002380Y-49027142D01*
X83026190Y-49098571D01*
X83026190Y-49146190D01*
X83002380Y-49217619D01*
X82954761Y-49265238D01*
X82907142Y-49289047D01*
X82811904Y-49312857D01*
X82740476Y-49312857D01*
X82645238Y-49289047D01*
X82597619Y-49265238D01*
X82550000Y-49217619D01*
X82526190Y-49146190D01*
X82526190Y-49098571D01*
X82550000Y-49027142D01*
X82573809Y-49003333D01*
X82526190Y-48550952D02*
X82526190Y-48789047D01*
X82764285Y-48812857D01*
X82740476Y-48789047D01*
X82716666Y-48741428D01*
X82716666Y-48622380D01*
X82740476Y-48574761D01*
X82764285Y-48550952D01*
X82811904Y-48527142D01*
X82930952Y-48527142D01*
X82978571Y-48550952D01*
X83002380Y-48574761D01*
X83026190Y-48622380D01*
X83026190Y-48741428D01*
X83002380Y-48789047D01*
X82978571Y-48812857D01*
%TO.C,C4*%
D10*
X78442380Y-55097619D02*
X78442380Y-55669047D01*
X78442380Y-55383333D02*
X77442380Y-55383333D01*
X77585238Y-55478571D01*
X77680476Y-55573809D01*
X77728095Y-55669047D01*
X77442380Y-54478571D02*
X77442380Y-54383333D01*
X77490000Y-54288095D01*
X77537619Y-54240476D01*
X77632857Y-54192857D01*
X77823333Y-54145238D01*
X78061428Y-54145238D01*
X78251904Y-54192857D01*
X78347142Y-54240476D01*
X78394761Y-54288095D01*
X78442380Y-54383333D01*
X78442380Y-54478571D01*
X78394761Y-54573809D01*
X78347142Y-54621428D01*
X78251904Y-54669047D01*
X78061428Y-54716666D01*
X77823333Y-54716666D01*
X77632857Y-54669047D01*
X77537619Y-54621428D01*
X77490000Y-54573809D01*
X77442380Y-54478571D01*
X77442380Y-53526190D02*
X77442380Y-53430952D01*
X77490000Y-53335714D01*
X77537619Y-53288095D01*
X77632857Y-53240476D01*
X77823333Y-53192857D01*
X78061428Y-53192857D01*
X78251904Y-53240476D01*
X78347142Y-53288095D01*
X78394761Y-53335714D01*
X78442380Y-53430952D01*
X78442380Y-53526190D01*
X78394761Y-53621428D01*
X78347142Y-53669047D01*
X78251904Y-53716666D01*
X78061428Y-53764285D01*
X77823333Y-53764285D01*
X77632857Y-53716666D01*
X77537619Y-53669047D01*
X77490000Y-53621428D01*
X77442380Y-53526190D01*
X77775714Y-52764285D02*
X78442380Y-52764285D01*
X77870952Y-52764285D02*
X77823333Y-52716666D01*
X77775714Y-52621428D01*
X77775714Y-52478571D01*
X77823333Y-52383333D01*
X77918571Y-52335714D01*
X78442380Y-52335714D01*
X77918571Y-51526190D02*
X77918571Y-51859523D01*
X78442380Y-51859523D02*
X77442380Y-51859523D01*
X77442380Y-51383333D01*
D12*
X79408571Y-53723333D02*
X79432380Y-53747142D01*
X79456190Y-53818571D01*
X79456190Y-53866190D01*
X79432380Y-53937619D01*
X79384761Y-53985238D01*
X79337142Y-54009047D01*
X79241904Y-54032857D01*
X79170476Y-54032857D01*
X79075238Y-54009047D01*
X79027619Y-53985238D01*
X78980000Y-53937619D01*
X78956190Y-53866190D01*
X78956190Y-53818571D01*
X78980000Y-53747142D01*
X79003809Y-53723333D01*
X79122857Y-53294761D02*
X79456190Y-53294761D01*
X78932380Y-53413809D02*
X79289523Y-53532857D01*
X79289523Y-53223333D01*
%TO.C,C2*%
D10*
X60222380Y-39581428D02*
X60222380Y-40152857D01*
X60222380Y-39867142D02*
X59222380Y-39867142D01*
X59365238Y-39962380D01*
X59460476Y-40057619D01*
X59508095Y-40152857D01*
X59222380Y-38962380D02*
X59222380Y-38867142D01*
X59270000Y-38771904D01*
X59317619Y-38724285D01*
X59412857Y-38676666D01*
X59603333Y-38629047D01*
X59841428Y-38629047D01*
X60031904Y-38676666D01*
X60127142Y-38724285D01*
X60174761Y-38771904D01*
X60222380Y-38867142D01*
X60222380Y-38962380D01*
X60174761Y-39057619D01*
X60127142Y-39105238D01*
X60031904Y-39152857D01*
X59841428Y-39200476D01*
X59603333Y-39200476D01*
X59412857Y-39152857D01*
X59317619Y-39105238D01*
X59270000Y-39057619D01*
X59222380Y-38962380D01*
X59555714Y-37771904D02*
X60222380Y-37771904D01*
X59555714Y-38200476D02*
X60079523Y-38200476D01*
X60174761Y-38152857D01*
X60222380Y-38057619D01*
X60222380Y-37914761D01*
X60174761Y-37819523D01*
X60127142Y-37771904D01*
X59698571Y-36962380D02*
X59698571Y-37295714D01*
X60222380Y-37295714D02*
X59222380Y-37295714D01*
X59222380Y-36819523D01*
D12*
X64368571Y-38523333D02*
X64392380Y-38547142D01*
X64416190Y-38618571D01*
X64416190Y-38666190D01*
X64392380Y-38737619D01*
X64344761Y-38785238D01*
X64297142Y-38809047D01*
X64201904Y-38832857D01*
X64130476Y-38832857D01*
X64035238Y-38809047D01*
X63987619Y-38785238D01*
X63940000Y-38737619D01*
X63916190Y-38666190D01*
X63916190Y-38618571D01*
X63940000Y-38547142D01*
X63963809Y-38523333D01*
X63963809Y-38332857D02*
X63940000Y-38309047D01*
X63916190Y-38261428D01*
X63916190Y-38142380D01*
X63940000Y-38094761D01*
X63963809Y-38070952D01*
X64011428Y-38047142D01*
X64059047Y-38047142D01*
X64130476Y-38070952D01*
X64416190Y-38356666D01*
X64416190Y-38047142D01*
%TD*%
M02*
